<svg width="60" height="60" viewBox="0 0 60 60" fill="none" xmlns="http://www.w3.org/2000/svg">
<g clip-path="url(#clip0_3_48)">
<path d="M3.98455 0.128937C2.59002 0.398468 1.11346 1.57034 0.515804 2.87112C-0.76154 5.63675 0.586116 8.7305 3.50409 9.75003C4.00799 9.92581 4.39471 9.97269 5.19159 9.93753L6.23455 9.90237L7.57049 12.7032C8.30877 14.25 8.90643 15.5508 8.90643 15.5977C8.90643 15.6563 8.59002 15.9024 8.21502 16.1719C5.00409 18.3516 3.05877 22.0078 3.04705 25.8985C3.04705 29.7891 4.58221 32.918 7.81659 35.625L8.30877 36.0352L7.40643 37.6407C6.73846 38.8477 6.45721 39.2344 6.3283 39.1875C6.23455 39.1407 5.77752 39.0821 5.33221 39.0586C2.75409 38.8711 0.527523 40.6641 0.0939287 43.2774C-0.234196 45.2813 0.879085 47.4727 2.69549 48.3985C5.47284 49.8047 8.75409 48.4571 9.72674 45.5157C9.93768 44.8828 9.98455 44.5547 9.93768 43.7227C9.87909 42.5391 9.55096 41.7188 8.77752 40.8282C8.53143 40.5352 8.32049 40.2539 8.32049 40.1836C8.32049 39.9961 10.0666 36.9727 10.1603 36.9961C10.2072 37.0078 10.6408 37.1602 11.1096 37.3125C13.2189 38.0508 15.8439 38.168 17.9299 37.6289C19.008 37.3477 20.7658 36.5625 21.5978 35.9883C21.8791 35.8008 22.1603 35.625 22.2189 35.6016C22.3478 35.5547 26.133 39.6563 26.133 39.8321C26.133 39.9024 25.9806 40.125 25.7931 40.336C23.9533 42.4571 22.8049 45.9961 23.0392 48.8672L23.1213 49.7813L22.6642 49.9102C21.9377 50.0977 18.6799 50.8594 18.5978 50.8594C18.5627 50.8594 18.34 50.5664 18.0939 50.2149C17.2267 48.8907 15.9142 48.1524 14.3205 48.0703C12.4689 47.9766 11.0744 48.6211 9.99627 50.086C7.79315 53.0742 9.56268 57.293 13.2775 57.9141C15.926 58.3477 18.4689 56.461 18.9025 53.7188C19.0314 52.8633 19.0431 52.8399 19.4533 52.7344C20.426 52.4766 23.3556 51.7969 23.4963 51.7969C23.5783 51.7969 23.7189 51.9961 23.7892 52.2422C23.8713 52.4766 24.1408 53.0742 24.3986 53.5547C27.3283 59.0625 33.7853 61.418 39.5392 59.0742C43.0666 57.6328 45.7267 54.5391 46.676 50.7422C46.8635 49.9688 46.9221 49.3828 46.9221 48.1055C46.9221 46.0313 46.5939 44.4492 45.8556 42.961C45.6916 42.6446 45.6096 42.3516 45.6681 42.3047C45.7853 42.1875 50.9182 38.836 51.2228 38.6602C51.3986 38.5664 51.551 38.625 51.9846 38.9532C52.7814 39.5625 53.6838 39.8789 54.8088 39.9375C56.2971 40.0078 57.4924 39.5274 58.5705 38.4375C61.3713 35.5899 59.7307 30.75 55.7346 30.0938C53.3322 29.6953 51.0236 31.1719 50.215 33.6094C50.0158 34.2188 50.0158 34.5352 50.1799 36.5391C50.215 36.9141 50.1799 36.9375 47.3439 38.7891L44.4728 40.6524L43.8869 39.9961C43.1603 39.1758 41.8361 38.1094 40.84 37.5586C40.4181 37.3242 40.0783 37.0782 40.0783 37.0078C40.0783 36.8555 44.7775 23.7539 44.883 23.6485C44.9181 23.6016 45.1291 23.6133 45.3517 23.6719C45.5744 23.7422 46.2892 23.8477 46.9338 23.918C50.4494 24.2813 54.1291 22.9102 56.6252 20.2969C61.0666 15.6328 61.1135 8.49612 56.7189 3.82034C52.1721 -1.03122 44.6955 -1.26559 39.7971 3.28128C39.1056 3.91409 38.0275 5.32034 37.5002 6.24612C37.2189 6.73831 37.0666 6.90237 36.926 6.8555C36.8205 6.82034 36.1291 6.57425 35.3908 6.293L34.0431 5.78909L34.0197 5.27347C33.9611 4.31253 33.7267 3.35159 33.3986 2.69534C32.4611 0.867218 30.2463 -0.257782 28.2424 0.0937809C26.2385 0.457062 24.6799 1.85159 24.1877 3.75003C23.5666 6.14066 24.8556 8.69534 27.1642 9.63284C27.715 9.8555 28.0549 9.90237 29.0627 9.90237C30.2228 9.90237 30.3517 9.87894 31.0666 9.52737C31.8166 9.15237 32.6955 8.42581 33.0705 7.87503L33.2463 7.61722L34.8166 8.20316C35.6721 8.53128 36.3869 8.81253 36.4103 8.83597C36.4338 8.85941 36.3635 9.23441 36.2463 9.67972C35.9416 10.9102 35.9767 13.3477 36.3166 14.6836C36.4689 15.2578 36.5627 15.7383 36.5392 15.7617C36.4572 15.8321 25.6291 20.4024 25.6056 20.3672C25.5939 20.3438 25.3361 19.9453 25.0314 19.4883C22.7931 16.0664 19.0783 14.0508 15.0002 14.0508C13.6642 14.0508 12.34 14.25 11.3439 14.6016C11.0744 14.6953 10.8166 14.7305 10.7697 14.6836C10.6642 14.5782 8.08612 9.17581 8.08612 9.07034C8.08612 9.02347 8.33221 8.7305 8.6369 8.39066C9.46893 7.46487 9.87909 6.49222 9.93768 5.26175C9.97284 4.50003 9.93768 4.08987 9.78534 3.62112C8.94159 1.06644 6.56268 -0.374969 3.98455 0.128937ZM6.29315 2.33206C7.31268 2.84769 7.86346 3.70316 7.94549 4.87503C8.02752 6.09378 7.40643 7.12503 6.26971 7.68753C4.8283 8.37894 3.08221 7.76956 2.33221 6.30472C1.31268 4.31253 2.94159 1.87503 5.16815 2.03909C5.51971 2.06253 6.03534 2.19144 6.29315 2.33206ZM30.3049 2.32034C32.133 3.25784 32.5314 5.66019 31.09 7.10159C30.4338 7.75784 30.0471 7.91019 29.0041 7.91019C28.1955 7.91019 27.9963 7.86331 27.5275 7.59378C25.2306 6.24612 25.6525 2.94144 28.2424 2.09769C28.7111 1.94534 29.801 2.06253 30.3049 2.32034ZM50.4846 2.33206C53.4142 3.1055 55.7814 5.09769 57.0588 7.87503C57.7502 9.37503 57.9494 10.336 57.9377 12.1289C57.926 13.4297 57.8791 13.8047 57.6096 14.7071C57.258 15.8789 56.5666 17.2735 55.9689 18.0235L55.5588 18.5274L55.2072 17.8477C54.5744 16.5821 53.3322 15.3516 52.0666 14.7305L51.5744 14.4961L51.9025 14.0742C54.6682 10.5586 51.6564 5.40237 47.2619 6.09378C44.6721 6.50394 42.8088 8.87112 43.0431 11.4258C43.1369 12.3516 43.383 13.0078 43.9338 13.8164L44.3908 14.4844L43.7697 14.8125C42.5978 15.4219 41.4377 16.5938 40.8049 17.7774C40.6291 18.1172 40.4416 18.3867 40.3713 18.3633C40.1486 18.293 39.1525 16.711 38.7892 15.8438C38.2736 14.6133 38.0627 13.5 38.0627 12.0117C38.051 10.4883 38.2736 9.36331 38.8127 8.10941C40.1955 4.91019 42.9611 2.74222 46.4885 2.10941C47.3439 1.94534 49.5119 2.07425 50.4846 2.33206ZM49.2189 8.27347C51.0236 9.03519 51.5392 11.6016 50.1799 13.0547C49.0314 14.2852 46.7697 14.2149 45.7033 12.9141C44.5431 11.5078 44.8478 9.64456 46.4416 8.43753C47.051 7.9805 48.3283 7.91019 49.2189 8.27347ZM17.0392 16.2305C20.5783 16.9571 23.4142 19.5469 24.5627 23.086C24.8556 23.9883 24.8908 24.2461 24.8908 25.8985C24.9025 27.4571 24.8674 27.8438 24.633 28.6407C24.3166 29.7422 23.4728 31.4297 22.9221 32.0625L22.5353 32.5196L22.1486 31.7578C21.6681 30.7852 20.133 29.2383 19.2541 28.8399C18.9142 28.6758 18.633 28.5117 18.633 28.4649C18.633 28.418 18.7619 28.2188 18.926 28.0313C19.09 27.8321 19.3713 27.3633 19.5471 26.9883C19.8283 26.3789 19.8635 26.1797 19.8635 25.0196C19.8635 23.7539 19.8517 23.6953 19.4299 22.8399C18.1408 20.2383 15.0119 19.2657 12.5275 20.6719C10.7697 21.6797 9.73846 23.8125 10.0783 25.7696C10.2424 26.7071 10.4299 27.1758 10.9572 27.9024C11.4142 28.5469 11.4377 28.5938 11.2033 28.5938C10.8869 28.5938 9.25799 29.7774 8.71893 30.4102C8.42596 30.7617 8.0158 31.3711 7.80487 31.7578L7.41815 32.4844L7.04315 32.0274C6.50409 31.3711 5.67205 29.7071 5.36737 28.6407C5.13299 27.8438 5.09784 27.4571 5.10955 25.8985C5.10955 24.2461 5.14471 23.9883 5.43768 23.086C6.5744 19.5821 9.39862 16.9922 12.8908 16.2422C13.9103 16.0196 15.9846 16.0078 17.0392 16.2305ZM50.9064 16.3946C51.3986 16.5938 51.8205 16.8985 52.383 17.4492C53.1799 18.2344 53.5432 18.7969 53.7658 19.6055C53.883 20.0391 53.883 20.0391 53.3674 20.4024C51.8908 21.4102 50.0158 21.961 47.9885 21.9492C46.0666 21.9492 44.5549 21.5508 42.9846 20.6133C42.0471 20.0625 42.0236 19.9688 42.5275 18.9024C43.1252 17.6367 44.133 16.7578 45.5275 16.2657C46.0197 16.0899 46.4533 16.0547 48.1642 16.0899C50.0041 16.1133 50.2853 16.1485 50.9064 16.3946ZM38.0275 18.6328C39.0236 20.1563 41.051 21.961 42.5978 22.6992C42.8908 22.8399 42.9963 22.9571 42.9377 23.0742C42.9025 23.1797 41.8478 26.086 40.6056 29.5313C39.3635 32.9766 38.2853 35.9414 38.2267 36.1055L38.0978 36.4219L37.3596 36.2696C34.3361 35.6485 31.1721 36.2344 28.6174 37.8867C28.1486 38.1914 27.7385 38.4375 27.715 38.4375C27.6916 38.4375 26.7892 37.4766 25.7228 36.3164L23.7892 34.1836L24.0822 33.8203C24.7033 33.0703 25.6525 31.5469 26.0041 30.7266C26.6369 29.2969 26.8596 28.2422 26.9181 26.4258C26.9767 24.8907 26.8596 23.8594 26.4728 22.4063C26.4377 22.2891 28.1369 21.5157 31.8752 19.9219C34.8752 18.6563 37.3596 17.6367 37.3947 17.6836C37.4299 17.7188 37.7228 18.1524 38.0275 18.6328ZM16.1721 22.2774C16.8752 22.5938 17.3205 23.0274 17.6486 23.7305C18.4455 25.3946 17.4963 27.4336 15.7385 27.8789C15.0822 28.0547 14.801 28.043 14.0744 27.8203C12.5041 27.3633 11.6369 25.5821 12.176 23.9766C12.6916 22.4532 14.6955 21.6094 16.1721 22.2774ZM17.1447 30.1758C18.1408 30.4336 18.715 30.7735 19.4767 31.5352C20.1681 32.2149 20.6955 33.1524 20.7658 33.7969C20.801 34.1016 20.7306 34.1719 19.84 34.6875C18.1174 35.6719 16.4885 36.0586 14.4142 35.9414C12.9494 35.8477 12.1056 35.6485 10.8049 35.0391C9.60955 34.4766 9.1408 34.1485 9.1408 33.8789C9.1408 33.7617 9.3283 33.293 9.55096 32.8477C10.2189 31.5117 11.4377 30.5039 12.8322 30.1641C13.6877 29.9532 16.3244 29.9649 17.1447 30.1758ZM56.0627 32.2266C57.6799 32.836 58.4416 34.7813 57.6682 36.3047C57.1525 37.3125 56.2971 37.8633 55.1252 37.9453C53.9182 38.0274 52.8869 37.418 52.3361 36.3047C51.5275 34.6875 52.3361 32.7891 54.1057 32.1563C54.7385 31.9336 55.3244 31.9571 56.0627 32.2266ZM37.5002 38.3321C40.3947 39.0703 42.7736 41.0742 44.051 43.8516C44.7424 45.3399 44.9416 46.3125 44.9299 48.1055C44.9299 49.8516 44.6838 50.9297 43.9924 52.3008C43.6291 53.0157 42.6916 54.4922 42.5861 54.4922C42.5744 54.4922 42.3752 54.1641 42.176 53.7657C41.6603 52.793 40.1369 51.2696 39.2228 50.8242L38.5549 50.4961L38.9533 49.9688C39.6447 49.0664 39.8908 48.2696 39.8908 46.9922C39.8908 45.6563 39.6096 44.8242 38.8596 43.9102C37.2072 41.8594 34.3478 41.4492 32.1447 42.9258C31.4181 43.418 30.6799 44.3438 30.34 45.1992C30.1174 45.7383 30.0705 46.1016 30.0705 46.9922C30.0705 48.2696 30.3166 49.0664 31.008 49.9688L31.4064 50.4961L30.7385 50.8242C29.8478 51.2578 28.2892 52.793 27.8205 53.6953C27.633 54.0703 27.4338 54.3633 27.3635 54.3399C27.1291 54.2696 26.133 52.6875 25.7814 51.8438C24.7853 49.4532 24.7853 46.5821 25.7814 44.168C26.7658 41.7891 28.9221 39.6563 31.2775 38.7305C31.9924 38.461 33.2931 38.1328 34.1017 38.0391C34.8517 37.9571 36.6096 38.1094 37.5002 38.3321ZM5.96502 41.1914C6.65643 41.4258 7.23065 41.9063 7.59393 42.5274C7.86346 42.9961 7.91034 43.1953 7.91034 44.0039C7.91034 45.0469 7.75799 45.4336 7.10174 46.0899C5.66034 47.5313 3.28143 47.1446 2.30877 45.3047C1.95721 44.6367 1.95721 43.3711 2.30877 42.7149C3.02362 41.3438 4.58221 40.6992 5.96502 41.1914ZM36.4103 44.4024C37.4181 44.918 37.9103 45.7617 37.9103 46.9922C37.9103 48.0235 37.6525 48.5977 36.9611 49.2188C36.3517 49.7461 35.801 49.9453 34.9806 49.9453C34.1369 49.9453 33.5861 49.7344 32.9533 49.1719C31.4416 47.8008 31.7931 45.2813 33.6096 44.3555C34.465 43.9336 35.5197 43.9453 36.4103 44.4024ZM15.3283 50.3438C17.7072 51.5274 17.4142 55.0782 14.8713 55.8282C14.0978 56.0625 13.9103 56.0625 13.1369 55.8282C11.9767 55.4883 11.0158 54.2461 11.0158 53.0742C11.0158 50.8125 13.3244 49.3477 15.3283 50.3438ZM37.9689 52.4532C39.3283 53.0977 40.3947 54.3282 40.758 55.6758L40.8752 56.1094L40.0314 56.5782C38.1447 57.6563 37.0666 57.9492 34.9221 57.9375C33.551 57.9258 33.1994 57.8789 32.3088 57.6094C30.633 57.1055 29.1799 56.2852 29.1799 55.8516C29.1799 55.4297 29.8478 54.1758 30.3635 53.6133C30.926 53.0039 31.6408 52.5469 32.5197 52.2422C33.0119 52.0664 33.4338 52.0313 35.1564 52.0547C37.1838 52.0899 37.2189 52.0899 37.9689 52.4532Z" fill="black"/>
</g>
<defs>
<clipPath id="clip0_3_48">
<rect width="60" height="60" fill="white"/>
</clipPath>
</defs>
</svg>
