<svg width="58" height="58" viewBox="0 0 58 58" fill="none" xmlns="http://www.w3.org/2000/svg">
<g clip-path="url(#clip0_1_34)">
<path d="M20.4453 3.55859L10.3086 6.21875L10.25 5.64453C10.1328 4.60156 10.2617 4.625 5.53906 4.625H1.44922L1.16797 4.91797L0.875 5.19922V12.125V19.0508L1.16797 19.332L1.44922 19.625H5.5625H9.67578L9.95703 19.332C10.2031 19.0977 10.25 18.9336 10.25 18.3945V17.75H13.1211H15.9922L19.2852 16.8125C21.0898 16.2969 22.625 15.875 22.6953 15.875C22.7656 15.875 19.8477 18.2539 16.2148 21.1602C12.582 24.0547 9.53516 26.5156 9.45312 26.6211C9.38281 26.7266 9.3125 26.9727 9.3125 27.1719C9.3125 27.4766 9.57031 27.7812 10.9883 29.1992C12.8164 31.0273 13.0391 31.1445 13.6953 30.6289L14 30.3945V35.5273C13.9883 40.625 13.9883 40.6602 13.7305 41.082L13.4727 41.5039L10.25 39.8281C8.48047 38.9023 6.76953 38.0586 6.45312 37.9648C4.21484 37.2852 1.8125 38.5742 1.10938 40.8242C0.816406 41.7383 0.804688 42.3711 1.08594 42.6875C1.34375 42.9922 26.8086 57.125 27.0898 57.125C27.207 57.125 31.9062 55.918 37.5312 54.4531L47.75 51.7812V52.2852C47.75 52.6719 47.8203 52.8711 48.043 53.082L48.3242 53.375H52.4375H56.5508L56.832 53.082L57.125 52.8008V45.875V38.9492L56.832 38.668L56.5508 38.375H52.4375H48.3242L48.043 38.668C47.7969 38.9023 47.75 39.0664 47.75 39.6055V40.25H45.875H44V35.3164V30.3945L44.3047 30.6289C44.9492 31.1445 45.1836 31.0156 46.9531 29.2695C47.8438 28.3789 48.6055 27.5352 48.6523 27.3945C48.6875 27.2422 48.6875 27.0078 48.6406 26.8555C48.6055 26.6797 46.9648 25.2969 43.9531 22.9062C41.4102 20.8789 39.3242 19.1914 39.3242 19.1562C39.3125 19.1211 39.8047 19.0977 40.4023 19.0859C41.3047 19.0859 41.5859 19.0391 42.1484 18.7812C42.9102 18.4297 43.7891 17.668 44.2227 16.9766L44.5273 16.4844L47.75 18.1719C49.5195 19.0977 51.2305 19.9414 51.5469 20.0352C53.7852 20.7148 56.1875 19.4258 56.8906 17.1758C57.1836 16.2617 57.1953 15.6289 56.9258 15.3125C56.6094 14.9492 31.168 0.874999 30.8516 0.886718C30.6992 0.898437 26.0234 2.09375 20.4453 3.55859ZM42.8984 9.55859C49.5312 13.2383 55.0039 16.2969 55.0625 16.3438C55.4023 16.6602 54.4883 17.8555 53.668 18.1719C52.5781 18.582 52.8242 18.6875 42.4883 13.3203C37.1797 10.5547 32.8555 8.375 32.6914 8.375C32 8.375 31.5547 9.34766 32.0234 9.875C32.1289 10.0039 34.6016 11.3398 37.4961 12.8398C40.4023 14.3398 42.793 15.582 42.8164 15.6055C42.8516 15.6289 42.7109 15.8633 42.5234 16.1328C42.043 16.8242 41.1406 17.2812 40.2383 17.2812C39.582 17.2812 39.3477 17.1758 34.3906 14.7031C31.5547 13.2852 29.1523 12.125 29.0586 12.125C28.9531 12.125 25.9297 12.9688 22.3203 14L15.7578 15.875H13.0039H10.25V12.0195V8.17578L11.457 7.85938C21.0078 5.32812 30.3945 2.89062 30.5938 2.87891C30.7344 2.87891 36.2656 5.87891 42.8984 9.55859ZM8.375 12.125V17.75H5.5625H2.75V12.125V6.5H5.5625H8.375V12.125ZM30.3242 14.7734C31.5312 15.3828 32.1992 15.8867 38.9844 21.3125L46.332 27.1836L45.5938 27.9336L44.8438 28.6836L37.0859 22.7422C31.1562 18.2188 29.2461 16.8125 29 16.8125C28.7539 16.8125 27.9922 17.3398 26.0586 18.8281C24.6172 19.9297 21.125 22.6016 18.3008 24.7578L13.1562 28.6836L12.4062 27.9336L11.668 27.1836L19.625 20.8203C27.4297 14.5742 27.9805 14.1758 28.8008 14.1289C28.9062 14.1172 29.5977 14.4102 30.3242 14.7734ZM35.5977 23.9609L42.1133 28.9414L42.125 34.5781V40.2148L37.5547 41.5273C35.0469 42.2422 32.9375 42.8281 32.8789 42.8281C32.7969 42.8281 32.75 40.3789 32.7266 35.9375L32.6914 29.0586L32.3867 28.4023C31.2734 26.0352 28.2031 25.4844 26.375 27.3125C26.1289 27.5703 25.7773 28.0625 25.6133 28.4141L25.3086 29.0586L25.2734 35.5273L25.2383 42.0078L22.4609 40.6133C20.9258 39.8516 19.3906 39.1367 19.0391 39.0312C18.2656 38.7969 17.0352 38.7969 16.4023 39.0195C16.1445 39.1133 15.9219 39.1953 15.9102 39.1953C15.8867 39.1953 15.875 36.8867 15.875 34.0625L15.8867 28.9414L22.4141 23.9492C26 21.1953 28.9766 18.957 29.0117 18.9688C29.0469 18.9688 32.0117 21.2188 35.5977 23.9609ZM30.0312 28.3789C30.1953 28.4961 30.4414 28.7539 30.5703 28.9297C30.8164 29.2461 30.8164 29.3633 30.8164 36.3594V43.4609L29.9609 43.6953L29.0938 43.9297L28.1094 43.4375L27.125 42.9453V36.2422V29.5273L27.3945 29.0586C27.7695 28.4023 28.4375 28.0391 29.1523 28.0977C29.4688 28.1211 29.8555 28.25 30.0312 28.3789ZM6.80469 40.1797C7.37891 40.4609 11.7148 42.6992 16.4375 45.1602C21.1602 47.6094 25.1562 49.625 25.3203 49.625C26 49.625 26.4336 48.6523 25.9766 48.125C25.8711 47.9961 23.4102 46.6602 20.5039 45.1602C17.6094 43.6602 15.207 42.418 15.1836 42.3945C15.1484 42.3711 15.2891 42.1367 15.4766 41.8672C15.957 41.1758 16.8594 40.7188 17.7617 40.7188C18.418 40.7188 18.6523 40.8242 23.6094 43.2969C26.4453 44.7148 28.8711 45.875 28.9883 45.875C29.0938 45.875 32.1289 45.0312 35.7266 44L42.2539 42.125H44.9961H47.75V45.9922V49.8477L47.3164 49.9648C32.2109 53.9023 27.4531 55.1328 27.3242 55.1328C27.1719 55.1328 3.17188 41.8555 2.9375 41.6562C2.62109 41.3633 3.42969 40.2383 4.21484 39.8867C5 39.5234 5.62109 39.5938 6.80469 40.1797ZM55.25 45.875V51.5H52.4375H49.625V45.875V40.25H52.4375H55.25V45.875Z" fill="black"/>
</g>
<defs>
<clipPath id="clip0_1_34">
<rect width="58" height="58" fill="white"/>
</clipPath>
</defs>
</svg>
