<svg width="60" height="60" viewBox="0 0 60 60" fill="none" xmlns="http://www.w3.org/2000/svg">
<g clip-path="url(#clip0_3_36)">
<mask id="mask0_3_36" style="mask-type:luminance" maskUnits="userSpaceOnUse" x="0" y="0" width="60" height="60">
<path d="M60 0H0V60H60V0Z" fill="white"/>
</mask>
<g mask="url(#mask0_3_36)">
<path d="M22.0314 3.38683C14.7072 6.59777 14.3439 6.77355 14.1447 7.16027C13.9455 7.53527 13.9455 8.07433 13.9806 16.1134C14.0158 23.7071 14.0509 24.7618 14.2267 25.547C14.7072 27.6095 15.8322 29.6368 17.3087 31.0782C17.9533 31.7111 25.6642 37.3829 28.6876 39.4571C29.5665 40.0548 30.2462 40.1368 30.9376 39.715C32.2384 38.9181 41.9181 31.8165 42.633 31.1251C44.133 29.6837 45.2814 27.6446 45.7736 25.547C45.9494 24.7618 45.9845 23.7423 46.0197 16.1134C46.0548 8.07433 46.0548 7.53527 45.8556 7.14855C45.6564 6.76183 45.3048 6.59777 37.9689 3.37511C33.7501 1.52355 30.1642 0.0118332 30.0001 0.0118332C29.8361 0.0235519 26.2501 1.53527 22.0314 3.38683ZM36.9728 5.14465L43.8869 8.16808V16.5939C43.8869 26.1095 43.9455 25.465 42.9259 27.4454C42.0236 29.2032 41.508 29.6603 35.4376 34.0314L30.0001 37.9571L26.1681 35.1915C18.1525 29.4142 18.0353 29.3204 17.0744 27.4454C16.0548 25.465 16.1134 26.1095 16.1134 16.5939V8.16808L23.0275 5.14465C26.8361 3.48058 29.965 2.12121 30.0001 2.10949C30.0353 2.10949 33.1759 3.48058 36.9728 5.14465Z" fill="black"/>
<path d="M24.1992 6.80853C21.1055 8.16791 18.457 9.38666 18.3164 9.51556L18.0469 9.76166V17.0273C18.0469 25.1132 18.0352 24.996 18.8438 26.5429C19.0781 26.9882 19.5703 27.6679 19.9219 28.0312C20.2969 28.4179 22.4883 30.0937 25.1367 31.9921C29.0508 34.8163 29.7539 35.2851 30.0586 35.2499C30.5391 35.1913 38.9297 29.1562 39.9609 28.1249C40.418 27.6679 40.8867 27.0351 41.1563 26.5429C41.9649 24.996 41.9531 25.1015 41.9531 17.0273V9.76166L41.6836 9.51556C41.4141 9.25775 30.2695 4.33587 29.9883 4.33587C29.8945 4.34759 27.293 5.44916 24.1992 6.80853ZM35.0742 8.67181L39.9727 10.8163L39.9375 17.6835L39.9024 24.5507L39.5742 25.2421C39.3984 25.6288 39.0703 26.1679 38.8359 26.4492C38.4258 26.9413 30.2813 32.9296 30.0117 32.9296C29.7656 32.9296 21.8672 27.1874 21.3399 26.6249C21.0586 26.3203 20.6602 25.7343 20.4609 25.3124L20.0977 24.5507L20.0625 17.6835L20.0274 10.8281L24.9844 8.64837C27.7149 7.45306 30 6.48041 30.0586 6.50384C30.1289 6.51556 32.3789 7.49994 35.0742 8.67181Z" fill="black"/>
<path d="M35.6264 12.1055C35.4389 12.1993 33.974 14.2852 31.5717 17.8712C29.5092 20.9649 27.7748 23.4962 27.7397 23.4962C27.7045 23.4962 27.0014 22.9923 26.1811 22.3829C25.3608 21.7735 24.5639 21.1993 24.4115 21.1173C23.6029 20.672 22.642 21.6915 23.1342 22.4415C23.3568 22.7813 27.3647 25.8282 27.7397 25.9454C28.4193 26.168 28.4076 26.1798 32.8256 19.5469C35.1342 16.0782 37.0326 13.1602 37.0326 13.0548C37.0326 12.6915 36.6811 12.211 36.3178 12.0821C36.1068 12.0118 35.9428 11.9532 35.9311 11.9532C35.9193 11.9532 35.7904 12.0235 35.6264 12.1055Z" fill="black"/>
<path d="M2.34428 26.3554C0.891152 26.8007 -0.140098 28.3476 0.0474025 29.789C0.152871 30.5507 4.32475 39.7265 5.1099 40.9101C5.4849 41.4843 6.80912 42.9257 9.09428 45.2343L12.5044 48.6913L12.2583 49.1015C12.024 49.4999 12.0122 49.6522 12.0122 54.0233C12.0122 59.0624 12.0005 58.9569 12.856 59.6132L13.2779 59.9413L19.2662 59.9765C25.981 60.0116 25.9576 60.0116 26.5787 59.203L26.8951 58.7929L26.9302 54.0819L26.9654 49.3827L26.6958 48.9843C26.3443 48.4804 25.9107 48.164 25.4185 48.0585L25.0201 47.9765L24.9497 46.1132C24.9146 45.0819 24.8208 44.0038 24.7505 43.7108C24.0122 40.746 22.3833 38.5312 20.1568 37.4882C17.0982 36.0468 15.9263 35.3319 14.2388 33.914C12.856 32.7538 12.2935 32.5194 10.8404 32.5194C9.80912 32.5194 9.58646 32.5546 8.97709 32.8476C8.60209 33.0233 8.27396 33.1522 8.26225 33.1405C8.25053 33.1171 7.80521 32.0741 7.26615 30.8202C6.00053 27.8202 5.84818 27.5272 5.25053 27.0233C4.50053 26.3788 3.2349 26.0858 2.34428 26.3554ZM3.89115 28.4765C4.10209 28.6288 4.5474 29.5429 5.33256 31.371C6.70365 34.5937 7.12553 35.4491 7.82865 36.4452C8.57865 37.4999 13.688 42.621 14.0865 42.7265C14.7662 42.8788 15.4576 42.1757 15.2935 41.5077C15.2466 41.3085 14.1333 40.1015 12.3755 38.3202C10.8052 36.7382 9.45756 35.3319 9.38725 35.1913C9.27006 34.9569 9.2935 34.9101 9.71537 34.6874C10.2779 34.4062 11.1919 34.3827 11.7779 34.6171C12.0005 34.7108 12.5747 35.121 13.0318 35.5077C14.7662 36.9726 16.2193 37.8397 19.4537 39.3515C20.731 39.9491 21.9615 41.5546 22.5826 43.4179C22.8521 44.2265 22.899 44.6015 22.9458 46.2069L22.9927 48.0468H18.9029H14.8247L10.8872 44.0858C8.71928 41.9179 6.78568 39.8671 6.58646 39.5507C6.09428 38.7538 1.99271 29.6952 1.99271 29.4022C1.99271 28.4765 3.17631 27.9022 3.89115 28.4765ZM24.9615 54.0233V58.0077L19.4888 57.9843L14.0044 57.9491L13.9693 53.9882L13.9458 50.039H19.4537H24.9615V54.0233Z" fill="black"/>
<path d="M20.5673 53.1094C19.9697 53.4492 19.8525 54.1992 20.333 54.668C20.579 54.9258 20.7197 54.9609 21.5048 54.9609C22.29 54.9609 22.4306 54.9258 22.6767 54.668C23.1103 54.2461 23.0751 53.6602 22.6064 53.2734C22.3017 53.0156 22.1376 52.9688 21.5283 52.9688C21.1298 52.9688 20.6962 53.0391 20.5673 53.1094Z" fill="black"/>
<path d="M55.5469 26.4961C54.8672 26.8008 54.3047 27.3398 53.9648 28.0078C53.8242 28.3008 53.2617 29.5664 52.7344 30.8203C52.1953 32.0742 51.75 33.1172 51.7266 33.1406C51.7148 33.1641 51.5742 33.1055 51.4219 33.0117C50.4023 32.3672 48.5273 32.2852 47.3438 32.8359C46.9922 33 46.1133 33.6094 45.3867 34.1953C43.8516 35.4375 42.3633 36.3398 40.5117 37.1602C38.4375 38.0742 37.2188 39.1992 36.2227 41.1211C35.3672 42.7969 35.1328 43.7461 35.0508 45.9961L34.9805 47.9766L34.582 48.0586C34.0898 48.1641 33.6562 48.4805 33.3047 48.9844L33.0352 49.3828L33.0703 54.0703L33.1055 58.7695L33.3867 59.168C33.5391 59.3789 33.8789 59.6602 34.1484 59.7773C34.5938 59.9766 35.0273 60 40.5234 60C46.1602 60 46.4297 59.9883 46.8633 59.7656C47.4258 59.4844 47.7773 59.0625 47.9297 58.4531C48.0117 58.1719 48.0469 56.4609 48.0234 53.7539C47.9883 49.6875 47.9766 49.5 47.7422 49.1016L47.4961 48.6914L50.9062 45.2344C53.1914 42.9258 54.5156 41.4844 54.8906 40.9102C55.7344 39.6445 59.8828 30.457 59.9648 29.6953C60.1055 28.4062 59.4023 27.1406 58.2188 26.5547C57.4336 26.168 56.332 26.1328 55.5469 26.4961ZM57.4102 28.4062C57.7383 28.582 58.0078 29.0273 58.0078 29.4141C58.0078 29.6953 53.8828 38.7773 53.4023 39.5508C53.2031 39.8672 51.2695 41.918 49.1133 44.0859L45.1875 48.0469H41.0977H37.0078L37.0547 46.207C37.1016 44.6016 37.1484 44.2266 37.418 43.418C38.0391 41.5547 39.2695 39.9492 40.5469 39.3516C43.793 37.8398 45.1992 36.9961 47.0273 35.4609C47.5195 35.0508 48.1172 34.6406 48.3516 34.5703C48.9023 34.3828 50.0508 34.4766 50.4375 34.7227C50.707 34.8984 50.7305 34.9687 50.6133 35.1914C50.5312 35.332 49.2188 36.7148 47.6836 38.2617C46.1484 39.8086 44.8359 41.2266 44.7773 41.4023C44.4609 42.2227 45.3164 42.9727 46.1133 42.5859C46.6055 42.3633 51.3398 37.5703 52.0898 36.5508C52.793 35.5898 53.2617 34.6641 54.668 31.3711C55.4531 29.5547 55.8984 28.6289 56.1094 28.4766C56.4492 28.1953 56.9531 28.1719 57.4102 28.4062ZM46.0312 53.9883L45.9961 57.9492L40.5234 57.9844L35.0391 58.0078V54.0234V50.0391H40.5469H46.0547L46.0312 53.9883Z" fill="black"/>
<path d="M37.3942 53.2734C36.9255 53.6602 36.8903 54.2461 37.3239 54.668C37.57 54.9258 37.7106 54.9609 38.4958 54.9609C39.2809 54.9609 39.4216 54.9258 39.6677 54.668C39.8669 54.4805 39.9606 54.2578 39.9606 54C39.9489 53.2852 39.4919 52.9688 38.4489 52.9688C37.8747 52.9688 37.6872 53.0156 37.3942 53.2734Z" fill="black"/>
</g>
</g>
<defs>
<clipPath id="clip0_3_36">
<rect width="60" height="60" fill="white"/>
</clipPath>
</defs>
</svg>
