<svg width="60" height="60" viewBox="0 0 60 60" fill="none" xmlns="http://www.w3.org/2000/svg">
<path d="M26.7305 2.03906C26.1797 2.23828 25.4648 2.87109 25.207 3.375C25.0898 3.60937 24.8555 4.3125 24.6797 4.92187C24.2227 6.55078 24.2812 6.48047 23.2383 6.85547C22.7344 7.03125 22.0195 7.32422 21.6562 7.51172C21.2812 7.69922 20.918 7.85156 20.8359 7.85156C20.7422 7.85156 20.0508 7.51172 19.2773 7.08984C17.9297 6.36328 17.6133 6.26953 16.7578 6.3164C15.9492 6.375 15.6328 6.59765 13.5469 8.66015C11.4492 10.7227 11.0625 11.2383 11.0156 12.0117C10.957 12.9375 11.0391 13.2187 11.7773 14.5898C12.1992 15.3633 12.5391 16.0547 12.5391 16.1484C12.5391 16.2305 12.3867 16.5937 12.1992 16.9687C12.0117 17.332 11.7188 18.0469 11.543 18.5508C11.168 19.5937 11.2383 19.5352 9.60938 19.9922C9 20.168 8.30859 20.4023 8.07422 20.5195C7.51172 20.8008 6.86719 21.5625 6.70312 22.1367C6.51562 22.7461 6.51562 27.8789 6.70312 28.4883C6.86719 29.0625 7.51172 29.8242 8.07422 30.1055C8.55469 30.3516 10.9688 31.0547 11.3086 31.0547C11.6016 31.043 11.8711 30.8437 12.0469 30.5039C12.4453 29.7773 12.0117 29.3906 10.2539 28.8867C9.31641 28.6055 8.77734 28.3945 8.64844 28.2305C8.46094 28.0078 8.4375 27.6797 8.4375 25.3125C8.4375 22.9453 8.46094 22.6172 8.64844 22.3945C8.78906 22.2187 9.33984 22.0078 10.5469 21.668C11.4844 21.4102 12.3516 21.1289 12.4922 21.0352C12.6562 20.9297 12.8672 20.4844 13.1133 19.7344C13.3242 19.1016 13.7578 18.0586 14.0742 17.4023C14.3906 16.7578 14.6484 16.1484 14.6484 16.0664C14.6484 15.9844 14.2617 15.2227 13.8047 14.3789C12.832 12.6328 12.7734 12.4805 12.9141 12.0586C13.0547 11.6602 16.5352 8.20312 16.8281 8.1914C17.2969 8.15625 17.4961 8.23828 19.0195 9.09375C19.8867 9.57422 20.6602 9.96094 20.7539 9.96094C20.8359 9.96094 21.4453 9.70312 22.0898 9.38672C22.7461 9.07031 23.7891 8.63672 24.4219 8.42578C25.1719 8.17969 25.6172 7.96875 25.7227 7.80469C25.8047 7.66406 26.0859 6.79687 26.3555 5.85937C26.6836 4.66406 26.9062 4.10156 27.082 3.94922C27.3047 3.77344 27.6328 3.75 30 3.75C32.3672 3.75 32.6953 3.77344 32.918 3.94922C33.0938 4.10156 33.3164 4.66406 33.6445 5.85937C33.9141 6.79687 34.1953 7.66406 34.2773 7.80469C34.3828 7.96875 34.8281 8.17969 35.5781 8.42578C36.2109 8.63672 37.2656 9.07031 37.9219 9.38672C38.5781 9.70312 39.1758 9.96094 39.2578 9.96094C39.3398 9.96094 40.0898 9.57422 40.9336 9.10547C42.6797 8.14453 42.832 8.08594 43.2539 8.22656C43.6523 8.36719 47.1094 11.8477 47.1211 12.1406C47.1562 12.6094 47.0742 12.8086 46.2188 14.332C45.7383 15.1992 45.3516 15.9727 45.3516 16.0664C45.3516 16.1484 45.6094 16.7578 45.9258 17.4023C46.2422 18.0586 46.6758 19.1016 46.8867 19.7344C47.1328 20.4844 47.3438 20.9297 47.5078 21.0352C47.6484 21.1172 48.5156 21.3984 49.4531 21.668C50.6484 21.9961 51.2109 22.2187 51.3633 22.3945C51.5391 22.6172 51.5625 22.9453 51.5625 25.3359C51.5625 28.5586 51.668 28.3594 49.7344 28.8867C48.0469 29.3437 47.5664 29.7773 47.9531 30.5039C48.1289 30.8437 48.3984 31.043 48.6914 31.0547C49.0312 31.0547 51.4453 30.3516 51.9141 30.1172C52.4648 29.8359 52.9102 29.3555 53.1914 28.7109C53.4141 28.2305 53.4375 27.9492 53.4375 25.3125C53.4375 22.6758 53.4141 22.3945 53.1914 21.9141C52.9219 21.3047 52.4766 20.8008 51.9727 20.5312C51.7852 20.4258 50.9883 20.1562 50.2266 19.9336L48.8203 19.5117L48.3984 18.3984C48.1641 17.7891 47.8594 17.0625 47.7188 16.793C47.5781 16.5234 47.4609 16.2305 47.4609 16.1484C47.4609 16.0547 47.8008 15.3633 48.2227 14.5898C48.9375 13.2656 48.9844 13.1367 48.9844 12.4219C48.9844 11.9297 48.9023 11.4961 48.7617 11.1914C48.4453 10.5117 44.4844 6.63281 43.9453 6.46875C42.8555 6.1289 42.293 6.24609 40.7227 7.08984C39.9492 7.51172 39.2578 7.85156 39.1641 7.85156C39.082 7.85156 38.7188 7.69922 38.3438 7.51172C37.9805 7.32422 37.2656 7.03125 36.7617 6.85547C35.7188 6.48047 35.7773 6.55078 35.3203 4.92187C35.1445 4.3125 34.9102 3.62109 34.793 3.38672C34.5117 2.82422 33.75 2.17969 33.1758 2.01562C32.5547 1.8164 27.2695 1.83984 26.7305 2.03906Z" fill="black"/>
<path d="M28.4772 13.1954C25.5944 13.5704 22.5475 15.2227 20.7428 17.4024C17.5436 21.2579 16.9225 26.3907 19.1373 30.7735C19.7115 31.9219 20.0865 32.3438 20.5319 32.3438C21.024 32.3438 21.2819 32.168 21.4342 31.7344C21.5514 31.418 21.528 31.2891 21.2701 30.8321C19.8405 28.2657 19.4186 26.0508 19.8639 23.4961C20.5553 19.5704 23.403 16.4649 27.3873 15.3282C28.6998 14.9532 31.3014 14.9532 32.6139 15.3282C35.1803 16.0665 37.1725 17.4961 38.567 19.6172C40.3131 22.2657 40.7701 25.4063 39.8326 28.3594C39.5865 29.1211 39.3522 29.6485 38.7545 30.7735C38.4733 31.2891 38.4498 31.4063 38.567 31.7344C38.8131 32.461 39.6334 32.5782 40.149 31.9571C40.6647 31.3477 41.4615 29.5665 41.778 28.3008C43.4537 21.7501 39.4459 15.0821 32.8717 13.4649C31.9459 13.2305 29.3912 13.0782 28.4772 13.1954Z" fill="black"/>
<path d="M28.1484 28.3594C26.8242 28.7109 25.7344 29.3438 24.7148 30.3516C21.8203 33.2344 21.7734 37.6875 24.5859 40.8047L24.9844 41.25H24.3633C22.7227 41.25 20.9531 41.8242 19.582 42.7734L18.75 43.3594L17.9297 43.2305L17.1094 43.0898L17.5078 42.5508C19.3359 40.0312 19.1133 36.7852 16.9453 34.6172C14.543 32.2148 10.7695 32.2148 8.36719 34.6172C6.19922 36.7852 5.97656 40.0312 7.80469 42.5625L8.20312 43.1016L7.59375 43.1836C4.78125 43.5703 2.51953 45.7383 1.98047 48.5625C1.92188 48.8789 1.875 51.0234 1.875 53.3438V57.5508L2.16797 57.832C2.50781 58.1836 3.03516 58.207 3.41016 57.9023L3.69141 57.6797L3.75 53.1211L3.80859 48.5625L4.24219 47.6719C4.76953 46.6055 5.44922 45.9492 6.53906 45.4336L7.32422 45.0586L12.3398 45.0234L17.3555 44.9883L17.0039 45.6094C16.8164 45.9492 16.5117 46.6523 16.3242 47.168L15.9961 48.1055L15.9609 52.8164L15.9258 57.5391L16.2188 57.832C16.6055 58.2188 17.1445 58.2188 17.5195 57.832L17.8125 57.5508V53.3438C17.8125 50.8711 17.8594 48.8555 17.9414 48.4453C18.3867 45.9375 20.6836 43.6641 23.2031 43.2422C23.7188 43.1602 26.1094 43.125 30.4688 43.1484L36.9727 43.1836L37.7461 43.4883C38.8711 43.9219 39.4805 44.3086 40.2422 45.0703C41.0039 45.832 41.3906 46.4531 41.8242 47.5664C42.1172 48.3398 42.1172 48.3516 42.1875 53.0039L42.2461 57.6797L42.5273 57.9023C42.9141 58.2188 43.4297 58.1836 43.7812 57.832L44.0742 57.5391L44.0391 52.875C43.9805 47.6836 43.9805 47.6016 43.1367 45.9023L42.6797 44.9883L47.6836 45.0234L52.6758 45.0586L53.4609 45.4336C54.5508 45.9492 55.2305 46.6055 55.7578 47.6719L56.1914 48.5625L56.25 53.1211L56.3086 57.6797L56.5898 57.9023C56.9766 58.2188 57.4922 58.1836 57.8438 57.832L58.1367 57.5391L58.1016 52.9336C58.0547 48.4922 58.043 48.3164 57.7852 47.6133C56.9062 45.2227 54.8438 43.5117 52.4062 43.1836L51.7969 43.1016L52.1953 42.5625C54.0234 40.0312 53.8008 36.7852 51.6328 34.6172C49.2305 32.2148 45.457 32.2148 43.0547 34.6172C40.8867 36.7852 40.6641 40.0312 42.4922 42.5508L42.8906 43.0898L42.0703 43.2305L41.25 43.3594L40.418 42.7734C39.0469 41.8242 37.2773 41.25 35.6367 41.25H35.0156L35.4141 40.8047C38.2266 37.6875 38.1797 33.2344 35.2852 30.3516C33.3633 28.4414 30.6797 27.7031 28.1484 28.3594ZM31.3477 30.1758C34.3477 30.9609 36.2109 34.0312 35.4492 36.9727C34.7227 39.75 32.0391 41.5781 29.25 41.168C26.9766 40.8398 25.1367 39.1992 24.5508 36.9727C23.5078 32.9531 27.3281 29.1328 31.3477 30.1758ZM14.3672 35.0859C15.2695 35.4961 16.0664 36.293 16.4883 37.1953C16.7695 37.8047 16.8164 38.0625 16.8164 38.9062C16.8164 39.75 16.7695 40.0078 16.4883 40.6172C16.0664 41.5195 15.2695 42.3164 14.3555 42.7383C13.7578 43.0195 13.5 43.0664 12.6562 43.0664C11.8125 43.0664 11.5547 43.0195 10.957 42.7383C10.043 42.3164 9.24609 41.5195 8.82422 40.6172C8.54297 40.0078 8.49609 39.75 8.49609 38.9062C8.49609 38.0625 8.54297 37.8047 8.82422 37.207C9.83203 35.0625 12.2578 34.125 14.3672 35.0859ZM49.0547 35.0859C49.957 35.4961 50.7539 36.293 51.1758 37.1953C51.457 37.8047 51.5039 38.0625 51.5039 38.9062C51.5039 39.75 51.457 40.0078 51.1758 40.6172C50.7539 41.5195 49.957 42.3164 49.043 42.7383C48.4453 43.0195 48.1875 43.0664 47.3438 43.0664C46.5 43.0664 46.2422 43.0195 45.6445 42.7383C44.7305 42.3164 43.9336 41.5195 43.5117 40.6172C43.2305 40.0078 43.1836 39.75 43.1836 38.9062C43.1836 38.0625 43.2305 37.8047 43.5117 37.207C44.5195 35.0625 46.9453 34.125 49.0547 35.0859Z" fill="black"/>
<path d="M6.85547 50.918L6.5625 51.1992V54.375V57.5508L6.85547 57.832C7.23047 58.2188 7.76953 58.2188 8.14453 57.832L8.4375 57.5508V54.375V51.1992L8.14453 50.918C7.96875 50.7305 7.72266 50.625 7.5 50.625C7.27734 50.625 7.03125 50.7305 6.85547 50.918Z" fill="black"/>
<path d="M20.918 50.918L20.625 51.1992V54.375V57.5508L20.918 57.832C21.0938 58.0195 21.3398 58.125 21.5625 58.125C21.7852 58.125 22.0312 58.0195 22.207 57.832L22.5 57.5508V54.375V51.1992L22.207 50.918C22.0312 50.7305 21.7852 50.625 21.5625 50.625C21.3398 50.625 21.0938 50.7305 20.918 50.918Z" fill="black"/>
<path d="M37.793 50.918L37.5 51.1992V54.375V57.5508L37.793 57.832C38.168 58.2188 38.707 58.2188 39.082 57.832L39.375 57.5508V54.375V51.1992L39.082 50.918C38.9062 50.7305 38.6602 50.625 38.4375 50.625C38.2148 50.625 37.9688 50.7305 37.793 50.918Z" fill="black"/>
<path d="M51.8555 50.918L51.5625 51.1992V54.375V57.5508L51.8555 57.832C52.2305 58.2188 52.7695 58.2188 53.1445 57.832L53.4375 57.5508V54.375V51.1992L53.1445 50.918C52.9688 50.7305 52.7227 50.625 52.5 50.625C52.2773 50.625 52.0312 50.7305 51.8555 50.918Z" fill="black"/>
</svg>
