<svg width="100" height="100" viewBox="0 0 100 100" fill="none" xmlns="http://www.w3.org/2000/svg">
<path d="M47.7529 6.36703C47.4404 6.4061 46.3271 6.54282 45.3115 6.66C36.7764 7.61703 28.2021 11.1327 21.9717 16.2108C13.71 22.9686 8.3584 32.8709 6.81543 44.3358C6.4834 46.7186 6.4834 53.2811 6.81543 55.6639C7.96777 64.1209 11.249 71.9725 16.21 78.0272C22.9873 86.328 32.7139 91.5428 44.6279 93.2811C47.8311 93.7498 53.4365 93.7694 56.3467 93.3006C65.7412 91.7772 73.8271 87.7733 80.4287 81.367C87.2451 74.7655 91.4639 66.6795 93.1826 56.8944C93.7881 53.5545 93.8271 46.953 93.2998 43.6522C92.5576 39.1405 91.3271 35.1366 89.5498 31.3475C88.6318 29.3553 88.1436 28.8475 87.2646 28.8475C86.6006 28.8475 85.7412 29.6288 85.7412 30.2538C85.7412 30.4491 86.1904 31.5428 86.7373 32.6952C89.6084 38.8084 90.9951 45.9764 90.4678 52.1092C89.5303 63.0858 85.6436 71.992 78.8271 78.828C72.8701 84.7655 65.1553 88.5741 56.249 89.9608C53.5342 90.3905 46.835 90.4491 44.4326 90.078C39.4912 89.2967 35.7607 88.1834 31.9912 86.367C19.4326 80.3514 11.8154 69.4334 9.74512 54.492C9.37402 51.8163 9.41309 45.8788 9.82324 43.4569C11.7568 32.1678 17.9678 22.7147 27.6357 16.3084C32.5381 13.0663 37.8896 10.9373 43.8467 9.86313C46.5615 9.35532 52.499 9.25766 55.3311 9.64828C59.6279 10.2538 64.0029 11.5819 67.6162 13.3983C69.4912 14.3358 69.8232 14.4139 70.4678 13.9452C71.1123 13.5155 71.3076 12.8319 71.0537 12.1092C70.8779 11.6014 70.5459 11.3475 68.8662 10.5663C64.9795 8.69125 60.7803 7.40219 56.542 6.73813C54.6279 6.44516 48.9248 6.19125 47.7529 6.36703Z" fill="black"/>
<path d="M80.3704 8.78874C80.1556 8.86687 77.265 11.6794 73.9447 14.9997L67.9095 21.0544L68.0462 22.3044C68.1048 22.9684 68.2611 24.8044 68.3783 26.3473L68.5931 29.1598L58.6322 39.1403C53.1439 44.6286 48.6126 49.3161 48.5345 49.57C48.222 50.6247 49.3743 51.777 50.429 51.4645C50.6829 51.3864 55.3704 46.8551 60.8587 41.3669L70.8392 31.4059L73.6517 31.6208C75.1947 31.738 77.0306 31.8942 77.6947 31.9528L78.9447 32.0895L84.9993 26.0544C88.3197 22.7341 91.1322 19.8239 91.2298 19.57C91.347 19.2575 91.3079 18.9059 91.1322 18.4567C90.7806 17.6169 90.3118 17.4997 86.2298 17.2067C84.5306 17.07 83.0853 16.9528 83.0658 16.9137C83.0462 16.8942 82.89 15.2926 82.7337 13.3395C82.597 11.4059 82.3626 9.64812 82.2454 9.43327C82.0892 9.12077 80.9564 8.49577 80.7806 8.61296C80.7611 8.61296 80.5853 8.69109 80.3704 8.78874ZM79.8626 16.6989C80.1361 19.8825 80.1361 19.863 83.5736 20.1559L86.1712 20.3708L81.9525 24.5895L77.7337 28.8083L74.7845 28.5934C73.1829 28.4567 71.7962 28.32 71.7376 28.2419C71.679 28.1833 71.5228 26.8356 71.3861 25.2536L71.1712 22.363L75.3704 18.1051C77.6947 15.7809 79.6087 13.9645 79.6283 14.1012C79.6478 14.238 79.765 15.4098 79.8626 16.6989Z" fill="black"/>
<path d="M47.8516 20.4296C42.6367 21.0546 38.3984 22.3827 34.668 24.5507C30.0195 27.246 26.1133 31.4062 23.6523 36.3085C22.5977 38.3788 21.4062 41.9335 20.957 44.3359C20.4883 46.9335 20.4883 53.0663 20.957 55.664C22.9883 66.4843 30.4492 74.9609 40.7422 78.1054C48.5742 80.5077 55.6641 80.0781 62.6758 76.8163C65.7227 75.4101 68.1641 73.6523 70.918 70.9179C75.4297 66.3867 78.0664 61.4062 79.2188 55.1757C79.707 52.539 79.7266 47.3242 79.2383 44.8242C78.5352 41.2304 76.6797 36.289 75.6836 35.3515C75 34.707 74.082 34.746 73.4961 35.4296C72.8906 36.1523 72.9297 36.4843 73.8477 38.3007C77.1875 44.9413 77.4414 52.6562 74.5508 59.746C71.1133 68.2031 64.0039 74.2382 55.2734 76.1132C52.9297 76.6015 47.4805 76.6015 45.0195 76.0937C36.7578 74.3749 29.9219 69.1992 26.2109 61.7968C25.3906 60.1562 24.3359 57.0702 23.9062 54.9804C23.3984 52.5195 23.3984 47.0702 23.8867 44.7265C25 39.5116 27.2266 35.4687 31.1523 31.5234C35.0195 27.6366 39.6484 25.1171 45.1172 23.9257C47.3828 23.4374 51.8359 23.3398 54.1992 23.7109C56.543 24.1015 59.5508 25.0781 61.6992 26.1523C63.5156 27.0702 63.8477 27.1093 64.5703 26.5038C65.2148 25.9374 65.293 25.0195 64.7266 24.3945C63.8672 23.4179 59.0625 21.5624 55.6836 20.8788C53.8672 20.5273 49.2969 20.2538 47.8516 20.4296Z" fill="black"/>
<path d="M47.2046 34.6875C41.0913 35.8007 36.5406 40 34.939 45.996C34.3726 48.1445 34.3726 51.8164 34.9195 53.9257C36.5601 60.0781 41.0718 64.2382 47.3609 65.332C49.4898 65.7031 50.9156 65.7031 52.771 65.3515C59.5484 64.0429 64.4702 58.8867 65.4663 52.0703C65.7593 49.9609 65.4468 46.4648 64.8413 45.2148C64.1382 43.7695 62.8101 43.5937 61.9898 44.8242C61.6773 45.2929 61.6773 45.4101 62.0288 46.6406C62.5952 48.6328 62.5171 51.7578 61.8531 53.8085C60.4859 57.9492 57.3609 60.9375 53.2202 62.0117C51.6577 62.4218 48.3179 62.4218 46.7749 62.0117C44.5288 61.4062 42.7906 60.4101 41.189 58.8085C36.3452 53.9453 36.3062 46.1132 41.1109 41.3085C44.3335 38.0859 48.5327 36.8554 52.8296 37.871C54.8413 38.3593 55.4663 38.2421 55.857 37.2851C56.0523 36.8359 56.0523 36.582 55.8374 36.1132C55.5054 35.3125 54.4702 34.8437 52.3413 34.5898C50.2515 34.3164 49.0992 34.3359 47.2046 34.6875Z" fill="black"/>
</svg>
