<svg width="80" height="80" viewBox="0 0 80 80" fill="none" xmlns="http://www.w3.org/2000/svg">
<g clip-path="url(#clip0_10_68)">
<mask id="mask0_10_68" style="mask-type:luminance" maskUnits="userSpaceOnUse" x="1" y="16" width="58" height="48">
<path d="M57.7674 17.254C57.2488 17.4093 56.7102 17.4877 56.1689 17.4866C45.9102 17.9281 41.637 30.1215 37.3167 37.9115C32.0302 47.5385 27.8827 62.113 15.4167 63.8634C11.1867 64.0329 6.94107 63.9028 1.59961 63.9028C4.34889 62.2195 8.22538 58.4191 13.4294 51.3309C19.4267 43.3281 23.8609 34.0717 28.4208 25.1976C31.5629 19.4183 35.9696 16.4222 43.0391 16.0476C45.8513 16.1501 46.7782 15.7047 57.7871 16.3985C57.7871 16.3985 58.7533 16.7494 57.7871 17.254" fill="#233E90"/>
</mask>
<g mask="url(#mask0_10_68)">
<path d="M56.1689 17.4866L56.1735 15.2866L56.1239 15.2865L56.0743 15.2886L56.1689 17.4866ZM37.3167 37.9115L35.3928 36.8444L35.3883 36.8525L37.3167 37.9115ZM15.4167 63.8634L15.5048 66.0616L15.6142 66.0572L15.7226 66.042L15.4167 63.8634ZM1.59966 63.9028L0.450861 62.0266L-6.20654 66.1028H1.59966V63.9028ZM13.4294 51.3309L11.6689 50.0116L11.6624 50.0202L11.656 50.029L13.4294 51.3309ZM28.4208 25.1976L26.488 24.1468L26.4758 24.1694L26.464 24.1922L28.4208 25.1976ZM43.0391 16.0476L43.1193 13.8491L43.021 13.8455L42.9228 13.8507L43.0391 16.0476ZM57.7871 16.3985L58.538 14.3306L58.2409 14.2227L57.9255 14.2029L57.7871 16.3985ZM57.1362 15.1465C56.8237 15.2401 56.4994 15.2873 56.1735 15.2866L56.1643 19.6866C56.921 19.6882 57.6739 19.5786 58.3988 19.3615L57.1362 15.1465ZM56.0743 15.2886C49.9516 15.5521 45.778 19.3594 42.7212 23.671C41.1873 25.8346 39.8723 28.2095 38.6908 30.4803C37.4779 32.8112 36.4578 34.9242 35.3928 36.8444L39.2406 38.9785C40.3358 37.0038 41.47 34.6713 42.594 32.5113C43.7493 30.2911 44.9539 28.1295 46.3106 26.2158C49.0352 22.3728 52.1275 19.8626 56.2635 19.6845L56.0743 15.2886ZM35.3883 36.8525C34.03 39.3261 32.7372 42.132 31.4366 44.8249C30.1152 47.5609 28.7596 50.2381 27.2083 52.6517C24.1042 57.4813 20.4236 60.9388 15.1108 61.6848L15.7226 66.042C22.8758 65.0376 27.502 60.3327 30.9097 55.0307C32.6144 52.3784 34.0661 49.4975 35.3987 46.7385C36.7521 43.9364 37.9601 41.3104 39.2451 38.9704L35.3883 36.8525ZM15.3286 61.6652C11.1555 61.8324 7.03117 61.7028 1.59966 61.7028V66.1028C6.85108 66.1028 11.218 66.2334 15.5048 66.0616L15.3286 61.6652ZM2.74845 65.7791C5.87548 63.8644 9.9584 59.7761 15.2028 52.6329L11.656 50.029C6.49246 57.0621 2.8224 60.5745 0.450861 62.0266L2.74845 65.7791ZM15.1899 52.6503C21.3279 44.4597 25.8635 34.9881 30.3776 26.2031L26.464 24.1922C21.8584 33.1553 17.5256 42.1965 11.6689 50.0116L15.1899 52.6503ZM30.3536 26.2485C31.7924 23.6021 33.4479 21.7226 35.441 20.4501C37.4326 19.1787 39.913 18.4163 43.1555 18.2446L42.9228 13.8507C39.0957 14.0535 35.838 14.9765 33.0733 16.7415C30.3101 18.5056 28.1913 21.0139 26.488 24.1468L30.3536 26.2485ZM42.959 18.2462C46.2583 18.3664 46.4794 17.8902 57.6487 18.5942L57.9255 14.2029C47.0769 13.5191 45.4443 13.9339 43.1193 13.8491L42.959 18.2462ZM57.7871 16.3985C57.0361 18.4664 57.0354 18.4661 57.0346 18.4658C57.0343 18.4657 57.0335 18.4654 57.033 18.4652C57.032 18.4649 57.031 18.4645 57.0299 18.4641C57.0279 18.4634 57.0259 18.4626 57.0239 18.4619C57.02 18.4605 57.0162 18.459 57.0126 18.4577C57.0052 18.4549 56.9983 18.4522 56.9918 18.4497C56.9789 18.4446 56.9669 18.4396 56.9555 18.4347C56.9344 18.4256 56.9082 18.4135 56.8773 18.3968C56.8485 18.3813 56.7959 18.3512 56.7302 18.3024C56.6691 18.257 56.5537 18.164 56.4323 18.0123C56.3103 17.86 56.1377 17.5923 56.0581 17.2111C55.9721 16.7992 56.0228 16.3841 56.1781 16.028C56.3202 15.7022 56.5132 15.5065 56.6144 15.4179C56.7172 15.3277 56.7854 15.2951 56.7686 15.3039L58.8055 19.204C59.1752 19.011 59.858 18.5969 60.2113 17.7868C60.6779 16.7168 60.2701 15.7656 59.8665 15.2617C59.5309 14.8427 59.1333 14.6145 58.9687 14.5256C58.8623 14.4681 58.7681 14.4247 58.6979 14.3944C58.662 14.3789 58.6302 14.366 58.6036 14.3555C58.5902 14.3502 58.578 14.3455 58.5671 14.3414C58.5616 14.3393 58.5566 14.3374 58.5517 14.3356C58.5493 14.3347 58.5468 14.3339 58.5446 14.333C58.5434 14.3326 58.5423 14.3322 58.5412 14.3318C58.5407 14.3316 58.5399 14.3313 58.5396 14.3312C58.5388 14.3309 58.538 14.3306 57.7871 16.3985Z" fill="#233E90"/>
</g>
<path d="M55.4429 51.036C53.0922 46.2403 50.4865 40.9243 44.6978 38.4278C46.4164 38.1855 49.2904 37.8641 52.3166 37.9258C54.5228 37.9708 56.7532 38.219 58.6492 38.8203C60.5511 39.4234 62.0024 40.344 62.8275 41.6522L62.8506 41.6889L62.8766 41.7237C64.6163 44.0529 65.9476 46.6932 67.3364 49.4474C67.9011 50.5672 68.4752 51.706 69.0902 52.8502C71.0803 56.553 73.4508 60.1913 77.2136 62.7619C76.622 62.7773 76.0346 62.7959 75.4507 62.8144C72.9968 62.8921 70.6046 62.9679 68.2134 62.7983C64.7034 62.5079 62.3285 61.156 60.4842 59.2347C58.5959 57.2676 57.2409 54.6841 55.8451 51.8546C55.7115 51.5839 55.5776 51.3108 55.4429 51.036Z" stroke="#233E90" stroke-width="2.2"/>
<path d="M55.8275 29.416C55.8275 30.4086 55.5342 31.3787 54.9852 32.2034C54.4362 33.0281 53.6564 33.6703 52.7447 34.0493C51.8331 34.4283 50.8303 34.5274 49.8628 34.3342C48.8953 34.1411 48.0061 33.6642 47.3077 32.9632C46.6093 32.2622 46.1332 31.3685 45.9403 30.395C45.7474 29.4215 45.8464 28.4125 46.2248 27.4957C46.6031 26.5789 47.2434 25.796 48.0643 25.2455C48.885 24.6951 49.8495 24.4015 50.8359 24.4015C52.1584 24.4015 53.4276 24.9288 54.364 25.8688C55.3006 26.8088 55.8275 28.0847 55.8275 29.416Z" stroke="#03B5E1" stroke-width="2.2"/>
</g>
<defs>
<clipPath id="clip0_10_68">
<rect width="80" height="80" fill="white"/>
</clipPath>
</defs>
</svg>
