<svg width="84" height="86" viewBox="0 0 84 86" fill="none" xmlns="http://www.w3.org/2000/svg">
<g filter="url(#filter0_d_9_4)">
<path d="M35.8281 2.59373C24.75 3.78123 15.875 11.9062 13.6875 22.8594C13.1875 25.375 13.1875 29.625 13.6875 32.1406C15.1094 39.2812 19.2813 45.2187 25.5 48.9844C27.8281 50.3906 30.7344 51.4844 33.6094 52.0625C36.1094 52.5625 40.5469 52.5625 42.9375 52.0469C46.4844 51.2969 49.4375 50.0781 52.2344 48.2187L53.5313 47.3437L54.9063 48C56.9063 48.9531 57.2188 48.9219 59.8281 47.625C68.2656 43.3906 73.3906 35.625 74.3438 25.6875C74.5781 23.1875 74.5469 22.1719 74.2188 21.7812C74.0781 21.5937 70.1563 19.1094 65.5156 16.2656C59.0469 12.2969 56.9375 10.9219 56.4844 10.3906C55.7031 9.46873 53.2969 7.46873 51.8438 6.5156C49.3438 4.87498 46.1406 3.59373 43.0156 2.96873C41.4844 2.65623 37.2656 2.43748 35.8281 2.59373ZM42.8594 5.48435C46.7188 6.2656 50.7031 8.34373 53.6094 11.0937C54.3125 11.7656 54.8594 12.3437 54.8125 12.375C54.625 12.5312 40.9063 20.9375 40.8281 20.9375C40.7813 20.9375 40.75 19.7812 40.75 18.3594C40.75 15.0469 40.9063 15.2344 37.7031 14.625C36.4219 14.375 35.2969 14.125 35.2188 14.0469C35.1563 13.9844 35.9844 11.9219 37.0938 9.4531L39.0781 4.96873L40.1875 5.0781C40.7969 5.1406 42 5.3281 42.8594 5.48435ZM36.1719 5.34373C36.125 5.4531 35.1719 7.60935 34.0469 10.1406C32.9219 12.6562 32 14.8906 32 15.1094C32 15.9062 32.5156 16.1406 35.4844 16.7187L38.25 17.25V20.1094C38.25 22.9531 38.25 22.9844 38.6406 23.3594C38.8438 23.5781 39.125 23.75 39.25 23.75C39.4219 23.75 39.5 24.0469 39.5781 24.9531C39.7344 26.8437 40.2656 29.8594 40.6875 31.3437C42.3125 36.9375 45.6875 41.9062 50.0781 45.1094C50.625 45.5156 51.0625 45.875 51.0625 45.9375C51.0625 46.0469 49.2188 47.1719 48.2969 47.6406C47.1875 48.1875 45.3438 48.8906 44.0781 49.2187C41.8281 49.8125 38.0938 50.2187 38.0938 49.8594C38.0938 49.2187 36.9688 39.6875 36.8594 39.4531C36.7813 39.2656 35.4063 38.3437 33.6563 37.2969C30.7813 35.5625 30.5938 35.4219 30.4531 34.875C30.3594 34.5625 30.0938 33.4844 29.8438 32.5C29.4219 30.7656 29.3281 30.5937 27.9688 28.5781C27.1875 27.4062 26.4375 26.4062 26.2969 26.3437C25.7969 26.1562 25.2656 26.25 24.9219 26.6094C24.5938 26.9219 24.4844 27.4844 23.8906 31.7187L23.2031 36.4844L24.3125 38.6875L25.4063 40.8906L23.8281 42.0781L22.2344 43.2812L21.5781 42.5625C16.25 36.8125 14.3906 28.1406 16.8594 20.5937C19.1875 13.4531 24.9688 7.87498 32.1094 5.87498C34.5469 5.18748 36.3281 4.9531 36.1719 5.34373ZM64.5938 18.625L72.0313 23.2031L71.9219 24.6875C71.5781 29.5625 70.2188 33.8125 67.8438 37.375C66.5 39.4062 63.5938 42.3437 61.5938 43.7187C60.0625 44.75 57.4531 46.0937 56.9688 46.0937C56.5469 46.0937 53.9844 44.7812 52.4688 43.7656C50.625 42.5625 47.5 39.4062 46.2344 37.5156C43.8438 33.9219 42.5781 30.1406 42.125 25.3281C41.9688 23.5469 41.9688 23.2344 42.1719 23.1094C42.2969 23.0469 45.625 20.9844 49.5781 18.5312C53.5313 16.0781 56.8594 14.0781 56.9531 14.0781C57.0625 14.0625 60.5 16.125 64.5938 18.625ZM27.6875 34.1875C28.0156 35.5312 28.3438 36.75 28.4219 36.8906C28.4844 37.0156 29.9063 37.9531 31.5625 38.9375L34.5938 40.75L35.0313 44.875C35.2656 47.125 35.5156 49.1875 35.5625 49.4375L35.6406 49.875L34.9531 49.7656C32.2344 49.3437 29.25 48.2812 27 46.9375C25.5313 46.0781 24.2031 45.1562 24.1875 45C24.1875 44.9531 25.0625 44.2656 26.125 43.4687C27.1875 42.6719 28.1094 41.9062 28.1563 41.7812C28.3594 41.2656 28.2188 40.8594 27.0156 38.4687L25.7969 36.0156L26.1563 33.5937C26.3438 32.2656 26.5156 31.1406 26.5313 31.0937C26.5313 31.0469 26.6563 31.1719 26.8125 31.375C26.9688 31.5781 27.3594 32.8437 27.6875 34.1875Z" fill="#233E90"/>
<path d="M50.687 20.7656C47.5151 22.7344 44.8589 24.4531 44.7651 24.6094C44.437 25.2188 45.0776 28.9375 45.937 31.3906C47.5776 36.0313 50.7026 39.8281 55.0464 42.4375C55.8433 42.9063 56.6558 43.2812 56.8901 43.2812C57.3901 43.2812 58.5776 42.7031 59.8901 41.8281C63.4995 39.4063 66.2495 36 67.7964 32.0625C68.5151 30.2031 69.1401 27.6563 69.2808 25.9219C69.3745 24.875 69.3433 24.6875 69.0933 24.4375C68.9214 24.2656 66.2495 22.5781 63.1401 20.6563C58.6558 17.9063 57.3745 17.1875 56.9683 17.2031C56.5776 17.2031 55.062 18.0625 50.687 20.7656ZM61.8901 22.8438C64.5776 24.4844 66.7808 25.8438 66.7964 25.8438C66.9214 25.9219 66.2495 28.8281 65.8276 30.1094C64.937 32.7656 63.7183 34.8594 61.9058 36.8594C60.9058 37.9531 58.7026 39.7188 57.5933 40.2969L56.8901 40.6875L55.5464 39.7969C51.9683 37.4063 49.4058 34.0156 48.1089 29.9531C47.5151 28.1094 47.1401 26.0781 47.3433 25.8594C47.4526 25.7188 56.8276 19.8906 56.9683 19.8594C56.9995 19.8438 59.2183 21.1875 61.8901 22.8438Z" fill="#03B5E1"/>
<path d="M58.6094 29.0937L55.7656 31.9375L54.75 30.9687C53.9531 30.2031 53.6406 30 53.25 30C52.5938 30 52 30.6094 52 31.2812C52 31.7031 52.2344 32.0156 53.6094 33.3906C55.9062 35.6875 55.4688 35.8281 59.7656 31.5156C62.8906 28.4062 63.25 27.9844 63.25 27.5312C63.25 26.8437 62.6562 26.25 61.9844 26.25C61.5312 26.25 61.1406 26.5781 58.6094 29.0937Z" fill="#03B5E1"/>
<path d="M72 51.9688C71.6094 52.0938 69.3594 53.2031 67 54.4375L62.7031 56.6875L62.2969 56.0312C61.6875 55.0625 60.3906 53.9688 59.375 53.5781C58.2812 53.1719 56.6406 53.0312 55.6406 53.2656C55.2344 53.3594 51.9688 54.8906 48.3906 56.6719L41.875 59.8906L33.2344 57.4375L24.5781 54.9844L20.7969 55H17V54.1406C17 53.4219 16.9375 53.2031 16.6094 52.8906L16.2344 52.5H10.75H5.26562L4.89062 52.8906L4.5 53.2656V62.5V71.7344L4.89062 72.1094L5.26562 72.5H10.7188C17.0156 72.5 16.8438 72.5312 17 71.1406L17.0781 70.375L30.6719 73.9375C38.1562 75.8906 44.3906 77.4844 44.5469 77.5C44.9219 77.5 78.875 58.6562 79.2344 58.25C79.5938 57.8281 79.5781 56.9844 79.1875 55.7656C78.25 52.75 74.9688 51.0156 72 51.9688ZM75.0469 54.5156C76.0938 54.9844 77.1719 56.4844 76.75 56.875C76.4688 57.125 44.4531 74.8438 44.2656 74.8438C44.1562 74.8438 38.0156 73.2656 30.6094 71.3281C23.1875 69.3906 17.1094 67.8125 17.0625 67.8125C17.0312 67.8125 17 65.4844 17 62.6562V57.5H20.6719H24.3438L33.0938 60C37.9062 61.375 41.9375 62.5 42.0781 62.5C42.2031 62.5 45.4062 60.9531 49.1875 59.0625C55.7969 55.7656 56.1094 55.625 56.9844 55.625C58.1875 55.625 59.3906 56.2344 60.0312 57.1562C60.2812 57.5156 60.4688 57.8281 60.4219 57.8594C60.3906 57.8906 57.2031 59.5469 53.3281 61.5469C49.4688 63.5469 46.1719 65.3281 46.0312 65.5C45.4062 66.2031 46 67.5 46.9219 67.5C47.1562 67.5 52.375 64.875 58.9219 61.4688C65.2969 58.1406 71.0781 55.1562 71.75 54.8281C73.1719 54.1406 74.0312 54.0469 75.0469 54.5156ZM14.5 62.5V70H10.75H7V62.5V55H10.75H14.5V62.5Z" fill="#233E90"/>
</g>
<defs>
<filter id="filter0_d_9_4" x="-2" y="0" width="88" height="88" filterUnits="userSpaceOnUse" color-interpolation-filters="sRGB">
<feFlood flood-opacity="0" result="BackgroundImageFix"/>
<feColorMatrix in="SourceAlpha" type="matrix" values="0 0 0 0 0 0 0 0 0 0 0 0 0 0 0 0 0 0 127 0" result="hardAlpha"/>
<feOffset dy="4"/>
<feGaussianBlur stdDeviation="2"/>
<feComposite in2="hardAlpha" operator="out"/>
<feColorMatrix type="matrix" values="0 0 0 0 0 0 0 0 0 0 0 0 0 0 0 0 0 0 0.25 0"/>
<feBlend mode="normal" in2="BackgroundImageFix" result="effect1_dropShadow_9_4"/>
<feBlend mode="normal" in="SourceGraphic" in2="effect1_dropShadow_9_4" result="shape"/>
</filter>
</defs>
</svg>
