<svg width="80" height="80" viewBox="0 0 80 80" fill="none" xmlns="http://www.w3.org/2000/svg">
<g clip-path="url(#clip0_9_11)">
<path d="M3.46875 0.28125C1.9375 0.828125 0.65625 2.1875 0.21875 3.71875C-0.5 6.20312 0.859375 8.9375 3.28125 9.85938C4.375 10.2812 6.03125 10.2656 7.0625 9.8125L7.84375 9.48438L10.75 12.3906L13.6562 15.2969L13.3594 15.6875C13.1875 15.8906 12.5625 16.6562 11.9844 17.3594C8.35938 21.7656 5.78125 27.2969 4.625 33.1562L4.28125 34.8594L3.39062 35.2344C1.76562 35.8906 0.84375 36.8125 0.3125 38.3438C-0.078125 39.4531 -0.078125 40.5469 0.3125 41.6562C0.84375 43.1875 1.76562 44.1094 3.375 44.7656L4.26562 45.125L4.625 46.8594C5.8125 52.8125 8.45312 58.4219 12.0781 62.7656C12.6094 63.4062 13.1875 64.0938 13.3594 64.3125L13.6562 64.7031L10.75 67.6094L7.84375 70.5156L7.0625 70.1875C6.5 69.9375 5.95312 69.8438 5.17188 69.8438C3.125 69.8438 1.5625 70.7656 0.625 72.5312C0.140625 73.4219 0.09375 73.6406 0.078125 74.8438C0.078125 75.875 0.15625 76.3281 0.421875 76.9062C0.890625 77.9375 1.92188 78.9844 2.95312 79.4844C3.6875 79.8594 4.03125 79.9219 5.07812 79.9219C6.1875 79.9219 6.46875 79.8594 7.375 79.4062C9.20312 78.5156 10.1562 76.9375 10.1562 74.8281C10.1562 74.0469 10.0625 73.5 9.8125 72.9375L9.48438 72.1562L12.3906 69.25L15.2969 66.3438L15.6875 66.6406C15.8906 66.8125 16.6406 67.4375 17.3594 68.0156C21.8594 71.6875 27.3125 74.2344 33.1562 75.375L34.8594 75.7188L35.2344 76.6094C35.8906 78.2344 36.8125 79.1562 38.3438 79.6875C39.4531 80.0781 40.5469 80.0781 41.6562 79.6875C43.1875 79.1562 44.1094 78.2344 44.7656 76.6094L45.1406 75.7188L46.8438 75.375C52.6719 74.2344 58.2656 71.625 62.6406 68.0312C63.3438 67.4375 64.1094 66.8125 64.3125 66.6406L64.7031 66.3438L67.6094 69.25L70.5156 72.1562L70.1875 72.9375C69.9375 73.5 69.8438 74.0469 69.8438 74.8281C69.8438 76.9375 70.7969 78.5156 72.625 79.4062C73.5312 79.8594 73.8125 79.9219 74.9219 79.9219C75.9688 79.9219 76.3125 79.8594 77.0469 79.4844C78.0781 78.9844 79.1094 77.9375 79.5781 76.9062C79.8438 76.3281 79.9219 75.875 79.9219 74.8438C79.9062 73.6406 79.8594 73.4219 79.375 72.5312C78.4219 70.7344 76.9062 69.8438 74.8281 69.8438C74.0469 69.8438 73.5 69.9375 72.9375 70.1875L72.1562 70.5156L69.25 67.6094L66.3438 64.7031L66.6406 64.3125C66.8125 64.1094 67.4375 63.3594 68.0156 62.6406C71.6875 58.1406 74.2344 52.6875 75.375 46.8438L75.7188 45.1406L76.6094 44.7656C78.2344 44.1094 79.1562 43.1875 79.6875 41.6562C80.0781 40.5469 80.0781 39.4531 79.6875 38.3438C79.1562 36.8125 78.2344 35.8906 76.6094 35.2344L75.7188 34.8594L75.375 33.1562C74.2344 27.3281 71.625 21.7344 68.0312 17.3594C67.4375 16.6562 66.8125 15.8906 66.6406 15.6875L66.3438 15.2969L69.25 12.3906L72.1562 9.48438L72.9375 9.8125C73.5 10.0625 74.0469 10.1562 74.8281 10.1562C76.9375 10.1562 78.5156 9.20312 79.4062 7.375C79.8594 6.46875 79.9219 6.1875 79.9219 5.07812C79.9219 4.03125 79.8594 3.6875 79.4844 2.95312C78.9844 1.92188 77.9375 0.890625 76.9062 0.421875C76.3281 0.15625 75.875 0.0781249 74.8438 0.0781249C73.6406 0.0937499 73.4219 0.140625 72.5312 0.625C70.7656 1.5625 69.8438 3.125 69.8438 5.17188C69.8438 5.95312 69.9375 6.5 70.1875 7.0625L70.5156 7.84375L67.6094 10.75L64.7031 13.6562L64.3125 13.3594C64.0938 13.1875 63.4062 12.6094 62.7656 12.0781C58.4062 8.4375 52.7188 5.78125 46.8438 4.625L45.1406 4.28125L44.7656 3.39062C44.1094 1.76562 43.1875 0.84375 41.6562 0.3125C40.5469 -0.0781251 39.4531 -0.0781251 38.3438 0.3125C36.8125 0.84375 35.8906 1.76562 35.2344 3.375L34.875 4.26562L33.1406 4.625C27.2031 5.8125 21.875 8.29688 17.3594 11.9844C16.6406 12.5625 15.8906 13.1875 15.6875 13.3594L15.2969 13.6562L12.3906 10.75L9.48438 7.84375L9.8125 7.0625C10.2656 6.03125 10.2812 4.375 9.85938 3.28125C8.90625 0.78125 5.95312 -0.609375 3.46875 0.28125ZM6.35938 2.67188C7.28125 3.125 7.8125 4.03125 7.8125 5.1875C7.8125 6.73438 6.73438 7.8125 5.1875 7.8125C3.125 7.8125 1.8125 5.9375 2.57812 4.10938C2.90625 3.32812 3.23438 2.98438 3.98438 2.64062C4.8125 2.26562 5.53125 2.26562 6.35938 2.67188ZM41.2031 2.64062C42.3594 3.17188 43.0469 4.6875 42.6562 5.85938C42.25 7.09375 41.2812 7.8125 40 7.8125C39.0781 7.8125 38.4844 7.54688 37.9219 6.89062C36.75 5.48438 37.1562 3.48438 38.7812 2.67188C39.6094 2.26562 40.3438 2.26562 41.2031 2.64062ZM75.8906 2.57812C76.6719 2.90625 77.0156 3.23438 77.3594 3.98438C78.2344 5.875 76.9375 7.8125 74.8125 7.8125C73.2656 7.8125 72.1875 6.73438 72.1875 5.1875C72.1875 3.125 74.0469 1.8125 75.8906 2.57812ZM35.4531 7.42188C35.9531 8.35938 36.875 9.26562 37.7812 9.71875C38.8281 10.2344 41.1562 10.2344 42.1875 9.73438C43.0938 9.28125 44.0781 8.3125 44.5469 7.40625L44.9219 6.6875L45.6719 6.79688C47.0469 6.96875 50.2188 7.84375 52 8.53125C61.125 12.0625 68.3594 19.4375 71.7188 28.6406C72.2656 30.1719 73.0625 33.1719 73.2031 34.3281L73.3125 35.0781L72.5781 35.4531C71.6406 35.9531 70.7344 36.8594 70.2812 37.7812C69.9844 38.3906 69.9219 38.7656 69.9219 40C69.9219 41.2344 69.9844 41.6094 70.2812 42.2188C70.7344 43.1406 71.6406 44.0469 72.5781 44.5469L73.3125 44.9219L73.2031 45.6719C73.0625 46.8281 72.2656 49.8281 71.7188 51.3594C67.875 61.8906 58.9844 69.9375 48.2031 72.6562C47.2344 72.9062 46.0938 73.1562 45.6719 73.2031L44.9219 73.3125L44.5469 72.5781C44.0469 71.6406 43.1406 70.7344 42.2188 70.2812C41.1562 69.7656 38.8438 69.7656 37.7812 70.2812C36.8594 70.7344 35.9531 71.6406 35.4531 72.5781L35.0781 73.3125L34.3281 73.2031C33.1719 73.0625 30.1719 72.2656 28.6406 71.7188C18.2188 67.9219 10.1406 59.0781 7.42188 48.5C7.125 47.3906 6.84375 46.1094 6.79688 45.6875L6.6875 44.9062L7.3125 44.625C8.14062 44.25 9.28125 43.0938 9.71875 42.2031C10.2344 41.1562 10.2344 38.8281 9.71875 37.7812C9.26562 36.8594 8.17188 35.7656 7.32812 35.375L6.6875 35.0938L6.78125 34.3125C6.96875 32.9531 7.82812 29.8438 8.53125 28C12.4219 17.8906 21.0938 10.125 31.4844 7.42188C34.9531 6.51562 34.9688 6.51562 35.4531 7.42188ZM6.0625 37.4219C7.23438 37.9219 7.8125 38.7656 7.8125 40C7.8125 41.2812 7.09375 42.25 5.85938 42.6562C4.23438 43.1875 2.34375 41.7656 2.34375 40C2.34375 38.8438 3.21875 37.6875 4.34375 37.3438C5 37.1406 5.42188 37.1719 6.0625 37.4219ZM76.4531 37.75C78.4844 39.0938 77.7344 42.2969 75.2812 42.7344C74.25 42.9219 72.9375 42.2344 72.4219 41.2344C72.125 40.6719 72.125 39.3281 72.4062 38.7812C73.1875 37.2812 75.0312 36.8125 76.4531 37.75ZM6.57812 72.5469C7.4375 73.125 7.8125 73.8281 7.8125 74.8125C7.8125 76.875 5.9375 78.1875 4.10938 77.4219C3.32812 77.0938 2.98438 76.7656 2.64062 76.0156C1.78125 74.1406 3.0625 72.1875 5.17188 72.1875C5.82812 72.1875 6.1875 72.2812 6.57812 72.5469ZM41.2344 72.4219C41.8281 72.7188 42.4375 73.4531 42.6562 74.1406C43.0469 75.3125 42.3594 76.8281 41.2031 77.3594C38.4688 78.5938 35.9688 75.2969 37.9375 73.0625C38.7031 72.2031 40.25 71.9062 41.2344 72.4219ZM76.3438 72.5781C77.5156 73.2656 77.9531 74.7344 77.3594 76.0156C77.0156 76.7656 76.6719 77.0938 75.8906 77.4219C74.0625 78.1875 72.1875 76.875 72.1875 74.8125C72.1875 73.8281 72.5625 73.125 73.4219 72.5469C74.1719 72.0312 75.4375 72.0469 76.3438 72.5781Z" fill="#233E90"/>
<path d="M37.7478 15.0969C27.8969 15.9858 19.4045 22.6872 16.2675 32.0653C14.5084 37.3112 14.5866 43.2702 16.4629 48.4574C16.9516 49.8153 18.1145 52.1989 18.8475 53.3418C20.2059 55.4714 22.3265 57.8648 24.2127 59.379C30.0176 64.0582 37.3275 65.9143 44.6375 64.576C49.9147 63.6089 54.9867 60.7759 58.5147 56.8391C64.3196 50.3721 66.3719 41.6681 64.0851 33.3157C63.2446 30.2483 61.7201 27.2493 59.6581 24.5726C58.8372 23.5078 56.5015 21.1731 55.4363 20.3525C50.3056 16.3961 44.0414 14.54 37.7478 15.0969ZM39.1159 22.1304V27.5033H38.8521C38.168 27.4935 35.5294 27.2884 34.4739 27.1614C32.9299 26.966 30.516 26.5069 30.516 26.4092C30.516 26.3701 30.6919 25.8914 30.9069 25.3541C32.4412 21.5052 34.6987 18.6136 37.0832 17.4121C37.7185 17.0995 38.6469 16.7869 38.9987 16.7673C39.0866 16.7576 39.1159 17.8908 39.1159 22.1304ZM41.7155 16.9627C42.5559 17.2265 42.9859 17.4414 43.8752 18.0471C45.82 19.3951 47.6963 22.0425 49.0254 25.3541C49.2697 25.9696 49.4652 26.4678 49.4456 26.4776C49.4359 26.4873 48.9472 26.585 48.3511 26.7022C46.3575 27.0832 44.3248 27.3177 41.9305 27.4544L40.7773 27.5228V22.1402C40.7773 17.5977 40.7968 16.7576 40.9141 16.7576C40.9923 16.7576 41.3539 16.8553 41.7155 16.9627ZM34.0342 17.4902C34.0342 17.5195 33.7214 17.8712 33.3501 18.2815C31.5421 20.2255 30.0078 22.7263 29.1478 25.149C28.9719 25.6472 28.7765 26.038 28.6983 26.038C28.2292 26.038 23.4699 24.2014 23.1572 23.8986C23.0497 23.7911 24.799 22.2183 25.9913 21.3294C27.9458 19.8836 30.2717 18.6625 32.5683 17.8908C33.9267 17.4316 34.0342 17.4023 34.0342 17.4902ZM47.667 17.9982C50.7552 19.0435 54.2245 21.2024 56.3549 23.3808L56.8338 23.8693L56.2279 24.1819C54.7424 24.9243 51.2927 26.1454 51.1363 25.9793C51.0972 25.9305 50.9604 25.6081 50.8431 25.2564C50.4913 24.2503 49.3577 21.9644 48.7225 21.007C48.0481 19.991 47.2077 18.9262 46.3966 18.0471C45.7223 17.3242 45.6734 17.3242 47.667 17.9982ZM23.294 25.784C24.6622 26.4385 26.2356 27.0441 27.4865 27.4154C27.8872 27.5326 28.239 27.64 28.2488 27.6596C28.2683 27.6693 28.1315 28.3141 27.936 29.0858C27.2422 31.8113 26.8024 34.8885 26.646 37.8778L26.5874 39.2259H21.6034H16.6095L16.6877 38.2295C16.9418 34.5368 18.1927 30.7758 20.2352 27.5521C20.6456 26.9171 21.9063 25.1588 21.9649 25.1588C21.9747 25.1588 22.5708 25.4421 23.294 25.784ZM58.4462 25.7644C59.9415 27.6693 61.251 30.1213 62.1012 32.5831C62.6876 34.3122 63.1078 36.4222 63.2935 38.6593L63.3423 39.2259H58.3094H53.2863V38.4639C53.2863 36.8227 53.0029 34.0972 52.5924 31.8016C52.4263 30.854 51.8497 28.3629 51.664 27.767C51.6347 27.6596 51.664 27.601 51.7618 27.601C52.2797 27.601 56.2279 26.077 57.3028 25.4616C57.596 25.2955 57.8599 25.1588 57.899 25.1588C57.9283 25.1588 58.1726 25.4323 58.4462 25.7644ZM31.034 28.2848C33.1155 28.7048 35.4121 28.9881 37.8748 29.1151L39.1159 29.1835V34.2047V39.2259H33.6921H28.2781L28.3269 38.0732C28.4442 35.4258 28.8644 32.3877 29.4606 29.9943C29.9003 28.2066 29.9297 28.0894 30.0176 28.0894C30.0665 28.0894 30.5258 28.1773 31.034 28.2848ZM50.3838 29.5743C51.0679 32.3584 51.449 34.996 51.5761 37.7312L51.6543 39.2259H46.2109H40.7773V34.2047V29.1835L42.0282 29.1249C44.4714 28.9881 47.1295 28.6658 48.8886 28.2848C49.3479 28.1871 49.7877 28.1089 49.8659 28.0992C49.9831 28.0894 50.1102 28.4509 50.3838 29.5743ZM26.6851 42.7231C26.8806 45.8101 27.2519 48.2718 27.936 50.9875C28.1217 51.7397 28.239 52.3747 28.1999 52.4138C28.1608 52.4529 27.7894 52.5799 27.3888 52.6971C26.177 53.0488 24.584 53.674 23.2256 54.3187L21.9552 54.9244L21.359 54.1331C18.6325 50.5089 17.0004 46.2106 16.6779 41.7853L16.6095 40.8866H21.5936H26.5776L26.6851 42.7231ZM39.1159 45.9175V50.9485H38.256C36.5848 50.9485 33.1253 51.3588 30.9069 51.8179C30.3987 51.9254 29.9687 51.9937 29.9492 51.9742C29.9297 51.9547 29.7831 51.4467 29.6267 50.8312C28.9524 48.1937 28.4344 44.6671 28.3367 42.0784L28.2878 40.8866H33.7019H39.1159V45.9175ZM51.5858 42.2249C51.449 45.0188 50.9702 48.3304 50.3545 50.6554C50.1884 51.2708 50.032 51.8277 50.0124 51.8863C49.9929 51.9644 49.7193 51.9449 49.0645 51.8081C47.022 51.3881 43.7189 51.0071 41.4125 50.9192L40.8262 50.8996L40.7968 45.8882L40.7773 40.8866H46.2109H51.6543L51.5858 42.2249ZM63.2837 41.4922C63.1567 43.2799 62.7071 45.6635 62.2087 47.1875C61.4367 49.5906 60.0392 52.238 58.544 54.182L57.9576 54.9342L56.5797 54.2699C55.2408 53.6251 53.2863 52.8729 52.2602 52.6092C51.9963 52.5408 51.7422 52.4529 51.7031 52.4236C51.6738 52.3943 51.7422 51.9644 51.879 51.4858C52.6608 48.5942 53.2863 44.2177 53.2863 41.6583V40.8866H58.3094H63.3326L63.2837 41.4922ZM39.1159 57.982V63.3549L38.8032 63.2865C38.1973 63.1791 37.0148 62.6711 36.3796 62.2608C35.6271 61.7723 34.4055 60.6196 33.741 59.7893C33.008 58.871 32.1383 57.4154 31.5128 56.0576C30.8287 54.5825 30.4769 53.6935 30.5356 53.6349C30.604 53.5665 32.324 53.2246 33.5455 53.0488C35.1189 52.8143 37.0344 52.6385 38.168 52.6189L39.1159 52.6092V57.982ZM43.885 52.7557C44.7548 52.8339 45.8982 52.9706 46.4259 53.0488C47.4422 53.2051 49.387 53.5665 49.4359 53.6056C49.4847 53.6642 48.615 55.7059 48.1654 56.6046C46.2109 60.4633 43.8655 62.6808 41.0509 63.2963L40.7773 63.3549V57.982V52.6092H41.5396C41.95 52.6092 43.0055 52.6776 43.885 52.7557ZM52.6511 54.475C54.1951 54.9635 56.824 56.1064 56.7751 56.2627C56.7556 56.3213 56.306 56.7609 55.7685 57.2396C53.0615 59.6818 50.1199 61.3425 46.6604 62.4073C45.7223 62.7004 45.7223 62.7297 46.8168 61.5379C48.4977 59.7013 50.159 56.9075 50.892 54.6411C51.107 53.9963 51.1168 53.9768 51.2633 54.0257C51.3318 54.0452 51.9572 54.2503 52.6511 54.475ZM29.099 54.8267C29.4997 55.999 30.516 58.0211 31.2685 59.1543C31.9428 60.18 33.1546 61.6844 33.7312 62.2217C33.8973 62.3878 34.0342 62.5441 34.0342 62.5832C34.0342 62.6808 32.6367 62.251 31.4053 61.7723C29.2847 60.942 27.1151 59.6818 25.2876 58.2067C24.3006 57.4057 23.1083 56.2627 23.1963 56.1846C23.597 55.8134 28.0338 54.094 28.6201 54.0745C28.796 54.0745 28.8742 54.2015 29.099 54.8267Z" fill="#03B5E1"/>
</g>
<defs>
<clipPath id="clip0_9_11">
<rect width="80" height="80" fill="white"/>
</clipPath>
</defs>
</svg>
