<svg width="379" height="114" viewBox="0 0 379 114" fill="none" xmlns="http://www.w3.org/2000/svg">
<g clip-path="url(#clip0_1_5)">
<mask id="mask0_1_5" style="mask-type:luminance" maskUnits="userSpaceOnUse" x="0" y="0" width="379" height="114">
<path d="M379 0H0V114H379V0Z" fill="white"/>
</mask>
<g mask="url(#mask0_1_5)">
<path d="M244.438 64.2976C244.438 70.3506 244.438 76.0499 244.438 81.756C244.438 82.6673 243.86 82.7285 243.269 82.8986C240.287 83.7182 237.184 84.0015 234.104 83.7351C227.347 83.3278 220.969 80.4753 216.161 75.7098C212.379 72.1463 209.632 67.6244 208.213 62.6245C207.169 58.6305 206.938 54.4676 207.533 50.3825C207.973 46.2285 209.392 42.2381 211.674 38.7391C215.841 32.4004 221.981 29.0679 229.236 27.5717C236.021 26.0816 243.107 26.8259 249.436 29.6936C257.703 33.4274 262.993 39.7456 264.502 48.9407C264.927 51.733 265.104 54.5574 265.033 57.3809C264.965 65.6691 264.965 73.9551 265.033 82.2389C265.033 83.8847 264.536 84.1772 263.047 84.1432C258.703 84.048 254.358 84.0412 250.02 84.1432C248.593 84.184 248.361 83.6603 248.327 82.4293C248.144 76.6552 248.762 70.9082 248.824 65.1477C248.871 60.2917 248.783 55.4358 247.301 50.743C245.676 45.5742 242.195 42.6973 237.517 42.5817C231.146 42.4457 226.638 45.0029 224.932 49.7636C222.212 57.2448 227.651 66.644 235.26 67.4465C237.918 67.7253 240.304 66.814 242.555 65.4878C243.092 65.1749 243.602 64.8077 244.411 64.2908" fill="#233E90"/>
<path d="M291.163 83.7692C288.347 83.9 285.532 83.4743 282.88 82.5162C280.229 81.5581 277.792 80.0864 275.709 78.1855C272.275 75.193 270.406 71.1531 269.318 66.7392C269.059 65.6714 269.032 64.5697 268.672 63.4951C268.189 62.0873 269.1 61.4071 270.766 61.9444C273.329 62.7742 275.845 63.7535 278.395 64.6105C283.983 66.5012 289.525 68.5823 295.576 68.3103C297.06 68.2195 298.475 67.649 299.608 66.6848C300.288 66.1407 300.233 65.8143 299.492 65.5694C297.31 64.8417 295.12 64.1548 292.924 63.4815C289.216 62.3389 285.509 61.2054 281.801 60.0809C279.922 59.4161 278.012 58.8464 276.076 58.3739C275.294 58.2772 274.543 58.0118 273.874 57.5961C273.205 57.1804 272.634 56.6243 272.201 55.9663C270.045 52.6745 268.291 49.2196 268.305 45.2205C268.305 40.1197 270.773 36.1003 274.716 33.0874C280.06 29.0067 286.213 27.15 292.938 26.7487C299.553 26.3475 305.74 27.3336 311.146 31.3531C315.225 34.4 317.394 38.6575 317.999 43.7039C318.115 44.656 318.285 45.6082 318.332 46.5671C318.434 48.5259 318.115 48.7843 316.293 48.2266C314.586 47.7029 312.893 47.1792 311.207 46.5331C305.793 44.4098 300.164 42.8819 294.42 41.9764C292.462 41.684 290.218 41.2963 288.301 42.5409C287.917 42.7762 287.559 43.0521 287.233 43.3638C286.553 44.0439 286.445 44.3976 287.668 44.7241C294.957 46.7236 302.137 49.1788 309.5 50.8042C315.354 52.0964 317.142 56.2451 318.339 61.0671C320.195 68.6707 315.293 75.397 309.242 79.0084C303.818 82.323 297.543 83.9779 291.19 83.7692" fill="#233E90"/>
<path d="M204.136 43.3434C204.136 48.1449 204.136 52.9465 204.136 57.7413C204.075 70.1941 194.488 81.9056 181.638 83.4494C174.635 84.2928 168.23 83.0686 162.424 78.9743C158.469 76.1241 155.385 72.2291 153.517 67.7253C152.144 64.4448 151.491 60.9082 151.6 57.3536C151.645 50.3893 151.645 43.4204 151.6 36.4471C151.6 35.0868 151.953 34.6924 153.32 34.7196C157.719 34.808 162.118 34.8216 166.517 34.7196C167.958 34.7196 168.176 35.2161 168.169 36.4811C168.115 43.6222 168.074 50.7634 168.169 57.9045C168.217 61.7607 170.209 64.556 173.608 66.2563C177.008 67.9565 180.366 67.5485 183.446 65.1817C184.655 64.2792 185.638 63.1089 186.319 61.7625C187 60.4162 187.359 58.9303 187.369 57.4216C187.886 47.5464 187.465 37.6985 187.58 27.7961C187.58 26.5175 187.832 26.0142 189.253 26.0482C193.706 26.1434 198.166 26.123 202.62 26.0482C203.81 26.0482 204.17 26.361 204.15 27.5716C204.088 32.8289 204.15 38.0861 204.15 43.3366" fill="#233E90"/>
<path d="M322.46 42.9149C322.46 29.9928 322.46 17.0231 322.426 4.07384C322.426 2.5776 322.718 2.10832 324.146 2.14233C328.742 2.25115 333.345 2.22394 337.948 2.14233C339.117 2.14233 339.423 2.49599 339.423 3.77459C339.387 30.0722 339.387 56.3539 339.423 82.6197C339.423 83.8643 339.09 84.1296 338.064 84.116C333.338 84.0547 328.62 84.0411 323.901 84.116C322.739 84.116 322.453 83.7895 322.46 82.5177C322.501 69.31 322.46 56.109 322.46 42.9013" fill="#233E90"/>
<path d="M342.979 44.4452V34.5632C342.979 32.3392 343.033 30.1084 342.979 27.8777C342.979 27.0752 343.291 26.6535 343.937 26.5651C353.368 25.3409 362.295 26.1434 369.359 33.4954C373.554 37.8753 375.682 43.391 377.001 49.2195C378.041 54.0248 378.644 58.9143 378.803 63.8283C378.939 66.9568 379.122 70.0921 378.966 73.2002C378.81 76.3083 378.789 79.226 378.68 82.2389C378.633 83.5039 378.293 84.1908 376.736 84.15C372.398 84.0208 368.053 84.0684 363.709 84.15C362.587 84.15 362.295 83.8575 362.301 82.7354C362.349 74.2816 362.437 65.821 362.301 57.3673C362.233 53.9667 361.839 50.5662 359.487 47.6689C357.439 45.1364 354.556 43.417 351.355 42.8197C348.391 42.1804 345.753 42.9897 342.979 44.418" fill="#233E90"/>
<path d="M161.295 82.9462C157.075 83.9897 152.674 84.056 148.425 83.1401C144.176 82.2241 140.192 80.35 136.777 77.6607C133.362 74.9713 130.606 71.5377 128.718 67.6213C126.831 63.705 125.862 59.4094 125.885 55.0617C125.885 48.6687 125.885 42.2757 125.885 35.8758C125.885 34.7332 126.11 34.298 127.361 34.3184C131.93 34.4 136.499 34.4 141.067 34.3184C142.251 34.3184 142.427 34.7264 142.427 35.7874C142.387 42.126 142.427 48.4647 142.427 54.8305C142.398 56.8454 142.875 58.8354 143.815 60.6179C144.754 62.4004 146.127 63.9183 147.805 65.0321C148.425 65.3977 148.895 65.9713 149.131 66.6508C151.035 72.8398 155.033 77.5325 159.908 81.6132C160.343 81.9737 160.73 82.3817 161.315 82.9326" fill="#03B5E1"/>
<path d="M240.64 111.511L237.309 98.2555H239.117L240.695 104.948C241.075 106.6 241.429 108.233 241.66 109.511H241.708C241.918 108.206 242.333 106.628 242.782 104.927L244.556 98.2555H246.324L247.942 104.955C248.309 106.539 248.663 108.097 248.867 109.491C249.132 108.042 249.499 106.566 249.914 104.921L251.661 98.2555H253.416L249.683 111.511H247.902L246.236 104.628C245.867 103.206 245.576 101.764 245.365 100.309H245.325C245.072 101.768 244.731 103.21 244.305 104.628L242.435 111.511H240.64Z" fill="#233E90"/>
<path d="M255.339 107.042C255.373 109.375 256.848 110.334 258.582 110.334C259.481 110.362 260.376 110.197 261.206 109.851L261.512 111.076C260.511 111.501 259.431 111.708 258.344 111.681C255.434 111.681 253.68 109.743 253.68 106.92C253.68 104.098 255.373 101.799 258.14 101.799C261.233 101.799 262.043 104.519 262.043 106.26C262.048 106.531 262.03 106.802 261.988 107.07L255.339 107.042ZM260.384 105.805C260.384 104.716 259.942 103.009 258.004 103.009C256.243 103.009 255.495 104.601 255.359 105.805H260.384Z" fill="#233E90"/>
<path d="M268.4 98.2554H275.519V99.6769H270.114V104.077H275.104V105.492H270.114V111.477H268.4V98.2554Z" fill="#233E90"/>
<path d="M279.279 97.5482H277.564V111.477H279.279V97.5482Z" fill="#233E90"/>
<path d="M290.774 106.641C290.774 110.157 288.34 111.694 286.055 111.694C283.485 111.694 281.5 109.817 281.5 106.804C281.5 103.628 283.587 101.772 286.212 101.772C288.836 101.772 290.774 103.751 290.774 106.641ZM283.254 106.75C283.254 108.831 284.444 110.395 286.13 110.395C287.816 110.395 289.02 108.852 289.02 106.702C289.02 105.097 288.211 103.064 286.157 103.064C284.104 103.064 283.254 104.955 283.254 106.75Z" fill="#233E90"/>
<path d="M293.494 101.989L294.766 106.804C295.038 107.865 295.276 108.845 295.446 109.831H295.493C295.704 108.872 296.017 107.845 296.343 106.818L297.887 101.989H299.342L300.817 106.75C301.157 107.872 301.436 108.879 301.653 109.845H301.701C301.871 108.886 302.129 107.886 302.435 106.764L303.795 102.003H305.495L302.456 111.511H300.885L299.444 106.981C299.107 105.955 298.828 104.91 298.607 103.853H298.566C298.338 104.916 298.048 105.966 297.696 106.995L296.173 111.511H294.596L291.74 101.989H293.494Z" fill="#233E90"/>
<path d="M312.099 101.989L313.377 106.804C313.649 107.865 313.887 108.845 314.057 109.831H314.138C314.349 108.872 314.662 107.845 314.988 106.818L316.539 101.989H317.987L319.462 106.75C319.802 107.872 320.081 108.879 320.305 109.845H320.346C320.523 108.886 320.774 107.886 321.087 106.764L322.447 102.003H324.147L321.04 111.511H319.476L318.034 106.981C317.696 105.955 317.415 104.91 317.191 103.853H317.157C316.926 104.916 316.635 105.965 316.287 106.995L314.764 111.511H313.187L310.324 101.989H312.099Z" fill="#233E90"/>
<path d="M327.736 99.3097C327.74 99.4539 327.714 99.5974 327.66 99.731C327.606 99.8646 327.524 99.9855 327.42 100.086C327.317 100.186 327.193 100.264 327.058 100.314C326.923 100.364 326.779 100.386 326.635 100.377C326.495 100.379 326.357 100.353 326.228 100.3C326.099 100.246 325.982 100.167 325.885 100.067C325.788 99.9674 325.712 99.8487 325.662 99.7184C325.612 99.5882 325.589 99.4491 325.595 99.3097C325.592 99.1678 325.618 99.0268 325.671 98.8952C325.724 98.7635 325.803 98.644 325.903 98.5436C326.003 98.4433 326.123 98.3643 326.254 98.3112C326.386 98.2582 326.527 98.2323 326.669 98.2351C326.811 98.2303 326.952 98.2549 327.084 98.3073C327.217 98.3597 327.337 98.4388 327.437 98.5396C327.537 98.6405 327.615 98.7609 327.667 98.8934C327.718 99.0259 327.742 99.1676 327.736 99.3097ZM325.833 101.989H327.553V111.511H325.833V101.989Z" fill="#233E90"/>
<path d="M332.494 99.2689V101.989H334.968V103.295H332.494V108.41C332.494 109.593 332.833 110.259 333.792 110.259C334.13 110.269 334.467 110.225 334.792 110.13L334.873 111.443C334.378 111.616 333.854 111.696 333.33 111.681C332.985 111.699 332.641 111.643 332.32 111.518C331.999 111.392 331.708 111.2 331.467 110.953C330.949 110.237 330.708 109.358 330.787 108.478V103.295H329.318V101.989H330.787V99.7041L332.494 99.2689Z" fill="#233E90"/>
<path d="M336.908 97.5482H338.615V103.472H338.656C338.956 102.966 339.382 102.546 339.893 102.255C340.428 101.938 341.039 101.771 341.661 101.772C342.939 101.772 344.965 102.554 344.965 105.852V111.511H343.245V106.07C343.245 104.54 342.667 103.254 341.056 103.254C340.538 103.265 340.036 103.436 339.619 103.744C339.203 104.053 338.892 104.483 338.73 104.975C338.643 105.24 338.604 105.519 338.615 105.798V111.511H336.895L336.908 97.5482Z" fill="#233E90"/>
<path d="M354.054 111.511V105.907L349.859 98.2895H351.818L353.674 101.942C354.177 102.941 354.578 103.744 354.986 104.662H355.027C355.387 103.792 355.843 102.928 356.386 101.942L358.29 98.3031H360.221L355.802 105.893V111.511H354.054Z" fill="#233E90"/>
<path d="M368.747 106.641C368.747 110.157 366.306 111.694 364.028 111.694C361.458 111.694 359.473 109.817 359.473 106.804C359.473 103.628 361.56 101.772 364.178 101.772C366.897 101.772 368.747 103.751 368.747 106.641ZM361.227 106.75C361.227 108.831 362.417 110.395 364.103 110.395C365.789 110.395 366.992 108.852 366.992 106.702C366.992 105.097 366.183 103.064 364.13 103.064C362.077 103.064 361.227 104.955 361.227 106.75Z" fill="#233E90"/>
<path d="M378.858 108.879C378.858 109.872 378.858 110.722 378.933 111.477H377.41L377.321 109.926H377.274C376.955 110.474 376.496 110.927 375.944 111.238C375.392 111.549 374.766 111.706 374.133 111.694C372.65 111.694 370.869 110.858 370.869 107.532V101.989H372.61V107.233C372.61 109.035 373.174 110.266 374.731 110.266C375.225 110.256 375.704 110.101 376.11 109.819C376.515 109.537 376.828 109.141 377.009 108.682C377.111 108.398 377.164 108.099 377.165 107.797V101.989H378.885L378.858 108.879Z" fill="#233E90"/>
<path d="M231.568 113.415V93.8279H231.958V113.429H231.568" fill="#03B5E1"/>
<path d="M2.74002 94.8141H0V114H2.74002V94.8141Z" fill="#03B5E1"/>
<path d="M30.3715 94.3245V113.51H28.121L16.617 99.2008V113.51H13.877V94.3245H16.1206L27.6315 108.627V94.3245H30.3715Z" fill="#03B5E1"/>
<path d="M43.2363 111.314L44.2494 109.178C46.0337 110.638 48.274 111.425 50.5793 111.402C53.8973 111.402 55.3387 110.11 55.3387 108.437C55.3387 103.751 43.7191 106.709 43.7191 99.5952C43.7191 96.6367 46.0239 94.1135 51.062 94.1135C53.2384 94.0743 55.3798 94.6647 57.2288 95.8138L56.3245 98.0106C54.7536 97.0016 52.9288 96.4592 51.062 96.4463C47.8053 96.4463 46.4047 97.8065 46.4047 99.4864C46.4047 104.179 58.0243 101.241 58.0243 108.287C58.0243 111.218 55.665 113.728 50.5997 113.728C47.6693 113.728 44.7865 112.742 43.2567 111.314" fill="#03B5E1"/>
<path d="M69.4111 105.233V94.3517H72.1307V105.152C72.1307 109.396 74.0752 111.314 77.5292 111.314C80.9831 111.314 82.9684 109.396 82.9684 105.152V94.3245H85.6269V105.206C85.6269 110.77 82.5877 113.701 77.5156 113.701C72.4435 113.701 69.4043 110.77 69.4043 105.206" fill="#03B5E1"/>
<path d="M110.284 113.51L106.143 107.614C105.763 107.614 105.348 107.668 104.94 107.668H100.181V113.51H97.4609V94.3245H104.94C109.924 94.3245 112.942 96.8409 112.942 101.01C113.005 102.344 112.625 103.662 111.861 104.758C111.097 105.854 109.993 106.666 108.72 107.07L113.269 113.51H110.284ZM110.168 101.01C110.168 98.2895 108.333 96.7048 104.831 96.7048H100.167V105.342H104.831C108.333 105.342 110.168 103.751 110.168 101.01Z" fill="#03B5E1"/>
<path d="M135.908 108.716H125.71L123.602 113.51H120.773L129.463 94.3245H132.182L140.899 113.51H138.043L135.908 108.716ZM134.949 106.519L130.816 97.1197L126.675 106.519H134.949Z" fill="#03B5E1"/>
<path d="M168.522 94.3245V113.51H166.278L154.767 99.2008V113.51H152.027V94.3245H154.278L165.782 108.627V94.3245H168.522Z" fill="#03B5E1"/>
<path d="M178.699 103.914C178.699 98.2419 183.03 94.1 188.898 94.1C190.256 94.0459 191.61 94.2852 192.868 94.8016C194.126 95.3179 195.258 96.0993 196.186 97.0925L194.405 98.82C193.719 98.0784 192.882 97.4917 191.951 97.0989C191.02 96.706 190.017 96.516 189.007 96.5416C184.676 96.5416 181.466 99.6701 181.466 103.914C181.466 108.158 184.676 111.286 189.007 111.286C190.018 111.308 191.022 111.114 191.953 110.718C192.884 110.322 193.72 109.732 194.405 108.988L196.186 110.715C195.254 111.714 194.117 112.499 192.853 113.019C191.59 113.539 190.229 113.781 188.864 113.728C183.057 113.728 178.726 109.593 178.726 103.914" fill="#03B5E1"/>
<path d="M223.785 111.123V113.51H209.867V94.3245H223.404V96.7048H212.607V102.601H222.228V104.927H212.607V111.123H223.785Z" fill="#03B5E1"/>
<path d="M143.481 19.9409L140.693 20.4238C140.547 20.4505 140.399 20.4642 140.251 20.4646C139.967 20.4874 139.683 20.4202 139.439 20.2725C139.194 20.1248 139.003 19.9041 138.891 19.6416C138.547 18.8604 138.318 18.0334 138.211 17.1864C138.157 16.8328 138.103 16.4655 138.055 16.0983C138.007 15.731 137.946 15.3637 137.878 15.0033C137.806 14.4502 137.621 13.9178 137.334 13.439C137.091 13.0929 136.727 12.8502 136.314 12.7589C135.704 12.6318 135.081 12.5747 134.458 12.5889C134.226 12.9763 134.015 13.3759 133.826 13.7859C133.568 14.3368 133.296 14.9421 133.024 15.5882C132.752 16.2343 132.521 16.8464 132.344 17.3973C132.189 17.7915 132.093 18.2062 132.058 18.6283C132.056 18.8612 132.1 19.0923 132.187 19.3084C132.252 19.422 132.346 19.5161 132.46 19.5807C132.574 19.6453 132.703 19.6781 132.833 19.6756L132.745 20.0157L129.747 20.3965C129.548 20.4234 129.348 20.4371 129.148 20.4374C128.047 20.4374 127.496 19.9205 127.496 18.8867C127.503 18.5129 127.562 18.142 127.673 17.7849C127.788 17.3973 127.911 17.0368 128.04 16.7172C128.677 15.1924 129.468 13.7364 130.399 12.3713C131.328 10.9812 132.362 9.66473 133.493 8.43342L130.522 8.88229L130.175 4.65881C130.154 4.4177 130.077 4.18478 129.951 3.9787C129.879 3.87128 129.787 3.77923 129.68 3.70798C129.572 3.63672 129.452 3.58771 129.325 3.56383V3.23738L132.772 2.55727C132.95 2.51329 133.133 2.49046 133.316 2.48926C133.942 2.48926 134.268 2.7613 134.295 3.30539L134.472 7.43366L138.551 6.84196C137.912 7.59008 137.3 8.35181 136.702 9.13393C136.107 9.90251 135.555 10.704 135.05 11.5347L138.103 10.7866C138.301 10.7302 138.503 10.687 138.708 10.6574C138.915 10.6277 139.124 10.6141 139.333 10.6166C139.656 10.6322 139.968 10.7346 140.237 10.913C140.507 11.0913 140.723 11.339 140.863 11.6299C141.429 12.7349 141.81 13.9249 141.992 15.1529C142.236 16.3499 142.434 17.2612 142.576 17.8733C142.661 18.321 142.797 18.757 142.984 19.1724C143.114 19.4172 143.263 19.5532 143.44 19.5736L143.481 19.9409Z" fill="#03B5E1"/>
<path d="M163.158 7.26358C163.166 8.11313 162.885 8.94015 162.363 9.60996C161.821 10.3109 161.123 10.8747 160.323 11.2558C159.494 11.655 158.585 11.8619 157.665 11.8611C157.412 11.8594 157.16 11.8413 156.91 11.8067L156.142 11.7115L155.632 18.5466C155.623 18.7266 155.648 18.9067 155.707 19.0771C155.727 19.1673 155.769 19.251 155.83 19.321C155.89 19.391 155.967 19.445 156.053 19.4784V19.9136C155.557 20.0088 154.993 20.1313 154.354 20.2673C153.79 20.4002 153.213 20.4709 152.633 20.4781C152.157 20.4781 151.852 20.3489 151.722 20.0836C151.582 19.7889 151.514 19.4647 151.525 19.1383C151.525 18.9887 151.525 18.7914 151.525 18.5602C151.525 18.329 151.525 18.1249 151.525 17.9753L152.096 12.0992C151.644 12.3436 151.171 12.5462 150.682 12.7045C150.185 12.8591 149.666 12.9371 149.145 12.9357C148.659 12.9751 148.17 12.9106 147.71 12.7465C147.251 12.5823 146.832 12.3222 146.48 11.9835C145.894 11.2912 145.594 10.4005 145.644 9.49434C145.648 8.70735 145.872 7.93717 146.29 7.27038C146.797 6.44307 147.512 5.76307 148.364 5.29806C149.252 4.81537 150.211 4.47786 151.206 4.2983C152.196 4.10866 153.202 4.01077 154.211 4.00585C155.059 4.00953 155.906 3.91597 156.733 3.72701C157.547 3.53773 158.38 3.4419 159.215 3.44136C159.732 3.40977 160.251 3.48672 160.737 3.66728C161.222 3.84783 161.665 4.12802 162.037 4.48984C162.408 4.85166 162.7 5.28714 162.893 5.76832C163.086 6.2495 163.176 6.76576 163.158 7.28398M152.769 4.97161C152.415 4.98309 152.068 5.06684 151.747 5.21772C151.427 5.36859 151.141 5.58341 150.906 5.84895C150.478 6.37392 150.181 6.99443 150.043 7.65804C149.895 8.29132 149.817 8.93914 149.812 9.58955C149.817 9.84762 149.844 10.1048 149.893 10.3581C149.943 10.647 150.052 10.9225 150.213 11.1674C150.294 11.2897 150.406 11.3882 150.537 11.4527C150.668 11.5173 150.815 11.5456 150.961 11.5347C151.194 11.5313 151.424 11.4852 151.641 11.3986C151.886 11.3102 152.096 11.2286 152.259 11.1538L152.769 4.97161ZM158.997 6.56307C158.996 6.11597 158.876 5.67722 158.651 5.29126C158.528 5.08593 158.35 4.91946 158.137 4.81113C157.924 4.7028 157.685 4.65705 157.447 4.67916C157.323 4.66878 157.198 4.66878 157.073 4.67916L156.699 4.73357L156.189 10.7457C156.522 10.7996 156.859 10.8269 157.196 10.8274C157.384 10.8269 157.569 10.777 157.733 10.6828C157.896 10.5885 158.032 10.4531 158.127 10.2901C158.38 9.89861 158.561 9.46583 158.664 9.01146C158.783 8.53497 158.869 8.05098 158.923 7.56283C158.97 7.09355 158.997 6.7535 158.997 6.53586" fill="#03B5E1"/>
<path d="M182.472 3.81546C182.039 4.04137 181.583 4.21925 181.112 4.34595C180.623 4.45493 180.124 4.50741 179.623 4.50237C179.278 4.49583 178.936 4.44555 178.603 4.35275C178.231 4.25618 177.874 4.10735 177.543 3.91068C177.26 3.76197 177.034 3.52247 176.904 3.23057L176.074 3.30538L175.224 3.40739L177.855 6.5495C178.89 6.57932 179.879 6.98554 180.636 7.69208C181.209 8.44512 181.489 9.38022 181.425 10.3241C181.425 11.5755 181.384 12.8201 181.309 14.0579C181.235 15.2957 181.187 16.5403 181.187 17.7917C181.189 18.1275 181.223 18.4623 181.289 18.7915C181.326 18.9671 181.416 19.1269 181.548 19.2488C181.679 19.3707 181.845 19.4485 182.023 19.4716V19.9069L179.202 20.3149H178.998H178.78C178.141 20.3149 177.74 20.1109 177.57 19.7028C177.4 19.2887 177.314 18.8447 177.318 18.397C177.318 18.0434 177.318 17.5469 177.352 16.9008C177.386 16.2547 177.413 15.5406 177.454 14.7516C177.495 13.9627 177.543 13.1602 177.577 12.3576C177.611 11.5551 177.651 10.8138 177.672 10.1337C177.692 9.45357 177.713 8.90268 177.713 8.48101C177.713 7.8009 177.332 7.40644 176.57 7.40644C176.202 7.39263 175.837 7.47894 175.514 7.65617C175.19 7.83341 174.921 8.09495 174.735 8.413C174.243 9.24524 173.935 10.1727 173.83 11.1334C173.65 12.4062 173.564 13.6906 173.572 14.9761C173.572 16.3363 173.572 17.3632 173.606 18.0161C173.594 18.4555 173.64 18.8945 173.742 19.322C173.766 19.4104 173.809 19.4926 173.868 19.563C173.926 19.6334 173.999 19.6904 174.082 19.73V20.0701C173.688 20.1313 173.198 20.2265 172.634 20.3421C172.156 20.4478 171.668 20.507 171.179 20.519C171 20.5276 170.821 20.4953 170.656 20.4246C170.491 20.3539 170.344 20.2467 170.227 20.1109C170.073 19.8938 169.968 19.6453 169.921 19.3832C169.801 18.7847 169.73 18.1774 169.71 17.5673C169.656 16.7103 169.629 15.4589 169.629 13.8199C169.629 13.0321 169.707 12.2463 169.86 11.4735C170.015 10.6861 170.355 9.94703 170.852 9.31755C171.235 8.83797 171.681 8.41244 172.178 8.05254C172.695 7.68788 173.269 7.41416 173.878 7.24321L171.002 3.96508C170.773 3.97951 170.546 4.01134 170.322 4.0603C170.098 4.10791 169.867 4.14871 169.642 4.17592C169.384 4.86608 168.863 5.42601 168.194 5.73337C167.512 6.08928 166.754 6.27589 165.984 6.27746C165.706 6.27518 165.428 6.24557 165.155 6.18904C164.874 6.13887 164.602 6.04959 164.346 5.9238C164.559 5.70758 164.703 5.43305 164.76 5.13487C164.83 4.84501 164.868 4.54868 164.876 4.25073C164.872 3.56286 164.689 2.88785 164.346 2.29201C164.713 2.13654 165.093 2.01365 165.481 1.92476C165.872 1.83838 166.271 1.7973 166.671 1.80234C167.25 1.78066 167.827 1.88267 168.364 2.10158C168.848 2.36193 169.241 2.76264 169.493 3.25097C170.71 3.08774 171.933 2.92452 173.157 2.77489C174.381 2.62527 175.605 2.48245 176.836 2.37363C176.872 2.10495 176.962 1.84627 177.1 1.61272C177.238 1.37917 177.42 1.17543 177.638 1.01341C178.084 0.709833 178.593 0.51211 179.127 0.435315C179.693 0.343265 180.266 0.297771 180.84 0.299292C181.024 0.299292 181.207 0.299292 181.391 0.299292L181.948 0.333299C181.819 0.606174 181.717 0.890872 181.643 1.18344C181.564 1.47839 181.525 1.78264 181.527 2.08798C181.517 2.43112 181.582 2.77231 181.717 3.08774C181.884 3.41121 182.158 3.66626 182.492 3.80866" fill="#03B5E1"/>
<path d="M221.215 21.3079C220.814 21.4303 220.393 21.5323 219.951 21.6208C219.518 21.701 219.079 21.742 218.639 21.7432C218.207 21.7412 217.778 21.6864 217.36 21.5799C216.949 21.495 216.562 21.3157 216.232 21.0563C216.076 20.9255 215.948 20.7648 215.856 20.5837C215.764 20.4026 215.709 20.2048 215.695 20.0021L211.194 20.4578C211.121 20.4648 211.048 20.4648 210.976 20.4578H210.792C210.616 20.4587 210.44 20.4382 210.269 20.3966C210.099 20.3498 209.943 20.2636 209.813 20.1449C209.666 19.9819 209.551 19.7928 209.473 19.5872C209.312 19.1726 209.187 18.7448 209.099 18.3086C208.963 17.7169 208.794 16.86 208.59 15.7446L208.454 15.0101C208.381 14.4589 208.201 13.9274 207.923 13.4458C207.68 13.0997 207.316 12.8571 206.903 12.7657C206.294 12.6352 205.671 12.5781 205.047 12.5957C204.818 12.9836 204.609 13.3831 204.422 13.7927C204.157 14.3436 203.891 14.9489 203.613 15.595C203.334 16.2411 203.109 16.8464 202.933 17.4041C202.778 17.7984 202.682 18.213 202.647 18.6351C202.648 18.8685 202.694 19.0996 202.783 19.3152C202.847 19.4278 202.94 19.5212 203.053 19.5858C203.165 19.6503 203.293 19.6837 203.422 19.6824L203.341 20.0225L200.342 20.4034C200.144 20.43 199.944 20.4437 199.744 20.4442C198.643 20.4442 198.092 19.9273 198.092 18.8935C198.096 18.52 198.153 18.149 198.262 17.7917C198.384 17.4041 198.5 17.0436 198.629 16.724C199.235 15.1896 200.017 13.7311 200.961 12.3781C201.905 10.9921 202.948 9.6761 204.082 8.44023L201.117 8.8891L200.764 4.66562C200.743 4.42559 200.668 4.19328 200.546 3.98551C200.398 3.76972 200.171 3.62076 199.914 3.57064V3.24419L203.368 2.56408C203.544 2.52509 203.724 2.50458 203.905 2.50287C204.53 2.50287 204.857 2.77491 204.884 3.319L205.013 7.45407L209.093 6.86237C208.463 7.61049 207.846 8.37448 207.243 9.15434C206.651 9.9194 206.097 10.7139 205.584 11.5347L208.637 10.7866C208.855 10.7322 209.059 10.6914 209.256 10.6574C209.459 10.6296 209.663 10.6159 209.868 10.6166C210.234 10.6166 210.592 10.7251 210.897 10.9284C211.202 11.1317 211.44 11.4208 211.581 11.7592C212.03 12.7454 212.306 13.8013 212.397 14.8809C212.507 15.9488 212.679 17.0093 212.914 18.057C213.104 18.8323 213.383 19.22 213.743 19.22C214.053 19.2122 214.361 19.1872 214.668 19.1452L215.742 18.9955C215.922 18.5635 216.257 18.2142 216.68 18.0162C217.146 17.786 217.643 17.6278 218.156 17.5469C218.635 17.4681 219.119 17.4249 219.604 17.4177C219.797 17.4078 219.989 17.4078 220.182 17.4177C220.372 17.4367 220.561 17.4708 220.746 17.5197C220.579 17.7703 220.446 18.0426 220.352 18.329C220.244 18.6048 220.185 18.8969 220.175 19.1928C220.178 19.5875 220.278 19.9754 220.468 20.3217C220.651 20.6817 220.906 21.0009 221.215 21.2603" fill="#03B5E1"/>
<path d="M237.99 9.76639C237.988 9.89556 237.953 10.0221 237.888 10.1336L233.394 18.5058C233.296 18.6588 233.24 18.8346 233.231 19.0159C233.224 19.1211 233.256 19.2251 233.322 19.3079C233.387 19.3907 233.48 19.4466 233.584 19.4648V19.9544L230.763 20.4169C230.549 20.4509 230.333 20.4669 230.117 20.4645C229.775 20.4716 229.436 20.3946 229.131 20.2401C228.989 20.1658 228.872 20.0514 228.794 19.9111C228.717 19.7708 228.683 19.6109 228.696 19.4511C228.699 19.2842 228.728 19.1189 228.784 18.9615C228.845 18.7982 228.906 18.6418 228.974 18.4922L233.462 9.65077H229.328L230.831 6.46105C230.961 6.1916 231.031 5.89671 231.034 5.59731C231.034 5.05323 230.892 4.72678 230.593 4.61796C230.114 4.49305 229.619 4.44032 229.124 4.46153C228.854 4.46763 228.585 4.49951 228.322 4.55675C228.349 4.70017 228.363 4.84595 228.362 4.99202C228.369 5.58683 228.18 6.16735 227.825 6.64468C227.463 7.14404 226.985 7.54782 226.432 7.82127C225.857 8.11556 225.221 8.26719 224.575 8.26334C224.332 8.25965 224.089 8.24376 223.848 8.21574C223.607 8.20175 223.374 8.12938 223.168 8.0049C223.42 7.675 223.647 7.32722 223.848 6.96433C224.059 6.62604 224.183 6.24036 224.208 5.84215C224.212 5.30029 224.043 4.77131 223.725 4.33231C224.465 4.07412 225.228 3.88737 226.003 3.77462C226.873 3.6454 227.751 3.55698 228.628 3.50258C229.505 3.44817 230.293 3.42096 230.98 3.42096C232.113 3.38673 233.245 3.52197 234.339 3.82223C235.168 4.09427 235.583 4.50234 235.583 4.99882C235.539 5.29199 235.449 5.57651 235.318 5.84215C235.141 6.26382 234.937 6.7263 234.706 7.20237C234.475 7.67845 234.257 8.15453 234.06 8.56259C233.863 8.97066 233.747 9.19509 233.693 9.28351H237.439C237.806 9.28351 237.997 9.44674 237.997 9.75959" fill="#03B5E1"/>
<path d="M260.914 12.8473C260.729 13.0354 260.492 13.1654 260.234 13.2214C259.887 13.3226 259.533 13.3954 259.174 13.439C258.896 13.4738 258.617 13.4943 258.337 13.5002C257.718 13.4959 257.105 13.3784 256.529 13.1534C256.248 13.0613 255.999 12.894 255.807 12.6698C255.615 12.4455 255.488 12.1728 255.441 11.8815L253.333 12.0176C253.286 12.5004 253.238 13.0445 253.184 13.6498C253.129 14.2551 253.075 14.8536 253.027 15.4385C252.98 16.0234 252.939 16.5471 252.912 16.996C252.885 17.4448 252.871 17.7645 252.871 17.9413C252.855 18.2336 252.88 18.5266 252.946 18.8119C253.014 19.0499 253.258 19.2131 253.673 19.3219V19.7572L252.232 19.8456C251.701 19.8796 251.212 19.9136 250.756 19.934C250.301 19.9544 249.968 19.934 249.757 19.934C249.281 19.934 248.982 19.8456 248.873 19.6688C248.738 19.3997 248.679 19.0985 248.703 18.7983C248.703 18.4242 248.703 17.8937 248.785 17.2204C248.866 16.5471 248.907 15.799 248.989 14.9897L249.233 12.5685C249.308 11.7659 249.376 11.0314 249.431 10.3717C249.485 9.712 249.505 9.20191 249.505 8.84826C249.501 8.58406 249.465 8.32136 249.397 8.06613C249.328 7.78381 249.195 7.52097 249.009 7.29761C248.916 7.18852 248.798 7.10235 248.666 7.04576C248.534 6.98916 248.391 6.96363 248.248 6.97116C247.92 6.96741 247.595 7.03905 247.299 7.18055C247.003 7.32205 246.744 7.52963 246.541 7.78729C246.03 8.44953 245.664 9.21189 245.467 10.0248C245.171 11.0438 244.978 12.0894 244.889 13.1466C244.773 14.3095 244.719 15.4997 244.719 16.7307C244.707 17.2705 244.745 17.8101 244.834 18.3426C244.884 18.6387 245.008 18.9173 245.195 19.1519C245.378 19.3442 245.586 19.5111 245.813 19.6484V19.9953L244.63 20.1993L243.339 20.3965C243.075 20.4384 242.81 20.4657 242.543 20.4781C242.362 20.4791 242.182 20.4586 242.006 20.4169C241.828 20.376 241.664 20.2892 241.53 20.1653C241.387 20.0082 241.27 19.8291 241.183 19.6348C241.025 19.2551 240.924 18.854 240.884 18.4446C240.782 17.644 240.739 16.8371 240.755 16.0302C240.761 14.8032 240.889 13.5799 241.136 12.378C241.387 11.1421 241.941 9.98779 242.747 9.01828C243.265 8.40869 243.854 7.86303 244.501 7.39282C245.144 6.88797 245.881 6.51788 246.67 6.30465L246.799 3.22375L245.861 3.31897L244.93 3.42098C244.765 3.94195 244.426 4.39074 243.971 4.69279C243.493 5.01794 242.958 5.24878 242.394 5.3729C241.828 5.49485 241.252 5.55866 240.673 5.56333H239.919C239.662 5.55418 239.405 5.53147 239.15 5.49532C239.446 5.26322 239.679 4.96188 239.83 4.61798C239.97 4.29354 240.041 3.9441 240.041 3.59101C240.054 3.25017 240.008 2.90968 239.905 2.58445C239.76 2.26324 239.541 1.98114 239.266 1.76152C239.686 1.52645 240.148 1.37408 240.626 1.31264C241.095 1.22395 241.57 1.17391 242.047 1.16302C242.62 1.14889 243.191 1.22696 243.74 1.39426C244.247 1.61068 244.665 1.99483 244.923 2.48243L248.744 2.05396L252.551 1.6663C252.76 1.21908 253.109 0.851623 253.544 0.618932C253.99 0.382967 254.473 0.224296 254.972 0.149656C255.448 0.058523 255.929 -0.000552749 256.413 -0.0271729C256.641 -0.0291942 256.868 -0.0132759 257.093 0.0204345C257.311 0.0204345 257.528 0.0884454 257.773 0.129252C257.654 0.323045 257.573 0.53771 257.535 0.761754C257.496 0.986331 257.478 1.21398 257.481 1.44186C257.474 1.77674 257.499 2.11152 257.555 2.44162C257.655 2.78015 257.857 3.07953 258.133 3.29856C257.67 3.47953 257.195 3.63171 256.712 3.75424C256.227 3.8843 255.726 3.95284 255.223 3.95827C254.681 3.97143 254.141 3.88142 253.632 3.69303C253.158 3.4746 252.786 3.08273 252.592 2.59805L251.722 2.69327L250.872 2.78848L250.668 6.06661C251.517 6.24007 252.279 6.70424 252.823 7.37922C253.29 8.04536 253.528 8.84463 253.503 9.65759C253.503 9.88883 253.503 10.1201 253.503 10.3377L253.442 11.0178L255.359 10.8818C255.533 10.573 255.771 10.3051 256.057 10.0963C256.344 9.8874 256.671 9.74245 257.018 9.67119C257.73 9.50854 258.457 9.42416 259.187 9.41955C259.415 9.42261 259.642 9.44079 259.867 9.47396C260.089 9.50198 260.306 9.55915 260.513 9.64399C260.377 9.87523 260.248 10.0929 260.139 10.3241C260.028 10.5336 259.97 10.767 259.969 11.0042C259.949 11.3541 260.027 11.7027 260.193 12.0108C260.41 12.3035 260.669 12.5625 260.962 12.7793" fill="#03B5E1"/>
<path d="M283.095 16.1866C282.817 16.329 282.515 16.4167 282.204 16.445C281.893 16.4884 281.58 16.5134 281.266 16.5198C280.478 16.5654 279.696 16.3503 279.043 15.9077C278.764 15.6684 278.547 15.3655 278.409 15.0246C278.272 14.6837 278.219 14.3148 278.254 13.949C277.503 13.9555 276.766 14.1596 276.119 14.5407C275.866 14.7801 275.664 15.0677 275.523 15.3866C275.383 15.7054 275.308 16.0491 275.303 16.3974C275.262 16.7442 275.242 17.0775 275.235 17.4243C275.228 17.7712 275.235 18.1045 275.235 18.4513L269.639 20.0972C268.77 20.353 267.867 20.4813 266.961 20.478C265.969 20.5086 264.994 20.2123 264.187 19.6347C263.813 19.3615 263.513 18.9997 263.314 18.5819C263.114 18.164 263.022 17.7032 263.044 17.2407C263.049 16.3999 263.284 15.5765 263.724 14.8603C264.181 14.0874 264.747 13.3842 265.404 12.7724C266.084 12.0923 266.825 11.4938 267.593 10.8953C268.361 10.2968 269.102 9.7187 269.789 9.16101C270.407 8.66463 270.97 8.10377 271.468 7.48795C271.879 7.02397 272.119 6.43374 272.148 5.81488C272.122 5.67148 272.066 5.53499 271.985 5.41361C271.952 5.34366 271.899 5.28538 271.832 5.2465C271.765 5.20763 271.688 5.19001 271.611 5.19598V4.7335L274.875 4.21662C275.145 4.18135 275.418 4.16544 275.691 4.16901C276.119 4.16901 276.371 4.31183 276.459 4.59748C276.541 4.8849 276.583 5.1826 276.581 5.48162C276.581 6.18577 276.363 6.87255 275.956 7.44714C275.492 8.10608 274.944 8.70068 274.324 9.21542C273.644 9.77992 272.964 10.3444 272.21 10.9089C271.455 11.4734 270.768 12.0651 270.102 12.6772C269.465 13.2492 268.915 13.9114 268.47 14.6427C268.049 15.3473 267.833 16.1549 267.845 16.9755C267.845 17.7984 268.11 18.3357 268.64 18.4785C269.335 18.6835 270.058 18.7754 270.782 18.7506C270.787 17.6646 271.124 16.6063 271.747 15.7173C272.35 14.9437 273.148 14.345 274.059 13.983C275.142 13.5425 276.271 13.2232 277.424 13.0308C278.213 12.888 279.009 12.7724 279.818 12.6908C280.627 12.6092 281.436 12.5208 282.231 12.4527C282.232 13.0969 282.279 13.7402 282.374 14.3775C282.467 15.0294 282.714 15.6496 283.095 16.1866Z" fill="#03B5E1"/>
<path d="M298.141 9.76637C298.137 9.89606 298.1 10.0225 298.033 10.1336L293.545 18.5058C293.457 18.6567 293.408 18.8274 293.403 19.0023C293.397 19.1062 293.429 19.2086 293.493 19.291C293.556 19.3733 293.647 19.4301 293.749 19.4511V19.9408L290.928 20.4033C290.716 20.4376 290.503 20.4535 290.289 20.4509C289.947 20.458 289.608 20.381 289.303 20.2265C289.16 20.1536 289.042 20.0395 288.964 19.8988C288.886 19.7582 288.853 19.5975 288.868 19.4375C288.87 19.2706 288.9 19.1052 288.956 18.9478C289.017 18.7846 289.078 18.6282 289.146 18.4786L293.634 9.63715H289.5L291.023 6.43383C291.153 6.16438 291.223 5.86949 291.227 5.57009C291.227 5.026 291.077 4.69955 290.785 4.59073C290.306 4.46582 289.811 4.4131 289.316 4.43431C289.044 4.44075 288.773 4.47262 288.507 4.52952C288.541 4.67216 288.557 4.81831 288.555 4.96479C288.561 5.55961 288.373 6.14013 288.018 6.61746C287.659 7.12676 287.18 7.54011 286.624 7.82125C286.049 8.11331 285.413 8.26481 284.768 8.26332C284.605 8.26332 284.36 8.26332 284.033 8.21572C283.793 8.20066 283.56 8.12838 283.354 8.00488C283.608 7.67677 283.835 7.3288 284.033 6.96431C284.245 6.62602 284.369 6.24034 284.394 5.84213C284.398 5.30027 284.229 4.77129 283.911 4.33229C284.651 4.0741 285.413 3.88735 286.189 3.7746C287.059 3.64538 287.936 3.55696 288.813 3.50256C289.69 3.44815 290.479 3.42094 291.159 3.42094C292.294 3.38633 293.429 3.52158 294.524 3.82221C295.354 4.09425 295.769 4.50232 295.769 4.9988C295.725 5.29197 295.635 5.57649 295.503 5.84213C295.327 6.2638 295.123 6.72628 294.892 7.20235C294.66 7.67843 294.443 8.15451 294.246 8.56257C294.048 8.97064 293.933 9.19507 293.878 9.28349H297.625C297.992 9.28349 298.182 9.44671 298.182 9.75956" fill="#03B5E1"/>
<path d="M314.375 20.0157L311.261 20.4237C311.079 20.4508 310.895 20.4645 310.71 20.4645C310.173 20.4645 309.833 20.3285 309.697 20.0497C309.551 19.7254 309.481 19.3716 309.493 19.0159C309.493 18.2474 309.493 17.4244 309.561 16.5471C309.629 15.6698 309.65 14.8332 309.691 14.0375C309.731 13.2418 309.758 12.5889 309.758 12.072C309.754 11.6175 309.726 11.1635 309.677 10.7118C309.624 10.1796 309.513 9.65493 309.344 9.1475C309.188 8.66594 308.915 8.23102 308.548 7.88249C308.148 7.5352 307.629 7.35715 307.1 7.38602C306.832 7.38405 306.565 7.41373 306.305 7.47443C306.052 7.53864 305.819 7.66224 305.625 7.83489C305.213 8.22355 304.924 8.72504 304.795 9.27672C304.59 9.97759 304.458 10.6978 304.401 11.4259C304.333 12.208 304.292 12.9493 304.285 13.6498C304.278 14.3503 304.285 14.9012 304.285 15.3093C304.285 15.8534 304.285 16.4111 304.285 16.9824C304.294 17.4803 304.328 17.9774 304.387 18.4718C304.4 18.7594 304.476 19.0407 304.612 19.2947C304.789 19.4998 305.027 19.6428 305.292 19.7028V20.0429L302.266 20.4509L301.946 20.4917C301.838 20.5018 301.729 20.5018 301.62 20.4917C301.367 20.4957 301.123 20.4005 300.94 20.2265C300.669 19.8616 300.515 19.4228 300.498 18.9683C300.423 18.3426 300.369 17.4244 300.342 16.2478C300.342 15.5451 300.342 14.7629 300.342 13.9015C300.364 13.0388 300.469 12.1802 300.655 11.3375C300.814 10.5549 301.139 9.81538 301.606 9.1679C302.045 8.59573 302.607 8.13063 303.252 7.80768C303.913 7.45577 304.594 7.1424 305.292 6.86913L303.687 4.67918C303.507 4.45007 303.35 4.20408 303.218 3.94466C303.152 3.79463 303.117 3.63259 303.116 3.46858C303.115 3.34541 303.152 3.22499 303.221 3.12306C303.291 3.02114 303.389 2.94245 303.503 2.89729C303.734 2.77819 303.986 2.70432 304.244 2.67965L308.059 2.3396L308.174 2.67965C308.056 2.80818 307.964 2.95827 307.902 3.12173C307.858 3.28573 307.838 3.45519 307.841 3.62501C307.844 3.8071 307.881 3.98708 307.95 4.15549C308.009 4.32632 308.093 4.48695 308.202 4.63157L309.561 6.37945C310.457 6.37899 311.336 6.62867 312.097 7.10037C312.682 7.5332 313.101 8.15201 313.287 8.85505C313.502 9.65782 313.604 10.4862 313.593 11.317C313.593 12.4188 313.593 13.5138 313.484 14.6156C313.376 15.7174 313.376 16.8191 313.376 17.9141C313.367 18.2642 313.403 18.614 313.484 18.9547C313.559 19.2267 313.852 19.4376 314.368 19.5872L314.375 20.0157Z" fill="#03B5E1"/>
<path d="M98.1513 3.89704C97.2534 4.16507 96.3212 4.30026 95.3841 4.29831C77.625 5.06003 70.2276 26.0958 62.7486 39.5348C53.5971 56.1431 46.4173 81.2867 24.8371 84.3064C17.5145 84.5989 10.1647 84.3744 0.917969 84.3744C5.67731 81.4704 12.388 74.9141 21.3967 62.6857C31.7789 48.8795 39.455 32.9105 47.3488 17.6013C52.788 7.63084 60.4165 2.46201 72.6549 1.8159C77.523 1.99273 79.1276 1.22421 98.1853 2.4212C98.1853 2.4212 99.8579 3.0265 98.1853 3.89704" fill="#233E90"/>
<path d="M69.6213 40.555C68.9414 39.6096 69.4445 39.46 72.5585 38.9635C74.8294 38.5963 101.482 33.8559 108.519 44.9757C117.215 56.5784 120.492 73.0438 133.777 81.4228C135.069 82.3545 135.593 83.1231 135.021 83.8712C134.586 84.2793 133.75 84.2588 133.165 84.2724C127.474 84.3881 121.75 84.7621 116.086 84.3609C89.8145 82.2049 95.9812 47.8186 71.4298 40.9971L69.6213 40.555Z" fill="#233E90"/>
<path d="M96.6962 24.8785C96.6962 26.9648 96.0777 29.0042 94.919 30.7389C93.7602 32.4736 92.1133 33.8256 90.1863 34.624C88.2594 35.4224 86.1391 35.6313 84.0935 35.2243C82.0479 34.8173 80.1689 33.8126 78.6941 32.3374C77.2193 30.8621 76.215 28.9826 75.8081 26.9364C75.4012 24.8902 75.61 22.7692 76.4082 20.8417C77.2063 18.9142 78.558 17.2668 80.2921 16.1077C82.0263 14.9486 84.0651 14.33 86.1508 14.33C88.9476 14.33 91.6299 15.4413 93.6075 17.4195C95.5851 19.3978 96.6962 22.0808 96.6962 24.8785Z" fill="#03B5E1"/>
</g>
</g>
<defs>
<clipPath id="clip0_1_5">
<rect width="379" height="114" fill="white"/>
</clipPath>
</defs>
</svg>
