<svg width="100" height="100" viewBox="0 0 100 100" fill="none" xmlns="http://www.w3.org/2000/svg">
<path d="M49.043 0.273117C48.0859 0.800461 48.0664 0.995773 48.0469 8.35905C48.0469 15.8395 48.0859 16.0934 49.1211 16.5622C50.1172 17.0114 51.2109 16.6989 51.6797 15.8005C52.0508 15.0778 52.0898 1.87468 51.7188 1.0739C51.2891 0.136398 50 -0.254227 49.043 0.273117Z" fill="black"/>
<path d="M12.07 15.1558C11.3278 15.5464 10.8786 16.4644 11.0349 17.2457C11.2302 18.1441 19.9411 26.855 20.8395 27.0503C22.1286 27.3042 23.4177 26.0347 23.1247 24.7457C23.027 24.2769 21.9138 23.0269 18.6716 19.7457C14.7653 15.8003 13.613 14.8238 12.8513 14.8433C12.7145 14.8628 12.363 14.98 12.07 15.1558Z" fill="black"/>
<path d="M86.2104 15.1559C85.8784 15.3122 83.6714 17.402 81.3081 19.7848C76.6792 24.4528 76.4448 24.7848 77.0503 25.9567C77.4995 26.8356 78.3979 27.2458 79.2768 26.9723C80.2925 26.6793 88.769 18.1442 88.9448 17.2458C89.1206 16.445 88.6714 15.5465 87.8901 15.1364C87.187 14.7653 86.9721 14.7653 86.2104 15.1559Z" fill="black"/>
<path d="M45.7227 22.8707C37.4414 23.7496 28.0078 27.7145 20.3516 33.5739C16.1914 36.7379 11.4258 41.3473 8.18359 45.3121C5.91797 48.0856 5.07812 49.3551 5.07812 49.9996C5.07812 51.484 11.5625 59.0035 16.6992 63.4371C21.1523 67.2848 25.1758 69.9996 29.9805 72.3629C39.7461 77.1871 49.4141 78.4762 59.3359 76.2496C66.543 74.6285 74.4336 70.6246 81.3477 65.0973C86.7383 60.7809 94.9219 51.6793 94.9219 49.9996C94.9219 48.32 86.7383 39.2184 81.3477 34.902C70.0391 25.8395 57.5781 21.6403 45.7227 22.8707ZM53.8086 26.7575C65.0195 28.0075 76.8359 34.57 86.0156 44.6285C88.8086 47.6754 90.4688 49.7653 90.3906 50.0778C90.2734 50.6246 86.7773 54.6481 84.082 57.3239C79.0625 62.3239 73.9258 66.0739 68.2617 68.8668C55.8789 74.9606 44.1211 74.9606 31.7383 68.8473C25.957 65.9957 20.9961 62.402 15.918 57.3239C12.8516 54.277 9.66797 50.5465 9.66797 49.9996C9.66797 49.4528 12.8516 45.7223 15.918 42.6754C20.9961 37.5973 25.9961 33.9645 31.7383 31.152C39.2578 27.441 46.6992 25.9762 53.8086 26.7575Z" fill="black"/>
<path d="M46.8548 32.7146C44.7454 33.1052 43.222 33.7302 42.8314 34.3162C42.304 35.1169 42.4408 36.1326 43.1829 36.7771C43.8861 37.4216 44.3744 37.4216 46.4837 36.8162C52.5775 35.0779 59.3548 38.1638 62.1868 43.9841C64.1595 48.0076 64.1595 51.9919 62.1868 56.0154C60.3118 59.8435 56.7376 62.5974 52.597 63.3982C49.5501 63.9841 46.8744 63.5935 43.9447 62.1677C42.4017 61.4255 41.8158 60.9958 40.4095 59.5896C39.0228 58.2029 38.5736 57.5974 37.8119 56.0544C36.5814 53.5544 36.2494 51.8162 36.4251 48.7302C36.5423 46.3669 36.5423 46.3669 36.0345 45.8591C35.0189 44.824 33.4369 45.1169 32.8704 46.4255C32.3431 47.5974 32.4212 52.324 32.9876 54.3943C34.7064 60.7224 39.6283 65.5271 46.0345 67.1287C48.0462 67.6365 52.3431 67.5779 54.3939 67.0115C60.5853 65.3513 65.3314 60.5857 67.0111 54.3943C67.3626 53.1247 67.4408 52.3044 67.4408 49.9997C67.4408 47.6951 67.3626 46.8748 67.0111 45.6052C65.3314 39.4138 60.5072 34.5896 54.3939 33.0076C52.3431 32.4607 48.8665 32.324 46.8548 32.7146Z" fill="black"/>
<path d="M37.324 38.5547C35.6248 39.4922 36.3474 42.1875 38.281 42.1875C39.2771 42.1875 40.2341 41.2305 40.2341 40.2539C40.2341 38.7891 38.613 37.832 37.324 38.5547Z" fill="black"/>
<path d="M48.1641 42.3823C46.9336 42.6948 45.1758 43.7495 44.3164 44.6675C43.8867 45.1362 43.2422 46.1128 42.9102 46.8354C42.3438 48.0269 42.2852 48.3198 42.2852 50.019C42.2852 51.7769 42.3242 51.9526 43.0078 53.3589C43.8867 55.1362 45.0195 56.23 46.8359 57.0894C48.0273 57.6558 48.3203 57.7144 50 57.7144C51.6797 57.7144 51.9727 57.6558 53.1641 57.0894C54.9805 56.23 56.1133 55.1362 56.9922 53.3589C57.6758 51.9526 57.7148 51.7769 57.7148 49.9995C57.7148 48.2222 57.6758 48.0464 56.9922 46.6401C55.6641 43.9839 53.3203 42.4019 50.4297 42.2651C49.6094 42.2261 48.5938 42.2847 48.1641 42.3823ZM52.1484 46.7573C53.3008 47.519 53.8086 48.4956 53.8086 49.9995C53.8086 51.5229 53.3008 52.48 52.0898 53.2808C50.9961 54.0034 49.1016 54.0425 47.9883 53.3394C46.5039 52.4214 45.8203 50.605 46.2695 48.8667C46.543 47.8706 47.7344 46.5815 48.6719 46.3081C49.707 45.9956 51.3086 46.1909 52.1484 46.7573Z" fill="black"/>
<path d="M20.3901 75.1168C20.0581 75.2731 17.851 77.3629 15.4878 79.7458C10.8589 84.4137 10.6245 84.7458 11.23 85.9176C11.6792 86.7965 12.5776 87.2067 13.4565 86.9333C14.4721 86.6403 22.9487 78.1051 23.1245 77.2067C23.3003 76.4059 22.851 75.5075 22.0698 75.0973C21.3667 74.7262 21.1518 74.7262 20.3901 75.1168Z" fill="black"/>
<path d="M77.8903 75.1167C77.1481 75.5074 76.6989 76.4253 76.8552 77.2066C77.0505 78.105 85.7614 86.816 86.6599 87.0113C87.9489 87.2652 89.238 85.9957 88.945 84.7066C88.8474 84.2378 87.7341 82.9878 84.4919 79.7066C80.5856 75.7613 79.4333 74.7847 78.6716 74.8042C78.5349 74.8238 78.1833 74.941 77.8903 75.1167Z" fill="black"/>
<path d="M49.043 83.4762C48.0859 84.0036 48.0664 84.1989 48.0469 91.5622C48.0469 99.0426 48.0859 99.2966 49.1211 99.7653C50.1172 100.215 51.2109 99.902 51.6797 99.0036C52.0508 98.2809 52.0898 85.0778 51.7188 84.277C51.2891 83.3395 50 82.9489 49.043 83.4762Z" fill="black"/>
</svg>
