<svg width="108" height="108" viewBox="0 0 108 108" fill="none" xmlns="http://www.w3.org/2000/svg">
<g clip-path="url(#clip0_3_7)" filter="url(#filter0_dd_3_7)">
<mask id="mask0_3_7" style="mask-type:luminance" maskUnits="userSpaceOnUse" x="4" y="0" width="100" height="100">
<path d="M104 0H4V100H104V0Z" fill="white"/>
</mask>
<g mask="url(#mask0_3_7)">
<path d="M40.6992 0.195312C40.5234 0.292969 38.6094 2.71484 36.4414 5.54687L32.4961 10.7031L28.2578 12.207C25.9336 13.0273 23.1016 14.0234 21.9883 14.3945C20.1914 15.0195 19.9375 15.1757 19.7227 15.7031C19.5469 16.1132 19.4297 18.3007 19.332 22.6562L19.1953 28.9843L15.6406 34.1797C13.668 37.0312 11.9687 39.5507 11.832 39.7851C11.6953 40.0586 11.6758 40.3711 11.793 40.664C11.8906 40.9179 13.5898 43.4961 15.6016 46.3867L19.2344 51.6601V53.6328C19.2344 54.707 19.293 56.5234 19.3516 57.6367L19.4688 59.6679L11.7344 73.0468C7.47656 80.3906 4 86.6211 4 86.8554C4 87.6367 4.66406 88.0859 5.77734 88.0859C6.8125 88.0859 15.582 87.5781 17.5352 87.4023L18.6484 87.3047L21.6758 93.3398C25.1133 100.235 25.4844 100.684 26.7344 99.5507C26.9883 99.3164 29.8594 94.5117 33.1016 88.8672C36.3633 83.2226 39.0391 78.5937 39.0586 78.5547C39.0977 78.5156 39.4102 78.9062 39.7617 79.414C40.1328 79.9023 40.6406 80.3906 40.875 80.4882C41.2266 80.625 42.7891 80.2343 47.6914 78.7695L54.0391 76.8945L60.3477 78.789C65.2305 80.2343 66.7539 80.625 67.125 80.4882C67.3594 80.3906 67.8672 79.9023 68.2383 79.414C68.5898 78.9062 68.9023 78.5156 68.9414 78.5547C68.9609 78.5937 71.6367 83.2226 74.8984 88.8672C78.1406 94.5117 81.0117 99.3164 81.2656 99.5507C81.8906 100.117 82.418 100.117 82.9844 99.5507C83.2188 99.3164 84.7617 96.4453 86.4023 93.2031L89.3711 87.3047L90.3867 87.4023C91.8711 87.5586 101.148 88.0859 102.262 88.0859C103.336 88.0859 104 87.6172 104 86.8554C104 86.6211 100.523 80.3906 96.2656 73.0468L88.5312 59.6679L88.6484 57.6367C88.707 56.5234 88.7656 54.707 88.7656 53.6328V51.6601L92.3984 46.3867C94.4102 43.4961 96.1094 40.9375 96.1875 40.7226C96.2656 40.5078 96.2656 40.1367 96.168 39.8828C96.0703 39.6484 94.3711 37.0898 92.3984 34.2187L88.8047 28.9843L88.668 22.6562C88.5703 18.3203 88.4531 16.1132 88.2773 15.7031C88.043 15.1367 87.7695 15.0195 81.7734 12.9101L75.4844 10.6836L71.5391 5.52734C69.3711 2.67578 67.3984 0.253906 67.1445 0.136719C66.7539 -0.0390625 65.6016 0.253906 60.3477 1.8164L54.0195 3.71094L47.8086 1.85547C44.3906 0.839844 41.4609 0 41.3047 0C41.1484 0 40.875 0.0976563 40.6992 0.195312ZM47.9844 4.78515C51.0508 5.70312 53.7852 6.44531 54.0391 6.44531C54.2734 6.44531 57.0859 5.66406 60.25 4.70703C63.4141 3.75 66.0703 3.00781 66.1484 3.0664C66.2266 3.10547 67.9453 5.3125 69.957 7.94922C71.9688 10.5859 73.7852 12.8515 74.0195 12.9882C74.2344 13.125 76.9688 14.1406 80.0938 15.2343L85.7773 17.2265L85.9531 23.5937L86.1289 29.9804L89.6836 35.1367C91.6953 38.0273 93.1992 40.3711 93.1211 40.5078C93.043 40.625 91.4219 42.9882 89.5273 45.7422L86.0703 50.7617L85.9336 57.0312L85.7969 63.3203L85.1719 63.5742C84.8398 63.7109 82.2422 64.6289 79.3906 65.625C76.5391 66.6211 74.0195 67.6172 73.7852 67.832C73.5508 68.0468 71.7539 70.3125 69.8008 72.8711C67.8477 75.4492 66.1289 77.539 65.9922 77.539C65.8555 77.539 64.4492 77.1484 62.8477 76.6797C61.2656 76.1914 58.6094 75.4101 56.9688 74.9218L54 74.0234L48.1406 75.7812C44.918 76.7578 42.1641 77.539 42.0273 77.539C41.8711 77.539 40.1523 75.4101 38.1602 72.8125C36.1875 70.2148 34.4102 67.9492 34.2344 67.7929C34.0586 67.6172 32.0859 66.8359 29.8398 66.0547C27.6133 65.2734 24.9961 64.3554 24.0195 64.0039L22.2617 63.3789L22.0664 57.0312L21.8711 50.6836L18.4531 45.7031C16.5586 42.9687 14.957 40.625 14.8789 40.5078C14.8008 40.3711 16.3047 38.0273 18.3164 35.1367L21.8711 29.9804L22.0469 23.5937L22.2227 17.2265L27.9062 15.2343C31.0312 14.1406 33.7656 13.125 33.9805 12.9882C34.1953 12.8515 35.9141 10.7422 37.7695 8.28125C41.6758 3.14453 41.8516 2.92969 42.1641 3.02734C42.2812 3.08594 44.8984 3.86719 47.9844 4.78515ZM19.9961 65.3125C20.1719 65.4687 21.1094 65.8789 22.0664 66.2304C23.043 66.5625 23.9414 66.8945 24.0781 66.9726C24.2344 67.0703 22.7891 69.7461 19.1953 75.9765L14.0586 84.8632L11.0312 85.0586C9.37109 85.1757 7.96484 85.2539 7.94531 85.2148C7.84766 85.1757 19.4688 65.039 19.5859 65.039C19.6445 65.039 19.8398 65.1757 19.9961 65.3125ZM94.0586 74.6484C97.1055 79.9218 99.7227 84.4531 99.8789 84.7265L100.133 85.2148L97.1445 85.0781C95.2695 84.9804 94.0586 84.8437 93.9219 84.707C93.7266 84.5117 83.6875 67.207 83.6875 67.0703C83.6875 67.0507 84.6055 66.6992 85.7383 66.3086C86.8516 65.8984 87.8867 65.4492 88.0039 65.3125C88.1211 65.1562 88.2969 65.039 88.3555 65.039C88.4336 65.039 90.9922 69.3554 94.0586 74.6484ZM29.5469 68.8672C30.7383 69.2773 31.7344 69.6875 31.7344 69.7656C31.7344 69.8828 22.7695 85.4882 22.0078 86.6992L21.7148 87.1875L21.168 86.0742C20.4844 84.7265 20.0938 84.5117 18.6094 84.6093C17.8086 84.6679 17.4766 84.6289 17.5156 84.4726C17.6719 83.8672 26.9688 67.9882 27.1445 68.0273C27.2617 68.0664 28.3359 68.4375 29.5469 68.8672ZM85.7383 76.1132C88.3164 80.5859 90.4453 84.3359 90.4844 84.4726C90.5234 84.6289 90.1914 84.6679 89.3906 84.6093C87.9062 84.5117 87.5156 84.7265 86.832 86.0742L86.2852 87.1875L85.9922 86.6992C85.2109 85.4882 76.2656 69.8828 76.2656 69.7656C76.2656 69.6484 80.5625 68.0273 80.9531 67.9882C81.0117 67.9882 83.1602 71.6406 85.7383 76.1132ZM35.543 73.8672C36.3828 74.9804 37.0859 76.0156 37.0859 76.1718C37.1055 76.3281 34.6055 80.8007 31.5391 86.0937L25.9922 95.7226L24.5859 92.9297C23.3555 90.4882 23.1992 90.0781 23.4141 89.7461C23.5508 89.5312 25.9336 85.4297 28.707 80.6054C31.4805 75.8007 33.8047 71.875 33.8828 71.875C33.9609 71.875 34.7031 72.7734 35.543 73.8672ZM79.293 80.6054C82.0664 85.4297 84.4492 89.5312 84.5859 89.7461C84.8008 90.0781 84.6445 90.4882 83.4141 92.9297L82.0078 95.7226L76.4609 86.0937C73.3945 80.8007 70.8945 76.3281 70.9141 76.1718C70.9336 75.8593 73.9023 71.875 74.1172 71.875C74.1953 71.875 76.5195 75.8007 79.293 80.6054Z" fill="black"/>
<path d="M49.5083 12.207C38.1412 14.082 29.0591 22.5 26.3638 33.6523C24.8208 40 25.5044 46.4844 28.3365 52.5195C32.0865 60.5078 39.4693 66.2695 48.3951 68.2031C51.2662 68.8086 56.7349 68.8086 59.606 68.2031C67.0474 66.6016 73.4537 62.3242 77.5357 56.2305C83.3365 47.5781 84.0201 36.7773 79.3716 27.4805C76.7154 22.2266 71.9888 17.5 66.6372 14.8242C64.8794 13.9258 61.8326 12.8711 59.6646 12.4023C57.6138 11.9531 51.7154 11.8359 49.5083 12.207ZM58.3169 14.9609C63.4341 15.8398 67.9458 18.125 71.774 21.7969C75.6802 25.5664 78.063 29.9023 79.2349 35.4492C79.8208 38.2227 79.8013 42.4805 79.2154 45.3125C75.7583 61.7578 58.1021 70.6641 43.0826 63.5547C36.6568 60.5078 31.6372 54.8047 29.5083 48.1055C27.9263 43.0469 27.9263 37.4023 29.5279 32.4219C30.2115 30.2734 31.7154 27.2852 33.1021 25.3516C34.4693 23.418 37.2622 20.6445 39.1958 19.2578C42.0083 17.2656 46.0904 15.5859 49.606 14.9609C51.774 14.5703 56.0513 14.5703 58.3169 14.9609Z" fill="black"/>
<path d="M49.6056 18.5548C45.0158 19.5509 40.7189 21.9337 37.7892 25.1564C30.3869 33.2228 29.8205 45.1564 36.4025 53.8087C39.0392 57.2657 42.7697 59.922 46.9299 61.3282C59.6056 65.5665 73.1017 57.754 75.758 44.629C77.3791 36.5821 74.3127 28.1446 67.8283 22.9689C65.7384 21.2892 62.1838 19.5118 59.5666 18.8282C56.8322 18.1056 52.2033 17.9884 49.6056 18.5548ZM57.1252 21.0939C63.2189 22.0509 68.59 26.0353 71.383 31.6993C72.8478 34.6681 73.3752 36.9337 73.3752 40.3321C73.3752 42.6564 73.297 43.3595 72.8674 45.0196C71.8322 49.0235 69.3127 52.9493 66.2267 55.4103C64.2736 56.9728 60.9338 58.6329 58.6877 59.1798C49.8009 61.3478 40.5822 57.0704 36.6174 48.9259C34.3908 44.3751 33.9611 39.6485 35.3478 34.8829C37.7306 26.6407 45.1916 20.9767 53.7072 20.9181C54.8986 20.8985 56.422 20.9962 57.1252 21.0939Z" fill="black"/>
<path d="M47.8469 30.9375C45.5812 31.5039 43.8234 32.8906 42.7883 34.9805C41.968 36.6016 41.7531 38.0469 42.0851 39.707C42.5148 41.9531 42.964 42.5195 48.2961 47.8906C52.9836 52.6172 53.3351 52.9297 53.9992 52.9297C54.6633 52.9297 55.0148 52.6172 59.7219 47.8906C65.093 42.4805 65.4445 42.0117 65.9523 39.5703C66.5383 36.6016 64.839 33.1641 62.0656 31.6797C59.7805 30.4688 57.3195 30.4297 55.0148 31.5625L53.9601 32.0898L53.2375 31.6797C52.3195 31.1719 50.425 30.6641 49.507 30.6836C49.1359 30.6836 48.3937 30.8008 47.8469 30.9375ZM50.9719 33.6719C51.4797 33.8281 52.2609 34.2383 52.6906 34.5898C53.6867 35.4102 54.2726 35.3906 55.4055 34.5312C57.4172 32.9883 59.9562 33.1055 61.7726 34.8438C63.1789 36.1523 63.6281 37.8711 63.0812 39.7656C62.7687 40.8789 62.5734 41.0938 58.3742 45.3125L53.9992 49.707L49.6242 45.3125C45.425 41.0938 45.2297 40.8789 44.9172 39.7656C44.3703 37.9297 44.7414 36.3867 46.0695 35C47.3976 33.5742 49.1164 33.125 50.9719 33.6719Z" fill="black"/>
</g>
</g>
<defs>
<filter id="filter0_dd_3_7" x="0" y="0" width="108" height="108" filterUnits="userSpaceOnUse" color-interpolation-filters="sRGB">
<feFlood flood-opacity="0" result="BackgroundImageFix"/>
<feColorMatrix in="SourceAlpha" type="matrix" values="0 0 0 0 0 0 0 0 0 0 0 0 0 0 0 0 0 0 127 0" result="hardAlpha"/>
<feOffset dy="4"/>
<feGaussianBlur stdDeviation="2"/>
<feComposite in2="hardAlpha" operator="out"/>
<feColorMatrix type="matrix" values="0 0 0 0 0 0 0 0 0 0 0 0 0 0 0 0 0 0 0.25 0"/>
<feBlend mode="normal" in2="BackgroundImageFix" result="effect1_dropShadow_3_7"/>
<feColorMatrix in="SourceAlpha" type="matrix" values="0 0 0 0 0 0 0 0 0 0 0 0 0 0 0 0 0 0 127 0" result="hardAlpha"/>
<feOffset dy="4"/>
<feGaussianBlur stdDeviation="2"/>
<feComposite in2="hardAlpha" operator="out"/>
<feColorMatrix type="matrix" values="0 0 0 0 0 0 0 0 0 0 0 0 0 0 0 0 0 0 0.25 0"/>
<feBlend mode="normal" in2="effect1_dropShadow_3_7" result="effect2_dropShadow_3_7"/>
<feBlend mode="normal" in="SourceGraphic" in2="effect2_dropShadow_3_7" result="shape"/>
</filter>
<clipPath id="clip0_3_7">
<rect width="100" height="100" fill="white" transform="translate(4)"/>
</clipPath>
</defs>
</svg>
