<svg width="1920" height="500" viewBox="0 0 1920 500" fill="none" xmlns="http://www.w3.org/2000/svg">
<g clip-path="url(#clip0_7_40)">
<path opacity="0.8" d="M1920 0H0V500H1920V0Z" fill="url(#paint0_linear_7_40)"/>
<path d="M1386.07 321L1378.51 296.357H1378.31C1378.59 301.37 1378.72 304.715 1378.72 306.391V321H1372.77V289.59H1381.84L1389.27 313.609H1389.4L1397.29 289.59H1406.35V321H1400.14V306.133C1400.14 305.431 1400.15 304.622 1400.16 303.705C1400.19 302.788 1400.29 300.354 1400.46 296.4H1400.27L1392.17 321H1386.07ZM1429.02 321L1427.75 317.734H1427.58C1426.48 319.124 1425.34 320.09 1424.16 320.635C1423 321.165 1421.48 321.43 1419.61 321.43C1417.3 321.43 1415.48 320.771 1414.15 319.453C1412.83 318.135 1412.17 316.259 1412.17 313.824C1412.17 311.275 1413.06 309.398 1414.84 308.195C1416.63 306.978 1419.32 306.305 1422.92 306.176L1427.08 306.047V304.994C1427.08 302.559 1425.84 301.342 1423.35 301.342C1421.43 301.342 1419.17 301.922 1416.58 303.082L1414.41 298.656C1417.17 297.21 1420.24 296.486 1423.6 296.486C1426.83 296.486 1429.3 297.188 1431.02 298.592C1432.73 299.995 1433.59 302.13 1433.59 304.994V321H1429.02ZM1427.08 309.871L1424.55 309.957C1422.64 310.014 1421.23 310.358 1420.29 310.988C1419.36 311.618 1418.9 312.578 1418.9 313.867C1418.9 315.715 1419.96 316.639 1422.08 316.639C1423.6 316.639 1424.81 316.202 1425.71 315.328C1426.63 314.454 1427.08 313.294 1427.08 311.848V309.871ZM1445.28 308.732L1437.55 296.98H1444.98L1449.64 304.629L1454.35 296.98H1461.78L1453.96 308.732L1462.15 321H1454.69L1449.64 312.771L1444.57 321H1437.14L1445.28 308.732ZM1465.52 290.771C1465.52 288.637 1466.71 287.57 1469.09 287.57C1471.46 287.57 1472.65 288.637 1472.65 290.771C1472.65 291.788 1472.35 292.583 1471.75 293.156C1471.16 293.715 1470.27 293.994 1469.09 293.994C1466.71 293.994 1465.52 292.92 1465.52 290.771ZM1472.35 321H1465.8V296.98H1472.35V321ZM1500.75 321H1494.2V306.971C1494.2 305.238 1493.91 303.941 1493.32 303.082C1492.75 302.208 1491.84 301.771 1490.59 301.771C1488.92 301.771 1487.7 302.387 1486.94 303.619C1486.18 304.851 1485.8 306.878 1485.8 309.699V321H1479.25V296.98H1484.25L1485.13 300.053H1485.5C1486.14 298.95 1487.08 298.09 1488.29 297.475C1489.51 296.844 1490.91 296.529 1492.48 296.529C1496.08 296.529 1498.51 297.704 1499.79 300.053H1500.37C1501.01 298.936 1501.96 298.069 1503.2 297.453C1504.46 296.837 1505.88 296.529 1507.46 296.529C1510.18 296.529 1512.23 297.231 1513.62 298.635C1515.03 300.024 1515.73 302.258 1515.73 305.338V321H1509.15V306.971C1509.15 305.238 1508.86 303.941 1508.27 303.082C1507.7 302.208 1506.79 301.771 1505.54 301.771C1503.94 301.771 1502.74 302.344 1501.94 303.49C1501.15 304.636 1500.75 306.455 1500.75 308.947V321ZM1539.49 321L1538.61 317.928H1538.27C1537.56 319.045 1536.57 319.911 1535.28 320.527C1533.99 321.129 1532.52 321.43 1530.88 321.43C1528.05 321.43 1525.93 320.678 1524.49 319.174C1523.06 317.656 1522.35 315.479 1522.35 312.643V296.98H1528.9V311.01C1528.9 312.743 1529.21 314.046 1529.82 314.92C1530.44 315.779 1531.42 316.209 1532.77 316.209C1534.6 316.209 1535.92 315.6 1536.74 314.383C1537.56 313.151 1537.96 311.117 1537.96 308.281V296.98H1544.52V321H1539.49ZM1572.9 321H1566.35V306.971C1566.35 305.238 1566.05 303.941 1565.46 303.082C1564.89 302.208 1563.98 301.771 1562.74 301.771C1561.06 301.771 1559.84 302.387 1559.08 303.619C1558.32 304.851 1557.95 306.878 1557.95 309.699V321H1551.39V296.98H1556.4L1557.28 300.053H1557.64C1558.29 298.95 1559.22 298.09 1560.44 297.475C1561.65 296.844 1563.05 296.529 1564.63 296.529C1568.22 296.529 1570.66 297.704 1571.93 300.053H1572.51C1573.16 298.936 1574.1 298.069 1575.35 297.453C1576.61 296.837 1578.03 296.529 1579.6 296.529C1582.32 296.529 1584.38 297.231 1585.77 298.635C1587.17 300.024 1587.87 302.258 1587.87 305.338V321H1581.3V306.971C1581.3 305.238 1581.01 303.941 1580.42 303.082C1579.85 302.208 1578.94 301.771 1577.69 301.771C1576.09 301.771 1574.88 302.344 1574.08 303.49C1573.29 304.636 1572.9 306.455 1572.9 308.947V321ZM1367.43 345.503C1365.07 345.503 1363.21 346.289 1361.85 347.861C1360.49 349.424 1359.81 351.567 1359.81 354.292C1359.81 357.095 1360.46 359.263 1361.77 360.796C1363.09 362.319 1364.97 363.081 1367.4 363.081C1368.89 363.081 1370.6 362.812 1372.51 362.275V364.458C1371.03 365.015 1369.19 365.293 1367.02 365.293C1363.86 365.293 1361.43 364.336 1359.71 362.422C1358 360.508 1357.14 357.788 1357.14 354.263C1357.14 352.056 1357.55 350.122 1358.37 348.462C1359.2 346.802 1360.4 345.522 1361.95 344.624C1363.51 343.726 1365.35 343.276 1367.46 343.276C1369.7 343.276 1371.67 343.687 1373.34 344.507L1372.29 346.646C1370.67 345.884 1369.05 345.503 1367.43 345.503ZM1379.25 365H1376.82V342.207H1379.25V365ZM1386.84 365H1384.4V348.945H1386.84V365ZM1384.2 344.595C1384.2 344.038 1384.34 343.633 1384.61 343.379C1384.88 343.115 1385.22 342.983 1385.63 342.983C1386.03 342.983 1386.36 343.115 1386.65 343.379C1386.93 343.643 1387.07 344.048 1387.07 344.595C1387.07 345.142 1386.93 345.552 1386.65 345.825C1386.36 346.089 1386.03 346.221 1385.63 346.221C1385.22 346.221 1384.88 346.089 1384.61 345.825C1384.34 345.552 1384.2 345.142 1384.2 344.595ZM1398.77 365.293C1396.4 365.293 1394.53 364.57 1393.15 363.125C1391.78 361.68 1391.1 359.673 1391.1 357.104C1391.1 354.517 1391.73 352.461 1393 350.938C1394.28 349.414 1396 348.652 1398.14 348.652C1400.16 348.652 1401.75 349.316 1402.92 350.645C1404.09 351.963 1404.68 353.706 1404.68 355.874V357.412H1393.62C1393.67 359.297 1394.14 360.728 1395.04 361.704C1395.95 362.681 1397.22 363.169 1398.86 363.169C1400.59 363.169 1402.3 362.808 1403.99 362.085V364.253C1403.13 364.624 1402.31 364.888 1401.54 365.044C1400.78 365.21 1399.86 365.293 1398.77 365.293ZM1398.12 350.688C1396.83 350.688 1395.8 351.108 1395.02 351.948C1394.26 352.788 1393.81 353.95 1393.68 355.435H1402.07C1402.07 353.901 1401.73 352.729 1401.04 351.919C1400.36 351.099 1399.38 350.688 1398.12 350.688ZM1419.82 365V354.614C1419.82 353.306 1419.53 352.329 1418.93 351.685C1418.33 351.04 1417.4 350.718 1416.13 350.718C1414.45 350.718 1413.22 351.172 1412.44 352.08C1411.66 352.988 1411.27 354.487 1411.27 356.577V365H1408.84V348.945H1410.82L1411.21 351.143H1411.33C1411.83 350.352 1412.52 349.741 1413.42 349.312C1414.32 348.872 1415.32 348.652 1416.43 348.652C1418.36 348.652 1419.81 349.121 1420.79 350.059C1421.77 350.986 1422.26 352.476 1422.26 354.526V365H1419.82ZM1432.45 363.286C1432.88 363.286 1433.3 363.257 1433.7 363.198C1434.1 363.13 1434.41 363.062 1434.65 362.993V364.854C1434.38 364.98 1433.99 365.083 1433.48 365.161C1432.97 365.249 1432.51 365.293 1432.1 365.293C1428.99 365.293 1427.44 363.657 1427.44 360.386V350.835H1425.14V349.663L1427.44 348.652L1428.47 345.225H1429.87V348.945H1434.53V350.835H1429.87V360.283C1429.87 361.25 1430.1 361.992 1430.56 362.51C1431.02 363.027 1431.65 363.286 1432.45 363.286ZM1458.12 359.302C1458.12 361.187 1457.43 362.656 1456.06 363.711C1454.7 364.766 1452.84 365.293 1450.5 365.293C1447.96 365.293 1446.01 364.966 1444.64 364.312V361.909C1445.52 362.28 1446.47 362.573 1447.51 362.788C1448.54 363.003 1449.57 363.11 1450.59 363.11C1452.25 363.11 1453.5 362.798 1454.34 362.173C1455.18 361.538 1455.6 360.659 1455.6 359.536C1455.6 358.794 1455.44 358.188 1455.14 357.72C1454.85 357.241 1454.35 356.802 1453.65 356.401C1452.95 356.001 1451.89 355.547 1450.47 355.039C1448.48 354.326 1447.05 353.481 1446.19 352.505C1445.34 351.528 1444.92 350.254 1444.92 348.682C1444.92 347.031 1445.54 345.718 1446.78 344.741C1448.02 343.765 1449.66 343.276 1451.7 343.276C1453.83 343.276 1455.79 343.667 1457.57 344.448L1456.8 346.616C1455.03 345.874 1453.31 345.503 1451.64 345.503C1450.32 345.503 1449.29 345.786 1448.55 346.353C1447.81 346.919 1447.44 347.705 1447.44 348.711C1447.44 349.453 1447.57 350.063 1447.85 350.542C1448.12 351.011 1448.58 351.445 1449.22 351.846C1449.88 352.236 1450.87 352.671 1452.21 353.149C1454.46 353.95 1456 354.81 1456.84 355.728C1457.69 356.646 1458.12 357.837 1458.12 359.302ZM1472 365L1471.52 362.715H1471.4C1470.6 363.721 1469.8 364.404 1469 364.766C1468.21 365.117 1467.22 365.293 1466.03 365.293C1464.43 365.293 1463.18 364.883 1462.28 364.062C1461.38 363.242 1460.93 362.075 1460.93 360.562C1460.93 357.319 1463.52 355.62 1468.71 355.464L1471.43 355.376V354.38C1471.43 353.12 1471.16 352.192 1470.61 351.597C1470.07 350.991 1469.21 350.688 1468.02 350.688C1466.68 350.688 1465.17 351.099 1463.48 351.919L1462.73 350.059C1463.52 349.629 1464.38 349.292 1465.32 349.048C1466.27 348.804 1467.22 348.682 1468.16 348.682C1470.08 348.682 1471.49 349.106 1472.41 349.956C1473.34 350.806 1473.8 352.168 1473.8 354.043V365H1472ZM1466.51 363.286C1468.02 363.286 1469.21 362.871 1470.07 362.041C1470.94 361.211 1471.37 360.049 1471.37 358.555V357.104L1468.94 357.207C1467.01 357.275 1465.61 357.578 1464.75 358.115C1463.9 358.643 1463.48 359.468 1463.48 360.591C1463.48 361.47 1463.74 362.139 1464.27 362.598C1464.8 363.057 1465.55 363.286 1466.51 363.286ZM1484.01 363.286C1484.44 363.286 1484.86 363.257 1485.26 363.198C1485.66 363.13 1485.98 363.062 1486.21 362.993V364.854C1485.95 364.98 1485.56 365.083 1485.04 365.161C1484.53 365.249 1484.07 365.293 1483.66 365.293C1480.56 365.293 1479 363.657 1479 360.386V350.835H1476.7V349.663L1479 348.652L1480.03 345.225H1481.44V348.945H1486.09V350.835H1481.44V360.283C1481.44 361.25 1481.67 361.992 1482.12 362.51C1482.58 363.027 1483.21 363.286 1484.01 363.286ZM1491.87 365H1489.43V348.945H1491.87V365ZM1489.23 344.595C1489.23 344.038 1489.37 343.633 1489.64 343.379C1489.91 343.115 1490.25 342.983 1490.66 342.983C1491.05 342.983 1491.39 343.115 1491.67 343.379C1491.96 343.643 1492.1 344.048 1492.1 344.595C1492.1 345.142 1491.96 345.552 1491.67 345.825C1491.39 346.089 1491.05 346.221 1490.66 346.221C1490.25 346.221 1489.91 346.089 1489.64 345.825C1489.37 345.552 1489.23 345.142 1489.23 344.595ZM1507.38 360.62C1507.38 362.114 1506.82 363.267 1505.71 364.077C1504.59 364.888 1503.03 365.293 1501.02 365.293C1498.89 365.293 1497.23 364.956 1496.04 364.282V362.026C1496.81 362.417 1497.64 362.725 1498.52 362.949C1499.4 363.174 1500.26 363.286 1501.08 363.286C1502.35 363.286 1503.33 363.086 1504.01 362.686C1504.69 362.275 1505.03 361.655 1505.03 360.825C1505.03 360.2 1504.76 359.668 1504.21 359.229C1503.68 358.779 1502.62 358.252 1501.05 357.646C1499.56 357.09 1498.49 356.606 1497.86 356.196C1497.23 355.776 1496.76 355.303 1496.45 354.775C1496.15 354.248 1496 353.618 1496 352.886C1496 351.577 1496.53 350.547 1497.59 349.795C1498.66 349.033 1500.12 348.652 1501.97 348.652C1503.7 348.652 1505.39 349.004 1507.04 349.707L1506.18 351.685C1504.57 351.021 1503.11 350.688 1501.8 350.688C1500.64 350.688 1499.78 350.869 1499.19 351.23C1498.6 351.592 1498.31 352.09 1498.31 352.725C1498.31 353.154 1498.42 353.521 1498.63 353.823C1498.86 354.126 1499.21 354.414 1499.7 354.688C1500.19 354.961 1501.13 355.356 1502.51 355.874C1504.42 356.567 1505.7 357.266 1506.37 357.969C1507.04 358.672 1507.38 359.556 1507.38 360.62ZM1518.58 350.835H1514.5V365H1512.07V350.835H1509.19V349.736L1512.07 348.857V347.964C1512.07 344.019 1513.79 342.046 1517.24 342.046C1518.09 342.046 1519.08 342.217 1520.22 342.559L1519.59 344.507C1518.66 344.204 1517.86 344.053 1517.19 344.053C1516.27 344.053 1515.6 344.36 1515.16 344.976C1514.72 345.581 1514.5 346.558 1514.5 347.905V348.945H1518.58V350.835ZM1531.39 365L1530.9 362.715H1530.79C1529.99 363.721 1529.18 364.404 1528.38 364.766C1527.59 365.117 1526.6 365.293 1525.41 365.293C1523.82 365.293 1522.57 364.883 1521.66 364.062C1520.76 363.242 1520.31 362.075 1520.31 360.562C1520.31 357.319 1522.91 355.62 1528.09 355.464L1530.82 355.376V354.38C1530.82 353.12 1530.54 352.192 1530 351.597C1529.46 350.991 1528.59 350.688 1527.4 350.688C1526.06 350.688 1524.55 351.099 1522.86 351.919L1522.11 350.059C1522.91 349.629 1523.77 349.292 1524.71 349.048C1525.65 348.804 1526.6 348.682 1527.55 348.682C1529.46 348.682 1530.88 349.106 1531.8 349.956C1532.72 350.806 1533.19 352.168 1533.19 354.043V365H1531.39ZM1525.89 363.286C1527.41 363.286 1528.59 362.871 1529.45 362.041C1530.32 361.211 1530.76 360.049 1530.76 358.555V357.104L1528.33 357.207C1526.39 357.275 1525 357.578 1524.14 358.115C1523.29 358.643 1522.86 359.468 1522.86 360.591C1522.86 361.47 1523.12 362.139 1523.65 362.598C1524.19 363.057 1524.94 363.286 1525.89 363.286ZM1544.63 365.293C1542.3 365.293 1540.5 364.58 1539.22 363.154C1537.95 361.719 1537.32 359.692 1537.32 357.075C1537.32 354.39 1537.96 352.314 1539.25 350.85C1540.55 349.385 1542.4 348.652 1544.79 348.652C1545.56 348.652 1546.33 348.735 1547.1 348.901C1547.88 349.067 1548.48 349.263 1548.92 349.487L1548.17 351.553C1547.64 351.338 1547.05 351.162 1546.42 351.025C1545.78 350.879 1545.22 350.806 1544.73 350.806C1541.47 350.806 1539.84 352.886 1539.84 357.046C1539.84 359.019 1540.23 360.532 1541.03 361.587C1541.83 362.642 1543.01 363.169 1544.57 363.169C1545.91 363.169 1547.28 362.881 1548.69 362.305V364.458C1547.61 365.015 1546.26 365.293 1544.63 365.293ZM1557.7 363.286C1558.12 363.286 1558.54 363.257 1558.94 363.198C1559.34 363.13 1559.66 363.062 1559.89 362.993V364.854C1559.63 364.98 1559.24 365.083 1558.72 365.161C1558.21 365.249 1557.75 365.293 1557.34 365.293C1554.24 365.293 1552.69 363.657 1552.69 360.386V350.835H1550.39V349.663L1552.69 348.652L1553.71 345.225H1555.12V348.945H1559.78V350.835H1555.12V360.283C1555.12 361.25 1555.35 361.992 1555.81 362.51C1556.26 363.027 1556.89 363.286 1557.7 363.286ZM1565.55 365H1563.12V348.945H1565.55V365ZM1562.91 344.595C1562.91 344.038 1563.05 343.633 1563.32 343.379C1563.59 343.115 1563.94 342.983 1564.35 342.983C1564.74 342.983 1565.07 343.115 1565.36 343.379C1565.64 343.643 1565.78 344.048 1565.78 344.595C1565.78 345.142 1565.64 345.552 1565.36 345.825C1565.07 346.089 1564.74 346.221 1564.35 346.221C1563.94 346.221 1563.59 346.089 1563.32 345.825C1563.05 345.552 1562.91 345.142 1562.91 344.595ZM1584.56 356.958C1584.56 359.575 1583.9 361.621 1582.58 363.096C1581.26 364.561 1579.44 365.293 1577.12 365.293C1575.68 365.293 1574.41 364.956 1573.3 364.282C1572.18 363.608 1571.32 362.642 1570.72 361.382C1570.11 360.122 1569.81 358.647 1569.81 356.958C1569.81 354.341 1570.46 352.305 1571.77 350.85C1573.08 349.385 1574.9 348.652 1577.22 348.652C1579.47 348.652 1581.25 349.399 1582.57 350.894C1583.9 352.388 1584.56 354.409 1584.56 356.958ZM1572.33 356.958C1572.33 359.009 1572.74 360.571 1573.56 361.646C1574.38 362.72 1575.59 363.257 1577.18 363.257C1578.77 363.257 1579.98 362.725 1580.8 361.66C1581.63 360.586 1582.04 359.019 1582.04 356.958C1582.04 354.917 1581.63 353.369 1580.8 352.314C1579.98 351.25 1578.76 350.718 1577.15 350.718C1575.56 350.718 1574.36 351.24 1573.54 352.285C1572.73 353.33 1572.33 354.888 1572.33 356.958ZM1599.82 365V354.614C1599.82 353.306 1599.53 352.329 1598.93 351.685C1598.33 351.04 1597.4 350.718 1596.13 350.718C1594.45 350.718 1593.22 351.172 1592.44 352.08C1591.66 352.988 1591.27 354.487 1591.27 356.577V365H1588.84V348.945H1590.82L1591.21 351.143H1591.33C1591.83 350.352 1592.52 349.741 1593.42 349.312C1594.32 348.872 1595.32 348.652 1596.43 348.652C1598.36 348.652 1599.81 349.121 1600.79 350.059C1601.77 350.986 1602.26 352.476 1602.26 354.526V365H1599.82Z" fill="white"/>
<mask id="mask0_7_40" style="mask-type:luminance" maskUnits="userSpaceOnUse" x="1425" y="124" width="110" height="110">
<path d="M1535 124H1425V234H1535V124Z" fill="white"/>
</mask>
<g mask="url(#mask0_7_40)">
<path d="M1488.16 124.236C1484.15 124.687 1477.83 126.449 1477.42 127.244C1477.03 127.953 1477.25 128.963 1477.89 129.436L1478.47 129.865L1481.01 129.092C1485.76 127.631 1489.62 127.094 1494.07 127.287C1510.89 128.082 1525.27 139.877 1529.09 156.076C1529.89 159.471 1530.12 162.07 1529.99 166.066C1529.76 174.338 1527.14 181.578 1522 188.131C1520.48 190.064 1517.04 193.48 1515.19 194.877C1513.45 196.187 1512.98 197.025 1512.98 198.766C1512.98 200.076 1513.04 200.291 1514.05 201.881C1515.64 204.459 1517.98 207.445 1520 209.572C1521.08 210.668 1521.68 211.441 1521.46 211.441C1520.82 211.441 1515.99 210.174 1513.64 209.4C1512.33 208.971 1510.33 208.197 1509.15 207.682C1506.79 206.629 1502.99 204.588 1502.99 204.352C1502.99 204.266 1503.52 203.084 1504.17 201.752C1511.58 186.326 1508.7 168.258 1496.82 155.797C1491.21 149.91 1483.82 145.828 1475.51 144.023C1472.97 143.486 1472.46 143.443 1467.26 143.443C1464.23 143.443 1461.74 143.4 1461.74 143.336C1461.74 143.271 1462.4 142.412 1463.2 141.402C1465.2 138.932 1468.59 135.73 1470.95 134.119C1472.03 133.389 1473.04 132.594 1473.23 132.314C1473.83 131.434 1473.51 130.445 1472.46 130.037C1471.73 129.779 1470.93 130.145 1468.76 131.713C1464.44 134.85 1460.86 138.674 1458.06 143.078L1457.12 144.539L1455.49 145.012C1451.94 146 1447.24 148.342 1443.65 150.855C1441.33 152.51 1437.55 156.055 1435.7 158.353C1430.91 164.305 1427.88 171.502 1426.91 179.279C1426.59 181.922 1426.76 188.518 1427.23 190.988C1429.08 200.978 1433.85 209.121 1441.58 215.566C1442.87 216.641 1443.91 217.672 1443.91 217.865C1443.91 218.918 1440.25 223.859 1437.01 227.189C1434.75 229.51 1434.47 230.047 1434.75 231.529C1434.95 232.539 1436.15 233.721 1437.16 233.914C1438.64 234.193 1445.41 232.496 1449.99 230.691C1453.1 229.488 1456.34 227.855 1459.14 226.094L1461.39 224.697L1467.09 224.654C1472.44 224.654 1472.97 224.611 1475.51 224.074C1478.19 223.494 1481.52 222.42 1483.76 221.432C1485.2 220.809 1485.58 220.1 1485.07 219.025C1484.55 217.93 1483.95 217.93 1481.42 218.918C1478.65 220.035 1474.93 221.002 1472.18 221.324C1470.91 221.475 1468.08 221.539 1465.28 221.496L1460.51 221.432L1459.35 222.162C1452.05 226.76 1447.45 228.693 1439.87 230.348L1438.1 230.734L1440.06 228.672C1442.27 226.33 1444.72 223.172 1446.08 220.895C1447.82 217.951 1447.39 215.975 1444.51 213.805C1437.59 208.562 1432.56 200.441 1430.54 191.225C1430.11 189.27 1430.07 188.389 1430.07 184.049C1430.07 178.463 1430.33 176.766 1431.87 172.103C1436.69 157.666 1449.96 147.439 1465.02 146.58C1471.96 146.193 1478.3 147.461 1484.15 150.404C1506.27 161.533 1511.9 190.258 1495.62 208.885C1494.16 210.561 1493.04 211.592 1489.69 214.406C1488.57 215.352 1488.33 215.953 1488.81 216.812C1489.11 217.393 1490.1 217.672 1490.81 217.371C1492.55 216.641 1497.49 211.936 1499.89 208.756L1501.1 207.145L1502.64 208.025C1507.78 210.947 1513.92 213.203 1520.02 214.449C1521.92 214.814 1522.47 214.857 1523.08 214.664C1524 214.363 1525.05 213.16 1525.22 212.215C1525.5 210.775 1525.2 210.238 1522.45 207.381C1519.98 204.781 1518.28 202.633 1516.74 200.119C1515.86 198.701 1515.96 198.293 1517.42 197.154C1525.4 191.053 1530.59 182.545 1532.7 172.232C1533.11 170.17 1533.17 169.225 1533.17 164.713C1533.15 159.922 1533.11 159.363 1532.57 156.764C1530.25 145.871 1524.41 137.148 1515.34 131.047C1507.33 125.633 1497.51 123.184 1488.16 124.236Z" fill="white"/>
<path d="M1451.98 165.938C1448.1 166.453 1444.79 169.955 1444.4 173.908C1444.29 175.219 1444.31 175.348 1444.83 175.863C1445.15 176.186 1445.62 176.422 1445.95 176.422C1446.76 176.422 1447.56 175.52 1447.56 174.617C1447.56 172.619 1449.19 170.256 1451.15 169.439C1452.37 168.924 1454.35 168.967 1455.68 169.547C1457.63 170.385 1459.16 172.662 1459.16 174.746C1459.16 175.52 1460.02 176.422 1460.77 176.422C1461.57 176.422 1462.38 175.52 1462.38 174.66C1462.38 173.672 1461.85 171.652 1461.29 170.578C1460.66 169.332 1458.94 167.57 1457.72 166.904C1456.02 166.002 1454 165.658 1451.98 165.938Z" fill="white"/>
<path d="M1480.17 165.916C1476.54 166.41 1473.53 169.332 1472.78 173.07C1472.39 174.961 1472.57 175.777 1473.47 176.185C1474.22 176.508 1474.5 176.486 1475.1 175.992C1475.51 175.691 1475.68 175.304 1475.77 174.467C1476.15 171.244 1478.52 169.053 1481.61 169.074C1483.22 169.095 1484.17 169.461 1485.37 170.535C1486.51 171.566 1487.09 172.705 1487.33 174.359C1487.58 176.314 1488.68 176.98 1489.97 175.97C1490.44 175.605 1490.53 175.369 1490.53 174.488C1490.53 172.232 1489.11 169.31 1487.35 167.892C1485.33 166.26 1482.79 165.572 1480.17 165.916Z" fill="white"/>
<path d="M1444.23 189.635C1442.12 190.688 1441.5 192.643 1442.47 195.07C1444.25 199.453 1448.07 204.029 1452.28 206.801C1455.25 208.777 1459.05 210.26 1462.68 210.904C1465.13 211.312 1469.73 211.312 1472.18 210.904C1481.05 209.357 1488.27 203.9 1492.07 195.844C1493.08 193.674 1493.15 192.492 1492.35 191.117C1492.05 190.623 1491.45 189.979 1491.02 189.699L1490.2 189.205L1467.75 189.141L1445.3 189.098L1444.23 189.635ZM1489.54 192.814C1489.73 193.115 1489.58 193.566 1488.74 195.199C1485.86 200.871 1481.03 204.953 1474.95 206.908C1472.18 207.811 1469.94 208.068 1466.4 207.939C1464.06 207.875 1462.85 207.703 1461.2 207.273C1458.62 206.607 1454.88 204.803 1452.93 203.32C1451.08 201.924 1448.61 199.303 1447.47 197.52C1446.4 195.844 1445.19 193.545 1445.19 193.115C1445.19 192.32 1445.07 192.32 1467.49 192.363C1488.08 192.428 1489.3 192.449 1489.54 192.814Z" fill="white"/>
</g>
<path d="M332.418 300.934C335.454 300.934 337.868 301.786 339.658 303.49C341.463 305.195 342.365 307.529 342.365 310.494C342.365 314.003 341.284 316.703 339.121 318.594C336.958 320.484 333.865 321.43 329.84 321.43C326.345 321.43 323.523 320.864 321.375 319.732V313.996C322.507 314.598 323.824 315.092 325.328 315.479C326.832 315.851 328.257 316.037 329.604 316.037C333.657 316.037 335.684 314.376 335.684 311.053C335.684 307.887 333.585 306.305 329.389 306.305C328.63 306.305 327.792 306.383 326.875 306.541C325.958 306.684 325.214 306.842 324.641 307.014L321.998 305.596L323.18 289.59H340.217V295.219H329.002L328.422 301.385L329.174 301.234C330.048 301.034 331.129 300.934 332.418 300.934ZM367.91 305.295C367.91 310.781 367.008 314.841 365.203 317.477C363.413 320.112 360.648 321.43 356.91 321.43C353.286 321.43 350.551 320.069 348.703 317.348C346.87 314.626 345.953 310.609 345.953 305.295C345.953 299.752 346.848 295.67 348.639 293.049C350.429 290.413 353.186 289.096 356.91 289.096C360.534 289.096 363.27 290.471 365.117 293.221C366.979 295.971 367.91 299.995 367.91 305.295ZM352.549 305.295C352.549 309.148 352.878 311.912 353.537 313.588C354.21 315.249 355.335 316.08 356.91 316.08C358.457 316.08 359.574 315.235 360.262 313.545C360.949 311.855 361.293 309.105 361.293 305.295C361.293 301.442 360.942 298.678 360.24 297.002C359.553 295.312 358.443 294.467 356.91 294.467C355.349 294.467 354.232 295.312 353.559 297.002C352.885 298.678 352.549 301.442 352.549 305.295ZM393.047 305.295C393.047 310.781 392.145 314.841 390.34 317.477C388.549 320.112 385.785 321.43 382.047 321.43C378.423 321.43 375.688 320.069 373.84 317.348C372.007 314.626 371.09 310.609 371.09 305.295C371.09 299.752 371.985 295.67 373.775 293.049C375.566 290.413 378.323 289.096 382.047 289.096C385.671 289.096 388.406 290.471 390.254 293.221C392.116 295.971 393.047 299.995 393.047 305.295ZM377.686 305.295C377.686 309.148 378.015 311.912 378.674 313.588C379.347 315.249 380.471 316.08 382.047 316.08C383.594 316.08 384.711 315.235 385.398 313.545C386.086 311.855 386.43 309.105 386.43 305.295C386.43 301.442 386.079 298.678 385.377 297.002C384.689 295.312 383.579 294.467 382.047 294.467C380.486 294.467 379.368 295.312 378.695 297.002C378.022 298.678 377.686 301.442 377.686 305.295ZM404.842 307.852H396.527V303.146H404.842V294.768H409.547V303.146H417.861V307.852H409.547V316.123H404.842V307.852ZM338.094 365L335.428 358.188H326.844L324.207 365H321.688L330.154 343.496H332.249L340.672 365H338.094ZM334.651 355.947L332.161 349.312C331.839 348.472 331.507 347.441 331.165 346.221C330.95 347.158 330.643 348.188 330.242 349.312L327.723 355.947H334.651ZM356.39 348.945V350.483L353.416 350.835C353.689 351.177 353.934 351.626 354.148 352.183C354.363 352.729 354.471 353.35 354.471 354.043C354.471 355.615 353.934 356.87 352.859 357.808C351.785 358.745 350.311 359.214 348.436 359.214C347.957 359.214 347.508 359.175 347.088 359.097C346.053 359.644 345.535 360.332 345.535 361.162C345.535 361.602 345.716 361.929 346.077 362.144C346.438 362.349 347.059 362.451 347.938 362.451H350.779C352.518 362.451 353.851 362.817 354.778 363.55C355.716 364.282 356.185 365.347 356.185 366.743C356.185 368.521 355.472 369.873 354.046 370.801C352.62 371.738 350.54 372.207 347.806 372.207C345.706 372.207 344.085 371.816 342.942 371.035C341.81 370.254 341.243 369.15 341.243 367.725C341.243 366.748 341.556 365.903 342.181 365.19C342.806 364.478 343.685 363.994 344.817 363.74C344.407 363.555 344.061 363.267 343.777 362.876C343.504 362.485 343.367 362.031 343.367 361.514C343.367 360.928 343.523 360.415 343.836 359.976C344.148 359.536 344.642 359.111 345.315 358.701C344.485 358.359 343.807 357.778 343.279 356.958C342.762 356.138 342.503 355.2 342.503 354.146C342.503 352.388 343.03 351.035 344.085 350.088C345.14 349.131 346.634 348.652 348.567 348.652C349.407 348.652 350.164 348.75 350.838 348.945H356.39ZM343.587 367.695C343.587 368.564 343.953 369.224 344.686 369.673C345.418 370.122 346.468 370.347 347.835 370.347C349.876 370.347 351.385 370.039 352.361 369.424C353.348 368.818 353.841 367.993 353.841 366.948C353.841 366.079 353.572 365.474 353.035 365.132C352.498 364.8 351.487 364.634 350.003 364.634H347.088C345.984 364.634 345.125 364.897 344.51 365.425C343.895 365.952 343.587 366.709 343.587 367.695ZM344.905 354.087C344.905 355.21 345.223 356.06 345.857 356.636C346.492 357.212 347.376 357.5 348.509 357.5C350.882 357.5 352.068 356.348 352.068 354.043C352.068 351.631 350.867 350.425 348.465 350.425C347.322 350.425 346.443 350.732 345.828 351.348C345.213 351.963 344.905 352.876 344.905 354.087ZM366.468 365.293C364.095 365.293 362.22 364.57 360.843 363.125C359.476 361.68 358.792 359.673 358.792 357.104C358.792 354.517 359.427 352.461 360.696 350.938C361.976 349.414 363.689 348.652 365.838 348.652C367.85 348.652 369.441 349.316 370.613 350.645C371.785 351.963 372.371 353.706 372.371 355.874V357.412H361.312C361.36 359.297 361.834 360.728 362.732 361.704C363.641 362.681 364.915 363.169 366.556 363.169C368.284 363.169 369.993 362.808 371.683 362.085V364.253C370.823 364.624 370.008 364.888 369.236 365.044C368.475 365.21 367.552 365.293 366.468 365.293ZM365.809 350.688C364.52 350.688 363.489 351.108 362.718 351.948C361.956 352.788 361.507 353.95 361.37 355.435H369.764C369.764 353.901 369.422 352.729 368.738 351.919C368.055 351.099 367.078 350.688 365.809 350.688ZM387.518 365V354.614C387.518 353.306 387.22 352.329 386.624 351.685C386.028 351.04 385.096 350.718 383.826 350.718C382.146 350.718 380.916 351.172 380.135 352.08C379.354 352.988 378.963 354.487 378.963 356.577V365H376.531V348.945H378.509L378.904 351.143H379.021C379.52 350.352 380.218 349.741 381.116 349.312C382.015 348.872 383.016 348.652 384.119 348.652C386.053 348.652 387.508 349.121 388.484 350.059C389.461 350.986 389.949 352.476 389.949 354.526V365H387.518ZM400.145 363.286C400.574 363.286 400.989 363.257 401.39 363.198C401.79 363.13 402.107 363.062 402.342 362.993V364.854C402.078 364.98 401.688 365.083 401.17 365.161C400.662 365.249 400.203 365.293 399.793 365.293C396.688 365.293 395.135 363.657 395.135 360.386V350.835H392.835V349.663L395.135 348.652L396.16 345.225H397.566V348.945H402.225V350.835H397.566V360.283C397.566 361.25 397.796 361.992 398.255 362.51C398.714 363.027 399.344 363.286 400.145 363.286ZM415.921 360.62C415.921 362.114 415.364 363.267 414.251 364.077C413.138 364.888 411.575 365.293 409.563 365.293C407.435 365.293 405.774 364.956 404.583 364.282V362.026C405.354 362.417 406.18 362.725 407.059 362.949C407.947 363.174 408.802 363.286 409.622 363.286C410.892 363.286 411.868 363.086 412.552 362.686C413.235 362.275 413.577 361.655 413.577 360.825C413.577 360.2 413.304 359.668 412.757 359.229C412.22 358.779 411.165 358.252 409.593 357.646C408.099 357.09 407.034 356.606 406.399 356.196C405.774 355.776 405.306 355.303 404.993 354.775C404.69 354.248 404.539 353.618 404.539 352.886C404.539 351.577 405.071 350.547 406.136 349.795C407.2 349.033 408.66 348.652 410.516 348.652C412.244 348.652 413.934 349.004 415.584 349.707L414.72 351.685C413.108 351.021 411.648 350.688 410.34 350.688C409.188 350.688 408.318 350.869 407.732 351.23C407.146 351.592 406.854 352.09 406.854 352.725C406.854 353.154 406.961 353.521 407.176 353.823C407.4 354.126 407.757 354.414 408.245 354.688C408.733 354.961 409.671 355.356 411.058 355.874C412.962 356.567 414.246 357.266 414.91 357.969C415.584 358.672 415.921 359.556 415.921 360.62Z" fill="white"/>
<path d="M360.246 124.236C352.984 125.332 346.303 129.973 343.123 136.139C342.457 137.406 342.328 137.535 341.426 137.75C338.826 138.416 336.549 140.328 335.346 142.863L334.658 144.303V159.664V175.025L335.281 176.379C336.441 178.871 338.998 180.783 341.813 181.256L342.715 181.406V182.502C342.736 191.977 348.15 201.387 356.186 205.92L357.775 206.822L357.689 208.434C357.582 210.475 356.723 212.408 355.197 213.955C353.199 215.975 351.416 216.684 347.656 216.92C344.928 217.092 343.123 217.436 340.781 218.316C336.592 219.82 332.725 222.85 330.232 226.523C328.965 228.371 327.59 231.357 327.59 232.238C327.59 233.527 329.094 234.408 330.254 233.785C330.469 233.656 331.135 232.582 331.736 231.357C333.025 228.693 334.508 226.695 336.377 225.105C339.75 222.248 342.887 221.023 348.064 220.572C351.566 220.25 353.178 219.842 354.896 218.832L355.842 218.295L357.174 219.498C362.674 224.525 369.055 225.986 375.801 223.773C376.682 223.494 377.734 223.064 378.121 222.828C379.367 222.055 379.561 220.766 378.529 219.82C377.928 219.24 377.197 219.326 374.619 220.271C372.814 220.937 372.492 220.98 370 221.002C367.809 221.002 367.035 220.916 365.811 220.529C363.813 219.885 361.385 218.424 359.838 216.963L358.613 215.76L359.451 214.449C360.375 213.031 361.105 211.076 361.32 209.443C361.449 208.519 361.514 208.412 361.922 208.541C363.426 208.992 366.541 209.529 368.324 209.637L370.408 209.787L371.053 209.121C371.869 208.326 371.934 207.424 371.225 206.672C370.773 206.199 370.494 206.113 368.518 205.984C362.609 205.576 357.238 203.105 353.135 198.873C350.02 195.672 348 191.955 346.969 187.551C346.518 185.639 346.496 185.08 346.475 174.51V163.445L348.021 163.187C352.146 162.5 355.691 159.32 356.916 155.195C357.066 154.701 357.217 154.293 357.281 154.293C357.324 154.293 358.162 154.766 359.129 155.346C363.275 157.838 369.85 160.803 374.426 162.199C379.604 163.811 385.275 164.928 386.393 164.541C387.273 164.24 387.768 163.123 387.402 162.242C387.252 161.877 386.951 161.49 386.736 161.383C386.521 161.254 385.018 160.932 383.385 160.631C378.723 159.771 373.824 158.332 369.527 156.549C366.09 155.109 360.332 151.973 357.711 150.082C356.4 149.158 355.82 149.008 355.004 149.437C354.252 149.824 354.188 149.975 353.887 152.144C353.457 155.195 351.76 157.816 349.439 158.955C348.451 159.428 347.85 159.557 346.002 159.643C343.875 159.771 343.725 159.814 343.23 160.373L342.715 160.975V169.353V177.711L342.135 177.582C340.523 177.195 339.213 176.164 338.611 174.811C338.246 174.016 338.203 173.027 338.203 159.664V145.377L338.719 144.303C338.998 143.701 339.492 142.971 339.836 142.648C340.631 141.896 342.199 141.187 343.08 141.187C344.455 141.187 344.777 140.887 345.916 138.674C348.752 133.152 353.113 129.693 359.215 128.125C360.504 127.803 361.986 127.76 372.9 127.76C384.867 127.76 385.189 127.781 386.822 128.232C393.568 130.144 398.596 134.936 400.68 141.402C401.518 144.023 401.582 145.033 401.582 156.592V167.828H399.326H397.07V165.658C397.07 163.553 397.049 163.488 396.447 162.865C395.652 162.07 394.686 162.027 393.955 162.758L393.461 163.252L393.354 174.617C393.289 184.156 393.203 186.197 392.924 187.271C392.408 189.184 392.451 190 393.117 190.623C393.633 191.117 393.826 191.139 396.984 191.225C399.412 191.268 400.293 191.353 400.293 191.547C400.293 191.697 399.992 192.428 399.627 193.137C398.338 195.715 395.846 197.498 392.945 197.906C392.193 198.014 387.338 198.121 382.117 198.121H372.643L372.191 198.615C371.59 199.26 371.547 200.527 372.127 201.107C372.363 201.344 372.879 201.602 373.287 201.666C373.674 201.752 378.486 201.773 383.986 201.709C394.75 201.623 394.879 201.602 397.307 200.398C400.809 198.637 403.172 195.564 404.031 191.611C404.139 191.117 404.268 191.031 404.912 191.031C406.051 191.031 407.877 190.258 408.93 189.312C409.467 188.861 410.219 187.873 410.627 187.121L411.357 185.768L411.422 180.031C411.486 175.348 411.443 174.059 411.164 173.135C410.477 170.771 408.65 168.859 406.373 168.15L405.234 167.785V156.377C405.213 144.088 405.148 143.207 404.074 139.963C403.408 138.008 402.441 136.01 401.26 134.205C400.143 132.508 396.898 129.242 395.158 128.082C393.16 126.75 390.066 125.353 387.682 124.687L385.576 124.129L373.545 124.086C366.928 124.064 360.934 124.129 360.246 124.236ZM406.008 172.018C406.609 172.361 407.061 172.855 407.361 173.478C407.77 174.338 407.813 174.768 407.813 179.387C407.813 185.123 407.684 185.703 406.244 186.756L405.385 187.379H400.98H396.598L396.748 186.777C396.813 186.455 396.941 182.889 397.006 178.828L397.113 171.48H401.109C404.955 171.48 405.127 171.502 406.008 172.018Z" fill="white"/>
<path d="M381.258 211.656C380.699 211.871 380.098 212.687 380.098 213.225C380.098 214.471 382.697 217.457 384.867 218.703C386.908 219.863 388.326 220.25 391.936 220.572C394.578 220.809 395.738 221.002 397.307 221.539C402.248 223.193 405.9 226.459 408.264 231.336C408.865 232.561 409.531 233.656 409.746 233.785C410.906 234.408 412.41 233.527 412.41 232.238C412.41 231.357 411.035 228.371 409.768 226.523C407.275 222.85 403.408 219.82 399.219 218.316C396.855 217.436 395.072 217.092 392.344 216.92C388.326 216.684 385.812 215.545 384.072 213.16C382.869 211.527 382.311 211.227 381.258 211.656Z" fill="white"/>
<path d="M646.529 321L658.324 295.219H642.834V289.633H665.371V293.801L653.49 321H646.529ZM679.98 300.934C683.017 300.934 685.43 301.786 687.221 303.49C689.025 305.195 689.928 307.529 689.928 310.494C689.928 314.003 688.846 316.703 686.684 318.594C684.521 320.484 681.427 321.43 677.402 321.43C673.908 321.43 671.086 320.864 668.938 319.732V313.996C670.069 314.598 671.387 315.092 672.891 315.479C674.395 315.851 675.82 316.037 677.166 316.037C681.219 316.037 683.246 314.376 683.246 311.053C683.246 307.887 681.148 306.305 676.951 306.305C676.192 306.305 675.354 306.383 674.438 306.541C673.521 306.684 672.776 306.842 672.203 307.014L669.561 305.596L670.742 289.59H687.779V295.219H676.564L675.984 301.385L676.736 301.234C677.61 301.034 678.691 300.934 679.98 300.934ZM701.658 307.938L704.516 304.285L711.24 296.98H718.631L709.092 307.4L719.211 321H711.648L704.73 311.268L701.916 313.523V321H695.363V287.57H701.916V302.48L701.572 307.938H701.658ZM729.416 307.852H721.102V303.146H729.416V294.768H734.121V303.146H742.436V307.852H734.121V316.123H729.416V307.852ZM580.485 343.584H583.166L575.446 365H572.985L565.31 343.584H567.946L572.868 357.441C573.435 359.033 573.884 360.581 574.216 362.085C574.567 360.503 575.026 358.926 575.593 357.354L580.485 343.584ZM595.632 365L595.148 362.715H595.031C594.23 363.721 593.43 364.404 592.629 364.766C591.838 365.117 590.847 365.293 589.655 365.293C588.063 365.293 586.813 364.883 585.905 364.062C585.007 363.242 584.558 362.075 584.558 360.562C584.558 357.319 587.15 355.62 592.336 355.464L595.061 355.376V354.38C595.061 353.12 594.787 352.192 594.24 351.597C593.703 350.991 592.839 350.688 591.647 350.688C590.31 350.688 588.796 351.099 587.106 351.919L586.359 350.059C587.15 349.629 588.015 349.292 588.952 349.048C589.899 348.804 590.847 348.682 591.794 348.682C593.708 348.682 595.124 349.106 596.042 349.956C596.97 350.806 597.434 352.168 597.434 354.043V365H595.632ZM590.139 363.286C591.652 363.286 592.839 362.871 593.698 362.041C594.567 361.211 595.002 360.049 595.002 358.555V357.104L592.57 357.207C590.637 357.275 589.24 357.578 588.381 358.115C587.531 358.643 587.106 359.468 587.106 360.591C587.106 361.47 587.37 362.139 587.897 362.598C588.435 363.057 589.182 363.286 590.139 363.286ZM604.89 365H602.458V342.207H604.89V365ZM612.331 348.945V359.36C612.331 360.669 612.629 361.646 613.225 362.29C613.82 362.935 614.753 363.257 616.022 363.257C617.702 363.257 618.928 362.798 619.699 361.88C620.48 360.962 620.871 359.463 620.871 357.383V348.945H623.303V365H621.296L620.944 362.847H620.812C620.314 363.638 619.621 364.243 618.732 364.663C617.854 365.083 616.848 365.293 615.715 365.293C613.762 365.293 612.297 364.829 611.32 363.901C610.354 362.974 609.87 361.489 609.87 359.448V348.945H612.331ZM635.256 365.293C632.883 365.293 631.008 364.57 629.631 363.125C628.264 361.68 627.58 359.673 627.58 357.104C627.58 354.517 628.215 352.461 629.484 350.938C630.764 349.414 632.478 348.652 634.626 348.652C636.638 348.652 638.229 349.316 639.401 350.645C640.573 351.963 641.159 353.706 641.159 355.874V357.412H630.1C630.148 359.297 630.622 360.728 631.521 361.704C632.429 362.681 633.703 363.169 635.344 363.169C637.072 363.169 638.781 362.808 640.471 362.085V364.253C639.611 364.624 638.796 364.888 638.024 365.044C637.263 365.21 636.34 365.293 635.256 365.293ZM634.597 350.688C633.308 350.688 632.277 351.108 631.506 351.948C630.744 352.788 630.295 353.95 630.158 355.435H638.552C638.552 353.901 638.21 352.729 637.526 351.919C636.843 351.099 635.866 350.688 634.597 350.688ZM656.247 362.847H656.115C654.992 364.478 653.312 365.293 651.076 365.293C648.977 365.293 647.341 364.575 646.169 363.14C645.007 361.704 644.426 359.663 644.426 357.017C644.426 354.37 645.012 352.314 646.184 350.85C647.355 349.385 648.986 348.652 651.076 348.652C653.254 348.652 654.924 349.443 656.086 351.025H656.276L656.174 349.868L656.115 348.74V342.207H658.547V365H656.569L656.247 362.847ZM651.384 363.257C653.044 363.257 654.245 362.808 654.987 361.909C655.739 361.001 656.115 359.541 656.115 357.529V357.017C656.115 354.741 655.734 353.12 654.973 352.153C654.221 351.177 653.015 350.688 651.354 350.688C649.929 350.688 648.835 351.245 648.073 352.358C647.321 353.462 646.945 355.024 646.945 357.046C646.945 359.097 647.321 360.645 648.073 361.689C648.825 362.734 649.929 363.257 651.384 363.257ZM681.047 345.503C678.693 345.503 676.833 346.289 675.466 347.861C674.108 349.424 673.43 351.567 673.43 354.292C673.43 357.095 674.084 359.263 675.393 360.796C676.711 362.319 678.586 363.081 681.018 363.081C682.512 363.081 684.216 362.812 686.13 362.275V364.458C684.646 365.015 682.814 365.293 680.637 365.293C677.482 365.293 675.046 364.336 673.327 362.422C671.618 360.508 670.764 357.788 670.764 354.263C670.764 352.056 671.174 350.122 671.994 348.462C672.824 346.802 674.016 345.522 675.568 344.624C677.131 343.726 678.967 343.276 681.076 343.276C683.322 343.276 685.285 343.687 686.965 344.507L685.91 346.646C684.289 345.884 682.668 345.503 681.047 345.503ZM692.722 348.945V359.36C692.722 360.669 693.02 361.646 693.615 362.29C694.211 362.935 695.144 363.257 696.413 363.257C698.093 363.257 699.318 362.798 700.09 361.88C700.871 360.962 701.262 359.463 701.262 357.383V348.945H703.693V365H701.687L701.335 362.847H701.203C700.705 363.638 700.012 364.243 699.123 364.663C698.244 365.083 697.238 365.293 696.105 365.293C694.152 365.293 692.688 364.829 691.711 363.901C690.744 362.974 690.261 361.489 690.261 359.448V348.945H692.722ZM719.221 360.62C719.221 362.114 718.664 363.267 717.551 364.077C716.438 364.888 714.875 365.293 712.863 365.293C710.734 365.293 709.074 364.956 707.883 364.282V362.026C708.654 362.417 709.479 362.725 710.358 362.949C711.247 363.174 712.102 363.286 712.922 363.286C714.191 363.286 715.168 363.086 715.852 362.686C716.535 362.275 716.877 361.655 716.877 360.825C716.877 360.2 716.604 359.668 716.057 359.229C715.52 358.779 714.465 358.252 712.893 357.646C711.398 357.09 710.334 356.606 709.699 356.196C709.074 355.776 708.605 355.303 708.293 354.775C707.99 354.248 707.839 353.618 707.839 352.886C707.839 351.577 708.371 350.547 709.436 349.795C710.5 349.033 711.96 348.652 713.815 348.652C715.544 348.652 717.233 349.004 718.884 349.707L718.02 351.685C716.408 351.021 714.948 350.688 713.64 350.688C712.487 350.688 711.618 350.869 711.032 351.23C710.446 351.592 710.153 352.09 710.153 352.725C710.153 353.154 710.261 353.521 710.476 353.823C710.7 354.126 711.057 354.414 711.545 354.688C712.033 354.961 712.971 355.356 714.357 355.874C716.262 356.567 717.546 357.266 718.21 357.969C718.884 358.672 719.221 359.556 719.221 360.62ZM728.376 363.286C728.806 363.286 729.221 363.257 729.621 363.198C730.021 363.13 730.339 363.062 730.573 362.993V364.854C730.31 364.98 729.919 365.083 729.401 365.161C728.894 365.249 728.435 365.293 728.024 365.293C724.919 365.293 723.366 363.657 723.366 360.386V350.835H721.066V349.663L723.366 348.652L724.392 345.225H725.798V348.945H730.456V350.835H725.798V360.283C725.798 361.25 726.027 361.992 726.486 362.51C726.945 363.027 727.575 363.286 728.376 363.286ZM747.653 356.958C747.653 359.575 746.994 361.621 745.676 363.096C744.357 364.561 742.536 365.293 740.212 365.293C738.776 365.293 737.502 364.956 736.389 364.282C735.275 363.608 734.416 362.642 733.811 361.382C733.205 360.122 732.902 358.647 732.902 356.958C732.902 354.341 733.557 352.305 734.865 350.85C736.174 349.385 737.99 348.652 740.314 348.652C742.561 348.652 744.343 349.399 745.661 350.894C746.989 352.388 747.653 354.409 747.653 356.958ZM735.422 356.958C735.422 359.009 735.832 360.571 736.652 361.646C737.473 362.72 738.679 363.257 740.271 363.257C741.862 363.257 743.068 362.725 743.889 361.66C744.719 360.586 745.134 359.019 745.134 356.958C745.134 354.917 744.719 353.369 743.889 352.314C743.068 351.25 741.853 350.718 740.241 350.718C738.649 350.718 737.448 351.24 736.638 352.285C735.827 353.33 735.422 354.888 735.422 356.958ZM772.395 365V354.556C772.395 353.276 772.121 352.319 771.574 351.685C771.027 351.04 770.178 350.718 769.025 350.718C767.512 350.718 766.394 351.152 765.671 352.021C764.948 352.891 764.587 354.229 764.587 356.035V365H762.155V354.556C762.155 353.276 761.882 352.319 761.335 351.685C760.788 351.04 759.934 350.718 758.771 350.718C757.248 350.718 756.13 351.177 755.417 352.095C754.714 353.003 754.362 354.497 754.362 356.577V365H751.931V348.945H753.908L754.304 351.143H754.421C754.88 350.361 755.524 349.751 756.354 349.312C757.194 348.872 758.132 348.652 759.167 348.652C761.677 348.652 763.317 349.561 764.089 351.377H764.206C764.685 350.537 765.378 349.873 766.286 349.385C767.194 348.896 768.229 348.652 769.392 348.652C771.208 348.652 772.565 349.121 773.464 350.059C774.372 350.986 774.826 352.476 774.826 354.526V365H772.395ZM786.633 365.293C784.26 365.293 782.385 364.57 781.008 363.125C779.641 361.68 778.957 359.673 778.957 357.104C778.957 354.517 779.592 352.461 780.861 350.938C782.141 349.414 783.854 348.652 786.003 348.652C788.015 348.652 789.606 349.316 790.778 350.645C791.95 351.963 792.536 353.706 792.536 355.874V357.412H781.477C781.525 359.297 781.999 360.728 782.897 361.704C783.806 362.681 785.08 363.169 786.721 363.169C788.449 363.169 790.158 362.808 791.848 362.085V364.253C790.988 364.624 790.173 364.888 789.401 365.044C788.64 365.21 787.717 365.293 786.633 365.293ZM785.974 350.688C784.685 350.688 783.654 351.108 782.883 351.948C782.121 352.788 781.672 353.95 781.535 355.435H789.929C789.929 353.901 789.587 352.729 788.903 351.919C788.22 351.099 787.243 350.688 785.974 350.688ZM804.021 348.652C804.733 348.652 805.373 348.711 805.939 348.828L805.603 351.084C804.938 350.938 804.353 350.864 803.845 350.864C802.546 350.864 801.433 351.392 800.505 352.446C799.587 353.501 799.128 354.814 799.128 356.387V365H796.696V348.945H798.703L798.981 351.919H799.099C799.694 350.874 800.412 350.068 801.252 349.502C802.092 348.936 803.015 348.652 804.021 348.652ZM819.299 360.62C819.299 362.114 818.742 363.267 817.629 364.077C816.516 364.888 814.953 365.293 812.941 365.293C810.812 365.293 809.152 364.956 807.961 364.282V362.026C808.732 362.417 809.558 362.725 810.437 362.949C811.325 363.174 812.18 363.286 813 363.286C814.27 363.286 815.246 363.086 815.93 362.686C816.613 362.275 816.955 361.655 816.955 360.825C816.955 360.2 816.682 359.668 816.135 359.229C815.598 358.779 814.543 358.252 812.971 357.646C811.477 357.09 810.412 356.606 809.777 356.196C809.152 355.776 808.684 355.303 808.371 354.775C808.068 354.248 807.917 353.618 807.917 352.886C807.917 351.577 808.449 350.547 809.514 349.795C810.578 349.033 812.038 348.652 813.894 348.652C815.622 348.652 817.312 349.004 818.962 349.707L818.098 351.685C816.486 351.021 815.026 350.688 813.718 350.688C812.565 350.688 811.696 350.869 811.11 351.23C810.524 351.592 810.231 352.09 810.231 352.725C810.231 353.154 810.339 353.521 810.554 353.823C810.778 354.126 811.135 354.414 811.623 354.688C812.111 354.961 813.049 355.356 814.436 355.874C816.34 356.567 817.624 357.266 818.288 357.969C818.962 358.672 819.299 359.556 819.299 360.62Z" fill="white"/>
<path d="M691.088 129.608C688.746 130.059 686.146 131.82 684.857 133.84C683.568 135.881 683.332 136.955 683.332 141.209C683.332 145.742 683.633 147.031 685.158 149.115C689.498 155.002 698.564 154.207 701.766 147.633C702.818 145.485 703.205 141.188 702.646 137.75C701.787 132.272 696.502 128.533 691.088 129.608ZM695.213 132.379C697.104 132.959 698.693 134.399 699.574 136.289C700.176 137.621 700.197 137.707 700.197 141.295V144.947L699.488 146.387C698.178 149.029 695.857 150.512 692.979 150.512C691.539 150.512 691.131 150.404 689.906 149.803C688.209 148.965 686.963 147.611 686.34 145.957C685.91 144.84 685.889 144.389 685.953 140.865C686.018 137.342 686.061 136.912 686.512 136.096C687.543 134.162 689.219 132.787 691.26 132.25C692.678 131.863 693.623 131.885 695.213 132.379Z" fill="white"/>
<path d="M666.359 134.978C663.824 135.473 661.439 137.385 660.279 139.855L659.592 141.295V145.377V149.459L660.279 150.898C661.525 153.541 663.867 155.324 666.789 155.84C671.193 156.613 675.684 153.476 676.65 148.965C676.779 148.342 676.887 146.73 676.887 145.377C676.887 141.467 676.285 139.555 674.395 137.535C672.375 135.365 669.324 134.398 666.359 134.978ZM670.85 138.051C672.031 138.652 673.277 139.963 673.793 141.123C674.33 142.348 674.48 147.375 674.008 148.986C673.578 150.447 672.16 152.101 670.721 152.81C669.109 153.562 667.025 153.519 665.393 152.682C663.975 151.951 662.707 150.512 662.299 149.137C661.977 148.084 661.998 142.541 662.32 141.596C663.502 138.072 667.562 136.396 670.85 138.051Z" fill="white"/>
<path d="M715.794 135.086C712.507 135.967 710.036 138.523 709.349 141.789C709.048 143.25 709.048 147.482 709.349 148.965C709.864 151.457 711.712 153.863 713.989 155.023C718.329 157.215 723.614 155.346 725.72 150.898L726.407 149.459V145.377V141.295L725.72 139.855C724.517 137.299 722.175 135.473 719.446 134.957C717.942 134.678 717.212 134.699 715.794 135.086ZM720.714 138.137C722.024 138.803 723.292 140.285 723.7 141.617C723.829 142.047 723.937 143.744 723.937 145.377C723.937 147.01 723.829 148.707 723.7 149.137C723.292 150.512 722.024 151.951 720.606 152.682C718.974 153.519 716.89 153.562 715.278 152.81C713.903 152.144 712.421 150.447 712.013 149.072C711.562 147.525 711.583 143.1 712.056 141.639C712.657 139.748 714.505 138.051 716.524 137.514C717.62 137.234 719.446 137.492 720.714 138.137Z" fill="white"/>
<path d="M683.547 154.357C681.893 154.916 680.518 155.711 679.422 156.721L678.627 157.473L677.295 156.936C676.586 156.656 675.469 156.355 674.824 156.291C673.686 156.162 673.643 156.184 672.59 157.172C671.129 158.547 670.033 159.02 668.293 159.02C666.574 159.02 665.135 158.396 663.889 157.107C663.158 156.355 662.922 156.227 662.148 156.227C661.031 156.227 658.947 156.871 657.723 157.58C656.562 158.268 654.736 160.18 654.135 161.34C653.211 163.166 653.039 164.412 653.039 169.654C653.039 172.361 653.125 174.703 653.211 174.832C653.662 175.52 654.328 175.562 665.156 175.562H676.027V177.26C676.027 178.527 676.113 179.064 676.371 179.301C676.672 179.602 678.477 179.645 693.086 179.645C705.525 179.645 709.521 179.58 709.715 179.387C709.865 179.236 709.973 178.441 709.973 177.346V175.562H720.844C731.672 175.562 732.338 175.52 732.789 174.832C732.875 174.703 732.961 172.361 732.961 169.654C732.961 163.08 732.617 161.748 730.189 159.17C729.029 157.924 727.826 157.172 726.064 156.635C724.002 155.99 723.443 156.076 722.348 157.15C720.908 158.568 720.07 158.912 717.922 158.912C716.332 158.912 715.967 158.848 715.129 158.332C714.592 158.031 713.84 157.408 713.453 156.979C712.766 156.184 712.744 156.162 711.412 156.27C710.682 156.334 709.5 156.613 708.791 156.914L707.502 157.43L706.234 156.398C704.816 155.26 703.527 154.594 701.916 154.164C699.982 153.648 699.531 153.734 698.178 154.98C696.652 156.377 695.449 156.914 693.537 157.043C691.496 157.172 689.971 156.592 688.295 155.023C687.135 153.949 686.963 153.863 685.996 153.863C685.416 153.863 684.32 154.1 683.547 154.357ZM686.684 157.107C688.596 159.127 692.334 160.137 695.363 159.428C696.674 159.127 698.285 158.289 699.51 157.258L700.541 156.398L701.744 156.785C704.172 157.559 706.363 159.75 707.094 162.156C707.33 162.93 707.395 164.756 707.395 170.127V177.066H693H678.584L678.648 169.805L678.713 162.564L679.314 161.275C680.303 159.17 682.043 157.623 684.385 156.764C685.566 156.312 685.996 156.377 686.684 157.107ZM662.771 159.578C663.244 160.008 664.168 160.609 664.834 160.932C665.887 161.426 666.295 161.49 668.293 161.49C670.291 161.49 670.699 161.426 671.752 160.932C672.418 160.609 673.342 160.008 673.814 159.578L674.674 158.805L675.77 159.127C676.371 159.32 676.908 159.535 676.973 159.643C677.037 159.729 676.865 160.33 676.607 160.975C676.178 162.027 676.135 162.629 676.027 167.506L675.92 172.877L665.758 172.941L655.596 172.984L655.66 168.537C655.725 164.154 655.725 164.047 656.326 162.844C657.057 161.34 658.689 159.836 660.193 159.256C661.697 158.676 661.783 158.697 662.771 159.578ZM712.809 159.836C714.613 161.211 716.117 161.662 718.416 161.555C720.414 161.469 722.025 160.867 723.594 159.578C724.389 158.912 724.604 158.848 725.141 158.998C727.074 159.557 728.943 161.189 729.803 163.059C730.232 163.982 730.275 164.498 730.34 168.537L730.404 172.984L720.242 172.941L710.08 172.877L709.973 167.398C709.865 162.35 709.822 161.834 709.371 160.781L708.898 159.643L709.586 159.363C711.348 158.654 711.219 158.633 712.809 159.836Z" fill="white"/>
<path d="M712.765 185.187C712.121 185.424 709.972 186.477 707.996 187.551L704.387 189.527H699.617C693.945 189.527 692.957 189.355 689.519 187.83C685.609 186.09 684.256 185.789 680.324 185.811C676.478 185.811 674.76 186.176 671.773 187.594C669.539 188.668 668.443 189.398 666.037 191.547C664.984 192.471 663.523 193.523 662.836 193.846C661.59 194.426 661.203 194.469 661.203 193.996C661.203 193.437 659.635 188.861 659.355 188.561C659.076 188.281 657.959 188.238 651.535 188.238H644.015L643.693 188.754C643.371 189.227 643.521 190.687 645.713 208.541C647.625 224.332 648.119 227.877 648.441 228.221C648.785 228.607 649.215 228.629 659.699 228.629C669.969 228.629 670.613 228.607 670.935 228.242C671.15 228.027 671.301 227.641 671.301 227.383C671.301 227.146 670.72 225.041 670.012 222.742C669.303 220.422 668.722 218.402 668.722 218.23C668.722 217.93 676.693 212.73 677.832 212.301C678.906 211.893 680.324 212.086 689.863 213.848C698.822 215.523 699.488 215.609 702.238 215.609C705.439 215.588 707.072 215.309 709.972 214.234C711.541 213.676 713.26 212.58 722.433 206.264C728.277 202.246 735.131 197.541 737.644 195.822C740.158 194.104 742.306 192.514 742.435 192.277C742.779 191.633 742.521 190.988 741.426 189.785C740.803 189.076 739.943 188.432 739.019 187.98C737.687 187.314 737.429 187.271 735.41 187.271C733.584 187.271 733.09 187.357 732.144 187.787L731.049 188.303L730.275 187.615C729.845 187.25 729.008 186.691 728.385 186.369C727.418 185.854 727.01 185.768 725.441 185.768C723.873 185.768 723.465 185.854 722.498 186.348L721.402 186.928L720.844 186.498C720.543 186.262 719.748 185.832 719.082 185.51C717.428 184.758 714.506 184.607 712.765 185.187ZM718.115 187.895L718.845 188.281L717.685 188.926C717.041 189.27 715.773 189.957 714.849 190.451L713.174 191.332L712.164 190.773C711.605 190.473 710.789 190.107 710.316 189.957L709.5 189.699L710.638 189.033C713.152 187.637 714.033 187.357 715.773 187.443C716.762 187.486 717.664 187.68 718.115 187.895ZM683.246 188.475C684.986 188.775 686.297 189.205 688.767 190.322C692.42 191.955 692.398 191.934 701.271 192.084C708.812 192.213 709.263 192.234 710.23 192.686C712.099 193.545 713.732 195.414 714.291 197.305L714.463 197.906H713.345C712.722 197.906 710.295 197.799 707.931 197.691C703.635 197.477 697.855 197.713 696.738 198.121C695.793 198.486 695.793 200.162 696.738 200.398C697.017 200.463 698.736 200.42 700.541 200.291C703.054 200.119 705.31 200.119 709.972 200.355C716.783 200.678 716.976 200.656 717.105 199.389C717.17 198.744 717.449 198.572 725.334 194.297C733.455 189.893 733.498 189.871 735.023 189.785C736.248 189.721 736.763 189.785 737.644 190.172C738.246 190.43 738.89 190.816 739.084 191.031C739.513 191.504 740.91 190.451 725.656 200.914C719.576 205.104 713.646 209.164 712.508 209.937C709.199 212.236 704.838 213.396 700.906 213.074C699.982 212.988 695.062 212.172 689.97 211.227C684.599 210.238 680.131 209.508 679.336 209.508C677.424 209.508 676.521 209.916 671.988 212.795C669.818 214.191 667.97 215.309 667.885 215.309C667.756 215.309 662.277 197.562 662.277 197.154C662.277 197.025 663.029 196.574 663.953 196.145C665.092 195.607 666.295 194.77 667.82 193.416C671.129 190.516 673.32 189.334 676.801 188.582C678.584 188.217 681.484 188.152 683.246 188.475ZM727.332 188.775C727.933 189.055 728.449 189.377 728.449 189.484C728.449 189.785 716.804 196.037 716.633 195.822C716.547 195.736 716.181 195.092 715.816 194.426L715.15 193.201L718.738 191.289C720.715 190.215 722.799 189.098 723.379 188.797C724.711 188.088 725.849 188.088 727.332 188.775ZM662.965 208.434C665.887 218.059 668.293 225.965 668.293 225.986C668.293 226.029 664.275 226.051 659.377 226.051H650.482L650.353 225.342C650.246 224.719 646.164 191.16 646.164 190.924C646.164 190.859 648.742 190.838 651.9 190.859L657.615 190.924L662.965 208.434Z" fill="white"/>
<path d="M657.229 216.92C654.608 217.865 653.727 221.26 655.575 223.301C656.004 223.795 656.67 224.311 657.057 224.483C660 225.707 663.309 222.871 662.514 219.82C661.869 217.414 659.463 216.082 657.229 216.92ZM659.764 219.863C660.28 220.465 660.215 221.045 659.592 221.647C658.948 222.313 658.26 222.334 657.616 221.711C656.971 221.11 656.992 220.358 657.68 219.692C658.303 219.047 659.119 219.111 659.764 219.863Z" fill="white"/>
<path d="M1063.49 300.934C1066.52 300.934 1068.94 301.786 1070.73 303.49C1072.53 305.195 1073.43 307.529 1073.43 310.494C1073.43 314.003 1072.35 316.703 1070.19 318.594C1068.03 320.484 1064.93 321.43 1060.91 321.43C1057.41 321.43 1054.59 320.864 1052.44 319.732V313.996C1053.57 314.598 1054.89 315.092 1056.4 315.479C1057.9 315.851 1059.33 316.037 1060.67 316.037C1064.73 316.037 1066.75 314.376 1066.75 311.053C1066.75 307.887 1064.65 306.305 1060.46 306.305C1059.7 306.305 1058.86 306.383 1057.94 306.541C1057.03 306.684 1056.28 306.842 1055.71 307.014L1053.07 305.596L1054.25 289.59H1071.29V295.219H1060.07L1059.49 301.385L1060.24 301.234C1061.12 301.034 1062.2 300.934 1063.49 300.934ZM1080.31 321L1092.1 295.219H1076.61V289.633H1099.15V293.801L1087.27 321H1080.31ZM1110.77 307.852H1102.46V303.146H1110.77V294.768H1115.48V303.146H1123.79V307.852H1115.48V316.123H1110.77V307.852ZM982.59 354.263C982.59 357.69 981.721 360.386 979.982 362.349C978.254 364.312 975.847 365.293 972.761 365.293C969.606 365.293 967.17 364.331 965.451 362.407C963.742 360.474 962.888 357.749 962.888 354.233C962.888 350.747 963.747 348.047 965.466 346.133C967.185 344.209 969.626 343.247 972.79 343.247C975.866 343.247 978.269 344.224 979.997 346.177C981.726 348.13 982.59 350.825 982.59 354.263ZM965.524 354.263C965.524 357.163 966.14 359.365 967.37 360.869C968.61 362.363 970.407 363.11 972.761 363.11C975.134 363.11 976.926 362.363 978.137 360.869C979.348 359.375 979.953 357.173 979.953 354.263C979.953 351.382 979.348 349.199 978.137 347.715C976.936 346.221 975.153 345.474 972.79 345.474C970.417 345.474 968.61 346.226 967.37 347.729C966.14 349.224 965.524 351.401 965.524 354.263ZM994.484 365.293C993.439 365.293 992.482 365.103 991.613 364.722C990.754 364.331 990.031 363.735 989.445 362.935H989.27C989.387 363.872 989.445 364.761 989.445 365.601V372.207H987.014V348.945H988.991L989.328 351.143H989.445C990.07 350.264 990.798 349.629 991.628 349.238C992.458 348.848 993.41 348.652 994.484 348.652C996.613 348.652 998.254 349.38 999.406 350.835C1000.57 352.29 1001.15 354.331 1001.15 356.958C1001.15 359.595 1000.56 361.646 999.377 363.11C998.205 364.565 996.574 365.293 994.484 365.293ZM994.133 350.718C992.492 350.718 991.306 351.172 990.573 352.08C989.841 352.988 989.465 354.434 989.445 356.416V356.958C989.445 359.214 989.821 360.83 990.573 361.807C991.325 362.773 992.531 363.257 994.191 363.257C995.578 363.257 996.662 362.695 997.443 361.572C998.234 360.449 998.63 358.901 998.63 356.929C998.63 354.927 998.234 353.394 997.443 352.329C996.662 351.255 995.559 350.718 994.133 350.718ZM1012.19 365.293C1009.82 365.293 1007.95 364.57 1006.57 363.125C1005.2 361.68 1004.52 359.673 1004.52 357.104C1004.52 354.517 1005.15 352.461 1006.42 350.938C1007.7 349.414 1009.42 348.652 1011.56 348.652C1013.58 348.652 1015.17 349.316 1016.34 350.645C1017.51 351.963 1018.1 353.706 1018.1 355.874V357.412H1007.04C1007.09 359.297 1007.56 360.728 1008.46 361.704C1009.37 362.681 1010.64 363.169 1012.28 363.169C1014.01 363.169 1015.72 362.808 1017.41 362.085V364.253C1016.55 364.624 1015.73 364.888 1014.96 365.044C1014.2 365.21 1013.28 365.293 1012.19 365.293ZM1011.54 350.688C1010.25 350.688 1009.22 351.108 1008.44 351.948C1007.68 352.788 1007.23 353.95 1007.1 355.435H1015.49C1015.49 353.901 1015.15 352.729 1014.46 351.919C1013.78 351.099 1012.8 350.688 1011.54 350.688ZM1033.24 365V354.614C1033.24 353.306 1032.95 352.329 1032.35 351.685C1031.75 351.04 1030.82 350.718 1029.55 350.718C1027.87 350.718 1026.64 351.172 1025.86 352.08C1025.08 352.988 1024.69 354.487 1024.69 356.577V365H1022.26V348.945H1024.24L1024.63 351.143H1024.75C1025.25 350.352 1025.94 349.741 1026.84 349.312C1027.74 348.872 1028.74 348.652 1029.85 348.652C1031.78 348.652 1033.23 349.121 1034.21 350.059C1035.19 350.986 1035.68 352.476 1035.68 354.526V365H1033.24ZM1047.47 365.293C1045.09 365.293 1043.22 364.57 1041.84 363.125C1040.48 361.68 1039.79 359.673 1039.79 357.104C1039.79 354.517 1040.43 352.461 1041.7 350.938C1042.98 349.414 1044.69 348.652 1046.84 348.652C1048.85 348.652 1050.44 349.316 1051.61 350.645C1052.79 351.963 1053.37 353.706 1053.37 355.874V357.412H1042.31C1042.36 359.297 1042.83 360.728 1043.73 361.704C1044.64 362.681 1045.92 363.169 1047.56 363.169C1049.28 363.169 1050.99 362.808 1052.68 362.085V364.253C1051.82 364.624 1051.01 364.888 1050.24 365.044C1049.47 365.21 1048.55 365.293 1047.47 365.293ZM1046.81 350.688C1045.52 350.688 1044.49 351.108 1043.72 351.948C1042.96 352.788 1042.51 353.95 1042.37 355.435H1050.76C1050.76 353.901 1050.42 352.729 1049.74 351.919C1049.05 351.099 1048.08 350.688 1046.81 350.688ZM1068.46 362.847H1068.33C1067.2 364.478 1065.52 365.293 1063.29 365.293C1061.19 365.293 1059.55 364.575 1058.38 363.14C1057.22 361.704 1056.64 359.663 1056.64 357.017C1056.64 354.37 1057.22 352.314 1058.4 350.85C1059.57 349.385 1061.2 348.652 1063.29 348.652C1065.47 348.652 1067.14 349.443 1068.3 351.025H1068.49L1068.39 349.868L1068.33 348.74V342.207H1070.76V365H1068.78L1068.46 362.847ZM1063.6 363.257C1065.26 363.257 1066.46 362.808 1067.2 361.909C1067.95 361.001 1068.33 359.541 1068.33 357.529V357.017C1068.33 354.741 1067.95 353.12 1067.18 352.153C1066.43 351.177 1065.23 350.688 1063.57 350.688C1062.14 350.688 1061.05 351.245 1060.29 352.358C1059.53 353.462 1059.16 355.024 1059.16 357.046C1059.16 359.097 1059.53 360.645 1060.29 361.689C1061.04 362.734 1062.14 363.257 1063.6 363.257ZM1084.09 365V343.584H1086.58V362.744H1096.03V365H1084.09ZM1113.17 356.958C1113.17 359.575 1112.51 361.621 1111.19 363.096C1109.87 364.561 1108.05 365.293 1105.72 365.293C1104.29 365.293 1103.01 364.956 1101.9 364.282C1100.79 363.608 1099.93 362.642 1099.32 361.382C1098.72 360.122 1098.42 358.647 1098.42 356.958C1098.42 354.341 1099.07 352.305 1100.38 350.85C1101.69 349.385 1103.5 348.652 1105.83 348.652C1108.07 348.652 1109.86 349.399 1111.17 350.894C1112.5 352.388 1113.17 354.409 1113.17 356.958ZM1100.93 356.958C1100.93 359.009 1101.34 360.571 1102.17 361.646C1102.99 362.72 1104.19 363.257 1105.78 363.257C1107.38 363.257 1108.58 362.725 1109.4 361.66C1110.23 360.586 1110.65 359.019 1110.65 356.958C1110.65 354.917 1110.23 353.369 1109.4 352.314C1108.58 351.25 1107.37 350.718 1105.75 350.718C1104.16 350.718 1102.96 351.24 1102.15 352.285C1101.34 353.33 1100.93 354.888 1100.93 356.958ZM1123.86 365.293C1121.54 365.293 1119.73 364.58 1118.45 363.154C1117.18 361.719 1116.55 359.692 1116.55 357.075C1116.55 354.39 1117.19 352.314 1118.48 350.85C1119.78 349.385 1121.63 348.652 1124.02 348.652C1124.79 348.652 1125.56 348.735 1126.33 348.901C1127.11 349.067 1127.71 349.263 1128.15 349.487L1127.4 351.553C1126.87 351.338 1126.28 351.162 1125.65 351.025C1125.01 350.879 1124.45 350.806 1123.96 350.806C1120.7 350.806 1119.07 352.886 1119.07 357.046C1119.07 359.019 1119.46 360.532 1120.26 361.587C1121.06 362.642 1122.24 363.169 1123.8 363.169C1125.14 363.169 1126.51 362.881 1127.92 362.305V364.458C1126.84 365.015 1125.49 365.293 1123.86 365.293ZM1141.61 365L1141.13 362.715H1141.01C1140.21 363.721 1139.41 364.404 1138.61 364.766C1137.82 365.117 1136.83 365.293 1135.64 365.293C1134.04 365.293 1132.79 364.883 1131.89 364.062C1130.99 363.242 1130.54 362.075 1130.54 360.562C1130.54 357.319 1133.13 355.62 1138.32 355.464L1141.04 355.376V354.38C1141.04 353.12 1140.77 352.192 1140.22 351.597C1139.68 350.991 1138.82 350.688 1137.63 350.688C1136.29 350.688 1134.78 351.099 1133.09 351.919L1132.34 350.059C1133.13 349.629 1134 349.292 1134.93 349.048C1135.88 348.804 1136.83 348.682 1137.78 348.682C1139.69 348.682 1141.11 349.106 1142.02 349.956C1142.95 350.806 1143.42 352.168 1143.42 354.043V365H1141.61ZM1136.12 363.286C1137.63 363.286 1138.82 362.871 1139.68 362.041C1140.55 361.211 1140.98 360.049 1140.98 358.555V357.104L1138.55 357.207C1136.62 357.275 1135.22 357.578 1134.36 358.115C1133.51 358.643 1133.09 359.468 1133.09 360.591C1133.09 361.47 1133.35 362.139 1133.88 362.598C1134.42 363.057 1135.16 363.286 1136.12 363.286ZM1153.62 363.286C1154.05 363.286 1154.47 363.257 1154.87 363.198C1155.27 363.13 1155.59 363.062 1155.82 362.993V364.854C1155.56 364.98 1155.17 365.083 1154.65 365.161C1154.14 365.249 1153.68 365.293 1153.27 365.293C1150.17 365.293 1148.62 363.657 1148.62 360.386V350.835H1146.32V349.663L1148.62 348.652L1149.64 345.225H1151.05V348.945H1155.71V350.835H1151.05V360.283C1151.05 361.25 1151.28 361.992 1151.74 362.51C1152.19 363.027 1152.82 363.286 1153.62 363.286ZM1161.48 365H1159.04V348.945H1161.48V365ZM1158.84 344.595C1158.84 344.038 1158.98 343.633 1159.25 343.379C1159.52 343.115 1159.87 342.983 1160.28 342.983C1160.67 342.983 1161 343.115 1161.29 343.379C1161.57 343.643 1161.71 344.048 1161.71 344.595C1161.71 345.142 1161.57 345.552 1161.29 345.825C1161 346.089 1160.67 346.221 1160.28 346.221C1159.87 346.221 1159.52 346.089 1159.25 345.825C1158.98 345.552 1158.84 345.142 1158.84 344.595ZM1180.49 356.958C1180.49 359.575 1179.83 361.621 1178.51 363.096C1177.19 364.561 1175.37 365.293 1173.05 365.293C1171.61 365.293 1170.34 364.956 1169.23 364.282C1168.11 363.608 1167.25 362.642 1166.65 361.382C1166.04 360.122 1165.74 358.647 1165.74 356.958C1165.74 354.341 1166.39 352.305 1167.7 350.85C1169.01 349.385 1170.83 348.652 1173.15 348.652C1175.4 348.652 1177.18 349.399 1178.5 350.894C1179.83 352.388 1180.49 354.409 1180.49 356.958ZM1168.26 356.958C1168.26 359.009 1168.67 360.571 1169.49 361.646C1170.31 362.72 1171.52 363.257 1173.11 363.257C1174.7 363.257 1175.91 362.725 1176.73 361.66C1177.56 360.586 1177.97 359.019 1177.97 356.958C1177.97 354.917 1177.56 353.369 1176.73 352.314C1175.91 351.25 1174.69 350.718 1173.08 350.718C1171.49 350.718 1170.29 351.24 1169.47 352.285C1168.66 353.33 1168.26 354.888 1168.26 356.958ZM1195.75 365V354.614C1195.75 353.306 1195.46 352.329 1194.86 351.685C1194.26 351.04 1193.33 350.718 1192.06 350.718C1190.38 350.718 1189.15 351.172 1188.37 352.08C1187.59 352.988 1187.2 354.487 1187.2 356.577V365H1184.77V348.945H1186.75L1187.14 351.143H1187.26C1187.76 350.352 1188.45 349.741 1189.35 349.312C1190.25 348.872 1191.25 348.652 1192.36 348.652C1194.29 348.652 1195.74 349.121 1196.72 350.059C1197.7 350.986 1198.19 352.476 1198.19 354.526V365H1195.75ZM1213.55 360.62C1213.55 362.114 1213 363.267 1211.88 364.077C1210.77 364.888 1209.21 365.293 1207.19 365.293C1205.07 365.293 1203.41 364.956 1202.21 364.282V362.026C1202.99 362.417 1203.81 362.725 1204.69 362.949C1205.58 363.174 1206.43 363.286 1207.25 363.286C1208.52 363.286 1209.5 363.086 1210.18 362.686C1210.87 362.275 1211.21 361.655 1211.21 360.825C1211.21 360.2 1210.93 359.668 1210.39 359.229C1209.85 358.779 1208.8 358.252 1207.22 357.646C1205.73 357.09 1204.67 356.606 1204.03 356.196C1203.41 355.776 1202.94 355.303 1202.62 354.775C1202.32 354.248 1202.17 353.618 1202.17 352.886C1202.17 351.577 1202.7 350.547 1203.77 349.795C1204.83 349.033 1206.29 348.652 1208.15 348.652C1209.88 348.652 1211.56 349.004 1213.21 349.707L1212.35 351.685C1210.74 351.021 1209.28 350.688 1207.97 350.688C1206.82 350.688 1205.95 350.869 1205.36 351.23C1204.78 351.592 1204.48 352.09 1204.48 352.725C1204.48 353.154 1204.59 353.521 1204.81 353.823C1205.03 354.126 1205.39 354.414 1205.88 354.688C1206.36 354.961 1207.3 355.356 1208.69 355.874C1210.59 356.567 1211.88 357.266 1212.54 357.969C1213.21 358.672 1213.55 359.556 1213.55 360.62Z" fill="white"/>
<path d="M1082.84 126.471C1074.16 127.953 1066.64 132.809 1061.77 140.07C1059.4 143.615 1057.96 146.967 1057 151.242C1056.61 153.004 1056.55 153.971 1056.55 157.516C1056.55 161.232 1056.61 162.006 1057.13 164.391C1059.86 177.281 1070.08 196.961 1085.06 218.166C1087.85 222.119 1088.09 222.098 1091.05 218.145C1095.61 212.021 1100.85 204.223 1104.8 197.562C1112.41 184.801 1117.09 173.865 1118.98 164.391C1119.67 160.91 1119.69 154.336 1119 151.285C1118.06 147.031 1116.55 143.551 1114.21 140.049C1109.27 132.658 1101.43 127.717 1092.58 126.385C1090.54 126.062 1084.86 126.127 1082.84 126.471ZM1094.77 129.887C1097.43 130.553 1098.72 131.047 1101.32 132.4C1109.14 136.418 1114.81 144.303 1116.27 153.197C1116.79 156.312 1116.6 161.125 1115.82 164.799C1113.97 173.65 1108.54 185.682 1100.5 198.766C1096.83 204.717 1088.56 216.812 1088.04 216.963C1087.87 217.027 1087.61 216.662 1083.6 210.689C1070.32 191.01 1061.75 173.607 1059.83 162.5C1057.51 148.879 1065.14 135.709 1078.18 130.789C1079.34 130.359 1082.26 129.607 1084.13 129.285C1084.43 129.242 1086.45 129.221 1088.64 129.264C1092.08 129.307 1092.92 129.393 1094.77 129.887Z" fill="white"/>
<path d="M1084.71 139.813C1080.91 140.5 1077.58 142.348 1074.72 145.377C1073.33 146.859 1072.75 147.676 1071.89 149.416C1070.36 152.531 1069.91 154.4 1069.91 157.731C1069.91 160.953 1070.36 162.887 1071.76 165.787C1074.14 170.664 1078.61 174.145 1084.13 175.455C1086.2 175.928 1090.04 175.885 1092.3 175.348C1098.79 173.779 1103.88 168.731 1105.66 162.049C1106.26 159.75 1106.26 155.711 1105.64 153.326C1103.83 146.365 1098.1 141.016 1091.14 139.791C1088.84 139.404 1086.97 139.404 1084.71 139.813ZM1091.87 143.014C1093.67 143.486 1096.34 144.904 1097.84 146.172C1101.69 149.416 1103.71 154.594 1103.04 159.492C1102.24 165.358 1098.48 170.02 1092.96 171.996C1091.22 172.619 1090.94 172.662 1088 172.662C1085.06 172.662 1084.78 172.619 1083.04 171.996C1078.68 170.449 1075.17 166.947 1073.69 162.693C1070.6 153.82 1076.21 144.389 1085.59 142.692C1086.95 142.434 1090.41 142.606 1091.87 143.014Z" fill="white"/>
<path d="M1102.14 211.377C1101.92 211.613 1101.75 212.108 1101.75 212.473C1101.75 213.44 1102.5 213.934 1104.26 214.106C1108.28 214.514 1114.94 216.211 1117.46 217.479C1119.97 218.746 1120.55 219.67 1119.43 220.723C1117.24 222.785 1110.34 224.633 1100.78 225.772C1096.1 226.33 1079.9 226.33 1075.22 225.772C1065.7 224.654 1058.76 222.764 1056.59 220.723C1055.47 219.67 1056.03 218.725 1058.46 217.5C1060.84 216.318 1066.3 214.836 1070.15 214.342C1072.1 214.084 1072.83 212.924 1071.8 211.742L1071.31 211.141L1068.86 211.506C1065.72 211.979 1061.1 213.139 1058.89 214.02C1054.79 215.652 1052.98 217.393 1052.98 219.735C1052.98 224.053 1060.56 227.104 1075.32 228.758C1079.56 229.209 1091.74 229.402 1096.51 229.08C1113.29 227.899 1123.02 224.461 1123.02 219.713C1123.02 216.125 1118.14 213.504 1108.07 211.656C1106.82 211.42 1105.04 211.162 1104.13 211.098C1102.7 210.969 1102.46 211.012 1102.14 211.377Z" fill="white"/>
<path opacity="0.5" d="M495.5 160V340" stroke="white"/>
<path opacity="0.5" d="M891.5 160V340" stroke="white"/>
<path opacity="0.5" d="M1285.5 160V340" stroke="white"/>
</g>
<defs>
<linearGradient id="paint0_linear_7_40" x1="960" y1="0" x2="960" y2="500" gradientUnits="userSpaceOnUse">
<stop stop-color="#00A1C9"/>
<stop offset="0.494792" stop-color="#0064AE"/>
<stop offset="1" stop-color="#003399"/>
</linearGradient>
<clipPath id="clip0_7_40">
<rect width="1920" height="500" fill="white"/>
</clipPath>
</defs>
</svg>
